<?plantuml 1.2026.2?><svg xmlns="http://www.w3.org/2000/svg" xmlns:xlink="http://www.w3.org/1999/xlink" contentStyleType="text/css" data-diagram-type="DESCRIPTION" height="509px" preserveAspectRatio="none" style="width:941px;height:509px;background:#FFFFFF;" version="1.1" viewBox="0 0 941 509" width="941px" zoomAndPan="magnify"><defs/><g><!--cluster M?dulo de Gesti?n de Usuario--><g class="cluster" data-qualified-name="M.dulo de Gesti.n de Usuario" data-source-line="7" id="ent0005"><rect fill="none" height="98" rx="2.5" ry="2.5" style="stroke:#181818;stroke-width:1;" width="235" x="700" y="242.5"/><text fill="#000000" font-family="sans-serif" font-size="14" font-weight="bold" lengthAdjust="spacing" textLength="202.2344" x="716.3828" y="259.0332">M&#243;dulo de Gesti&#243;n de Usuario</text></g><!--cluster M?dulo de Planificaci?n--><g class="cluster" data-qualified-name="M.dulo de Planificaci.n" data-source-line="11" id="ent0007"><rect fill="none" height="155" rx="2.5" ry="2.5" style="stroke:#181818;stroke-width:1;" width="185" x="426" y="105.5"/><text fill="#000000" font-family="sans-serif" font-size="14" font-weight="bold" lengthAdjust="spacing" textLength="160.2344" x="438.3828" y="122.0332">M&#243;dulo de Planificaci&#243;n</text></g><!--cluster M?dulo Social--><g class="cluster" data-qualified-name="M.dulo Social" data-source-line="16" id="ent0010"><rect fill="none" height="165" rx="2.5" ry="2.5" style="stroke:#181818;stroke-width:1;" width="207" x="114.5" y="214.5"/><text fill="#000000" font-family="sans-serif" font-size="14" font-weight="bold" lengthAdjust="spacing" textLength="94.8896" x="170.5552" y="231.0332">M&#243;dulo Social</text></g><!--cluster M?dulo de IA--><g class="cluster" data-qualified-name="M.dulo de IA" data-source-line="21" id="ent0013"><rect fill="none" height="100" rx="2.5" ry="2.5" style="stroke:#181818;stroke-width:1;" width="242" x="97" y="403.5"/><text fill="#000000" font-family="sans-serif" font-size="14" font-weight="bold" lengthAdjust="spacing" textLength="87.876" x="174.062" y="420.0332">M&#243;dulo de IA</text></g><!--entity UC_ACCOUNT--><g class="entity" data-qualified-name="M.dulo de Gesti.n de Usuario.UC_ACCOUNT" data-source-line="8" id="ent0006"><ellipse cx="817.3477" cy="301.6695" fill="#F1F1F1" rx="101.3477" ry="22.6695" style="stroke:#181818;stroke-width:0.5;"/><text fill="#000000" font-family="sans-serif" font-size="14" lengthAdjust="spacing" textLength="175.8887" x="729.4034" y="306.9742">Gestionar cuenta de usuario</text></g><!--entity UC_PLAN--><g class="entity" data-qualified-name="M.dulo de Planificaci.n.UC_PLAN" data-source-line="12" id="ent0008"><ellipse cx="518.5974" cy="228.6195" fill="#F1F1F1" rx="68.5974" ry="16.1195" style="stroke:#181818;stroke-width:0.5;"/><text fill="#000000" font-family="sans-serif" font-size="14" lengthAdjust="spacing" textLength="97.2617" x="469.9666" y="233.9242">Planificar viajes</text></g><!--entity UC_RES--><g class="entity" data-qualified-name="M.dulo de Planificaci.n.UC_RES" data-source-line="13" id="ent0009"><ellipse cx="518.7219" cy="159.7444" fill="#F1F1F1" rx="76.7219" ry="17.7444" style="stroke:#181818;stroke-width:0.5;"/><text fill="#000000" font-family="sans-serif" font-size="14" lengthAdjust="spacing" textLength="118.2686" x="459.5877" y="165.0491">Gestionar reservas</text></g><!--entity UC_SOCIAL--><g class="entity" data-qualified-name="M.dulo Social.UC_SOCIAL" data-source-line="17" id="ent0011"><ellipse cx="217.7546" cy="344.6509" fill="#F1F1F1" rx="83.7546" ry="19.1509" style="stroke:#181818;stroke-width:0.5;"/><text fill="#000000" font-family="sans-serif" font-size="14" lengthAdjust="spacing" textLength="135.3994" x="150.0549" y="349.9556">Conectar con viajeros</text></g><!--entity UC_SHARE--><g class="entity" data-qualified-name="M.dulo Social.UC_SHARE" data-source-line="18" id="ent0012"><ellipse cx="217.8686" cy="270.3737" fill="#F1F1F1" rx="87.3686" ry="19.8737" style="stroke:#181818;stroke-width:0.5;"/><text fill="#000000" font-family="sans-serif" font-size="14" lengthAdjust="spacing" textLength="143.9443" x="145.8964" y="275.6784">Compartir experiencias</text></g><!--entity UC_AI--><g class="entity" data-qualified-name="M.dulo de IA.UC_AI" data-source-line="22" id="ent0014"><ellipse cx="218.1923" cy="463.4385" fill="#F1F1F1" rx="105.1923" ry="23.4385" style="stroke:#181818;stroke-width:0.5;"/><text fill="#000000" font-family="sans-serif" font-size="14" lengthAdjust="spacing" textLength="184.4473" x="125.9686" y="468.7431">Obtener asistencia inteligente</text></g><!--entity UB--><g class="entity" data-qualified-name="UB" data-source-line="3" id="ent0002"><ellipse cx="518.5205" cy="14" fill="#F1F1F1" rx="8" ry="8" style="stroke:#181818;stroke-width:0.5;"/><path d="M518.5205,22 L518.5205,49 M505.5205,30 L531.5205,30 M518.5205,49 L505.5205,64 M518.5205,49 L531.5205,64" fill="none" style="stroke:#181818;stroke-width:0.5;"/><text fill="#000000" font-family="sans-serif" font-size="14" lengthAdjust="spacing" textLength="84.041" x="476.5" y="80.0332">Usuario Base</text></g><!--entity V--><g class="entity" data-qualified-name="V" data-source-line="4" id="ent0003"><ellipse cx="27.7896" cy="173" fill="#F1F1F1" rx="8" ry="8" style="stroke:#181818;stroke-width:0.5;"/><path d="M27.7896,181 L27.7896,208 M14.7896,189 L40.7896,189 M27.7896,208 L14.7896,223 M27.7896,208 L40.7896,223" fill="none" style="stroke:#181818;stroke-width:0.5;"/><text fill="#000000" font-family="sans-serif" font-size="14" lengthAdjust="spacing" textLength="43.5791" x="6" y="239.0332">Viajero</text></g><!--link V to UB--><g class="link" data-entity-1="ent0003" data-entity-2="ent0002" data-link-type="extension" data-source-line="5" id="lnk4"><path d="M50.14,171.6 C60.38,158.52 73.77,144.39 89,135.5 C216.24,61.2 378.3381,47.7794 458.3881,45.3794" fill="none" id="V-to-UB" style="stroke:#181818;stroke-width:1;"/><polygon fill="none" points="476.38,44.84,458.2083,39.3821,458.5679,51.3767,476.38,44.84" style="stroke:#181818;stroke-width:1;"/></g><!--link UB to UC_ACCOUNT--><g class="link" data-entity-1="ent0002" data-entity-2="ent0006" data-link-type="dependency" data-source-line="26" id="lnk15"><path d="M560.5,77.2 C578.59,91.8 600.01,109.32 619,125.5 C682.63,179.7 751.18,241.7433 788.05,275.4233" fill="none" id="UB-to-UC_ACCOUNT" style="stroke:#181818;stroke-width:1;"/><polygon fill="#181818" points="792.48,279.47,788.5329,270.4467,788.7884,276.0978,783.1373,276.3533,792.48,279.47" style="stroke:#181818;stroke-width:1;"/></g><!--link V to UC_PLAN--><g class="link" data-entity-1="ent0003" data-entity-2="ent0008" data-link-type="dependency" data-source-line="29" id="lnk16"><path d="M50.25,202.66 C59.67,202.4 70.89,202.24 81,202.5 C227.37,206.28 263.92,209.61 410,219.5 C424.29,220.47 433.6705,221.1648 448.1605,222.3648" fill="none" id="V-to-UC_PLAN" style="stroke:#181818;stroke-width:1;"/><polygon fill="#181818" points="454.14,222.86,445.5008,218.1308,449.1571,222.4473,444.8406,226.1036,454.14,222.86" style="stroke:#181818;stroke-width:1;"/></g><!--link V to UC_RES--><g class="link" data-entity-1="ent0003" data-entity-2="ent0009" data-link-type="dependency" data-source-line="30" id="lnk17"><path d="M50.45,189.4 C59.24,184.36 69.75,179.26 80,176.5 C206.07,142.58 353.9153,146.0916 441.5153,152.3616" fill="none" id="V-to-UC_RES" style="stroke:#181818;stroke-width:1;"/><polygon fill="#181818" points="447.5,152.79,438.8085,148.1577,442.5128,152.433,438.2374,156.1373,447.5,152.79" style="stroke:#181818;stroke-width:1;"/></g><!--link V to UC_SOCIAL--><g class="link" data-entity-1="ent0003" data-entity-2="ent0011" data-link-type="dependency" data-source-line="31" id="lnk18"><path d="M42.66,242.56 C52.35,264.89 67.49,291.7 89,308.5 C105.28,321.21 120.0349,327.8853 139.8649,333.2053" fill="none" id="V-to-UC_SOCIAL" style="stroke:#181818;stroke-width:1;"/><polygon fill="#181818" points="145.66,334.76,138.0039,328.5646,140.8308,333.4644,135.9309,336.2913,145.66,334.76" style="stroke:#181818;stroke-width:1;"/></g><!--link V to UC_SHARE--><g class="link" data-entity-1="ent0003" data-entity-2="ent0012" data-link-type="dependency" data-source-line="32" id="lnk19"><path d="M50.2,211.06 C79.01,221.32 125.6681,237.956 164.0581,251.636" fill="none" id="V-to-UC_SHARE" style="stroke:#181818;stroke-width:1;"/><polygon fill="#181818" points="169.71,253.65,162.5748,246.8611,165.0001,251.9717,159.8895,254.3969,169.71,253.65" style="stroke:#181818;stroke-width:1;"/></g><!--link V to UC_AI--><g class="link" data-entity-1="ent0003" data-entity-2="ent0014" data-link-type="dependency" data-source-line="33" id="lnk20"><path d="M34.77,242.68 C42.03,280.86 57.56,338.93 89,379.5 C110.25,406.92 137.7931,425.4106 164.8831,439.7006" fill="none" id="V-to-UC_AI" style="stroke:#181818;stroke-width:1;"/><polygon fill="#181818" points="170.19,442.5,164.0959,434.763,165.7676,440.1672,160.3634,441.8388,170.19,442.5" style="stroke:#181818;stroke-width:1;"/></g><!--link UC_PLAN to UC_ACCOUNT--><g class="link" data-entity-1="ent0008" data-entity-2="ent0006" data-link-type="dependency" data-source-line="36" id="lnk21"><path d="M566.23,239.99 C615.32,252.05 687.1735,269.7074 742.9735,283.4274" fill="none" id="UC_PLAN-to-UC_ACCOUNT" style="stroke:#181818;stroke-width:1;stroke-dasharray:7,7;"/><polygon fill="#181818" points="748.8,284.86,741.0154,278.8268,743.9446,283.6662,739.1052,286.5954,748.8,284.86" style="stroke:#181818;stroke-width:1;"/><text fill="#000000" font-family="sans-serif" font-size="13" lengthAdjust="spacing" textLength="55.6563" x="628" y="252.9951">&#171;include&#187;</text></g><!--link UC_SOCIAL to UC_ACCOUNT--><g class="link" data-entity-1="ent0011" data-entity-2="ent0006" data-link-type="dependency" data-source-line="37" id="lnk22"><path d="M298.34,338.79 C407.47,330.94 597.6455,317.2507 714.7755,308.8207" fill="none" id="UC_SOCIAL-to-UC_ACCOUNT" style="stroke:#181818;stroke-width:1;stroke-dasharray:7,7;"/><polygon fill="#181818" points="720.76,308.39,711.4961,305.0464,715.7729,308.7489,712.0704,313.0258,720.76,308.39" style="stroke:#181818;stroke-width:1;"/><text fill="#000000" font-family="sans-serif" font-size="13" lengthAdjust="spacing" textLength="55.6563" x="491" y="311.9951">&#171;include&#187;</text></g><!--link UC_AI to UC_ACCOUNT--><g class="link" data-entity-1="ent0014" data-entity-2="ent0006" data-link-type="dependency" data-source-line="38" id="lnk23"><path d="M285.9,445.51 C365.35,424.12 501.86,387.33 619,355.5 C663.77,343.34 708.423,331.1246 747.133,320.5246" fill="none" id="UC_AI-to-UC_ACCOUNT" style="stroke:#181818;stroke-width:1;stroke-dasharray:7,7;"/><polygon fill="#181818" points="752.92,318.94,743.1831,317.459,748.0975,320.2605,745.296,325.1749,752.92,318.94" style="stroke:#181818;stroke-width:1;"/><text fill="#000000" font-family="sans-serif" font-size="13" lengthAdjust="spacing" textLength="55.6563" x="491" y="351.9951">&#171;include&#187;</text></g><!--link UC_AI to UC_PLAN--><g class="link" data-entity-1="ent0014" data-entity-2="ent0008" data-link-type="dependency" data-source-line="39" id="lnk24"><path d="M255.54,441.48 C281.68,425.27 317.33,402.18 347,379.5 C362.9,367.34 455.8687,283.9521 495.8987,247.9521" fill="none" id="UC_AI-to-UC_PLAN" style="stroke:#181818;stroke-width:1;stroke-dasharray:7,7;"/><polygon fill="#181818" points="500.36,243.94,490.9934,246.984,496.6423,247.2834,496.3429,252.9324,500.36,243.94" style="stroke:#181818;stroke-width:1;"/><text fill="#000000" font-family="sans-serif" font-size="13" lengthAdjust="spacing" textLength="53.4917" x="356" y="323.9951">&#171;extend&#187;</text></g><!--link UC_SHARE to UC_PLAN--><g class="link" data-entity-1="ent0012" data-entity-2="ent0008" data-link-type="dependency" data-source-line="40" id="lnk25"><path d="M293.17,260.06 C344.45,252.85 405.7784,244.215 453.2384,237.545" fill="none" id="UC_SHARE-to-UC_PLAN" style="stroke:#181818;stroke-width:1;stroke-dasharray:7,7;"/><polygon fill="#181818" points="459.18,236.71,449.7109,234.0015,454.2287,237.4059,450.8243,241.9236,459.18,236.71" style="stroke:#181818;stroke-width:1;"/><text fill="#000000" font-family="sans-serif" font-size="13" lengthAdjust="spacing" textLength="53.4917" x="356" y="241.9951">&#171;extend&#187;</text></g><?plantuml-src bLB1Ri8m3BtdAwnUTe8Fc52bqg4DYG62mNNAMiCoXQHoKeIqxQlu17viIIY1eNNJRdRyyfxzR8ah2rO3YVMhXL8G5bPenHWlh2P85gRc93JqkS44k855_rHQ2lw6fCFhaYsXq_b8VPbv3gxM4Y5vFEpBMcee4UxHM77OAnyth0cyCu3QOE7O8Ga8hJX1KQEot2Fh4z9BvyzPdayMuoVssQOobLo9bIXuuRMk16AHOEkRDoVQwIWR_zm9eK7QyeYS3UOjudDT22wl57EjFD9DfDLHatJaca_oOJRw3jzKdAmWm5s5950vpZF-8PiDsaSVPbVYanUB2idz5iO6AX3AeXHhvov6IuUUyWPygpitD1geI3XqnQMBEv25TVi3O8k-st9wkOZVFZO74auZZJR7p5iPayQBSnvcZQbhqYdTOOMgF9eIHY7b0YCsbGnhBRbXZGnqkvTzmYtqUgutMPUOfYmA_WdBXl-0165Vnvtpkso4_2JjY2y0?></g></svg>