<?xml version="1.0" encoding="us-ascii" standalone="no"?><svg xmlns="http://www.w3.org/2000/svg" xmlns:xlink="http://www.w3.org/1999/xlink" contentStyleType="text/css" height="1062px" preserveAspectRatio="none" style="width:3265px;height:1062px;background:#FFFFFF;" version="1.1" viewBox="0 0 3265 1062" width="3265px" zoomAndPan="magnify"><defs/><g><text fill="#000000" font-family="sans-serif" font-size="14" font-weight="bold" lengthAdjust="spacing" textLength="304.4375" x="1473.2813" y="24.5332">Despliegue UML &#8212; Arquitectura Cloud AWS</text><!--cluster region--><g id="cluster_region"><polygon fill="none" points="16,183.6094,26,173.6094,1772,173.6094,1772,1035.6094,1762,1045.6094,16,1045.6094,16,183.6094" style="stroke:#181818;stroke-width:1.0;"/><line style="stroke:#181818;stroke-width:1.0;" x1="1762" x2="1772" y1="183.6094" y2="173.6094"/><line style="stroke:#181818;stroke-width:1.0;" x1="16" x2="1762" y1="183.6094" y2="183.6094"/><line style="stroke:#181818;stroke-width:1.0;" x1="1762" x2="1762" y1="183.6094" y2="1045.6094"/><text fill="#000000" font-family="sans-serif" font-size="14" font-weight="bold" lengthAdjust="spacing" textLength="119" x="830.5" y="201.1426">Regi&#243;n us-east-1</text></g><!--cluster vpc--><g id="cluster_vpc"><polygon fill="none" points="1018,353.6094,1028,343.6094,1748,343.6094,1748,890.6094,1738,900.6094,1018,900.6094,1018,353.6094" style="stroke:#181818;stroke-width:1.0;"/><line style="stroke:#181818;stroke-width:1.0;" x1="1738" x2="1748" y1="353.6094" y2="343.6094"/><line style="stroke:#181818;stroke-width:1.0;" x1="1018" x2="1738" y1="353.6094" y2="353.6094"/><line style="stroke:#181818;stroke-width:1.0;" x1="1738" x2="1738" y1="353.6094" y2="900.6094"/><text fill="#000000" font-family="sans-serif" font-size="14" font-weight="bold" lengthAdjust="spacing" textLength="104" x="1327" y="371.1426">VPC 10.0.0.0/16</text></g><!--cluster asg_backend--><g id="cluster_asg_backend"><polygon fill="none" points="1050,531.6094,1060,521.6094,1271,521.6094,1271,660.6094,1261,670.6094,1050,670.6094,1050,531.6094" style="stroke:#181818;stroke-width:1.0;"/><line style="stroke:#181818;stroke-width:1.0;" x1="1261" x2="1271" y1="531.6094" y2="521.6094"/><line style="stroke:#181818;stroke-width:1.0;" x1="1050" x2="1261" y1="531.6094" y2="531.6094"/><line style="stroke:#181818;stroke-width:1.0;" x1="1261" x2="1261" y1="531.6094" y2="670.6094"/><text fill="#000000" font-family="sans-serif" font-size="14" font-weight="bold" lengthAdjust="spacing" textLength="94" x="1109.5" y="549.1426">ASG Backend</text><text fill="#000000" font-family="sans-serif" font-size="14" font-weight="bold" lengthAdjust="spacing" textLength="127" x="1093" y="566.752">EC2 t3.micro :8080</text></g><!--cluster asg_ai--><g id="cluster_asg_ai"><polygon fill="none" points="1311,531.6094,1321,521.6094,1534,521.6094,1534,660.6094,1524,670.6094,1311,670.6094,1311,531.6094" style="stroke:#181818;stroke-width:1.0;"/><line style="stroke:#181818;stroke-width:1.0;" x1="1524" x2="1534" y1="531.6094" y2="521.6094"/><line style="stroke:#181818;stroke-width:1.0;" x1="1311" x2="1524" y1="531.6094" y2="531.6094"/><line style="stroke:#181818;stroke-width:1.0;" x1="1524" x2="1524" y1="531.6094" y2="670.6094"/><text fill="#000000" font-family="sans-serif" font-size="14" font-weight="bold" lengthAdjust="spacing" textLength="46" x="1395.5" y="549.1426">ASG IA</text><text fill="#000000" font-family="sans-serif" font-size="14" font-weight="bold" lengthAdjust="spacing" textLength="127" x="1355" y="566.752">EC2 t3.micro :8000</text></g><!--cluster rds_backend--><g id="cluster_rds_backend"><polygon fill="none" points="1239,746.6094,1249,736.6094,1457,736.6094,1457,858.6094,1447,868.6094,1239,868.6094,1239,746.6094" style="stroke:#181818;stroke-width:1.0;"/><line style="stroke:#181818;stroke-width:1.0;" x1="1447" x2="1457" y1="746.6094" y2="736.6094"/><line style="stroke:#181818;stroke-width:1.0;" x1="1239" x2="1447" y1="746.6094" y2="746.6094"/><line style="stroke:#181818;stroke-width:1.0;" x1="1447" x2="1447" y1="746.6094" y2="868.6094"/><text fill="#000000" font-family="sans-serif" font-size="14" font-weight="bold" lengthAdjust="spacing" textLength="116" x="1286" y="764.1426">RDS PostgreSQL</text><text fill="#000000" font-family="sans-serif" font-size="14" font-weight="bold" lengthAdjust="spacing" textLength="142" x="1273" y="781.752">db.t3.micro backend</text></g><!--cluster rds_ai--><g id="cluster_rds_ai"><polygon fill="none" points="1497,746.6094,1507,736.6094,1716,736.6094,1716,858.6094,1706,868.6094,1497,868.6094,1497,746.6094" style="stroke:#181818;stroke-width:1.0;"/><line style="stroke:#181818;stroke-width:1.0;" x1="1706" x2="1716" y1="746.6094" y2="736.6094"/><line style="stroke:#181818;stroke-width:1.0;" x1="1497" x2="1706" y1="746.6094" y2="746.6094"/><line style="stroke:#181818;stroke-width:1.0;" x1="1706" x2="1706" y1="746.6094" y2="868.6094"/><text fill="#000000" font-family="sans-serif" font-size="14" font-weight="bold" lengthAdjust="spacing" textLength="116" x="1544.5" y="764.1426">RDS PostgreSQL</text><text fill="#000000" font-family="sans-serif" font-size="14" font-weight="bold" lengthAdjust="spacing" textLength="95" x="1555" y="781.752">db.t3.micro IA</text></g><!--entity cloudfront--><g id="elem_cloudfront"><polygon fill="#F1F1F1" points="32,595.1094,42,585.1094,244,585.1094,244,640.3281,234,650.3281,32,650.3281,32,595.1094" style="stroke:#181818;stroke-width:0.5;"/><line style="stroke:#181818;stroke-width:0.5;" x1="234" x2="244" y1="595.1094" y2="585.1094"/><line style="stroke:#181818;stroke-width:0.5;" x1="32" x2="234" y1="595.1094" y2="595.1094"/><line style="stroke:#181818;stroke-width:0.5;" x1="234" x2="234" y1="595.1094" y2="650.3281"/><text fill="#000000" font-family="sans-serif" font-size="14" lengthAdjust="spacing" textLength="125" x="47" y="619.6426">Amazon CloudFront</text><text fill="#000000" font-family="sans-serif" font-size="14" lengthAdjust="spacing" textLength="172" x="47" y="637.252">CDN para frontend est&#225;tico</text></g><!--entity s3--><g id="elem_s3"><polygon fill="#F1F1F1" points="265.5,801.6094,275.5,791.6094,496.5,791.6094,496.5,846.8281,486.5,856.8281,265.5,856.8281,265.5,801.6094" style="stroke:#181818;stroke-width:0.5;"/><line style="stroke:#181818;stroke-width:0.5;" x1="486.5" x2="496.5" y1="801.6094" y2="791.6094"/><line style="stroke:#181818;stroke-width:0.5;" x1="265.5" x2="486.5" y1="801.6094" y2="801.6094"/><line style="stroke:#181818;stroke-width:0.5;" x1="486.5" x2="486.5" y1="801.6094" y2="856.8281"/><text fill="#000000" font-family="sans-serif" font-size="14" lengthAdjust="spacing" textLength="71" x="280.5" y="826.1426">Amazon S3</text><text fill="#000000" font-family="sans-serif" font-size="14" lengthAdjust="spacing" textLength="191" x="280.5" y="843.752">Buckets: frontend, media, logs</text></g><!--entity api_gateway--><g id="elem_api_gateway"><polygon fill="#F1F1F1" points="215,224.6094,225,214.6094,401,214.6094,401,269.8281,391,279.8281,215,279.8281,215,224.6094" style="stroke:#181818;stroke-width:0.5;"/><line style="stroke:#181818;stroke-width:0.5;" x1="391" x2="401" y1="224.6094" y2="214.6094"/><line style="stroke:#181818;stroke-width:0.5;" x1="215" x2="391" y1="224.6094" y2="224.6094"/><line style="stroke:#181818;stroke-width:0.5;" x1="391" x2="391" y1="224.6094" y2="279.8281"/><text fill="#000000" font-family="sans-serif" font-size="14" lengthAdjust="spacing" textLength="134" x="230" y="249.1426">Amazon API Gateway</text><text fill="#000000" font-family="sans-serif" font-size="14" lengthAdjust="spacing" textLength="146" x="230" y="266.752">REST API + stage prod</text></g><!--entity sns--><g id="elem_sns"><polygon fill="#F1F1F1" points="710.5,801.6094,720.5,791.6094,1001.5,791.6094,1001.5,846.8281,991.5,856.8281,710.5,856.8281,710.5,801.6094" style="stroke:#181818;stroke-width:0.5;"/><line style="stroke:#181818;stroke-width:0.5;" x1="991.5" x2="1001.5" y1="801.6094" y2="791.6094"/><line style="stroke:#181818;stroke-width:0.5;" x1="710.5" x2="991.5" y1="801.6094" y2="801.6094"/><line style="stroke:#181818;stroke-width:0.5;" x1="991.5" x2="991.5" y1="801.6094" y2="856.8281"/><text fill="#000000" font-family="sans-serif" font-size="14" lengthAdjust="spacing" textLength="81" x="725.5" y="826.1426">Amazon SNS</text><text fill="#000000" font-family="sans-serif" font-size="14" lengthAdjust="spacing" textLength="251" x="725.5" y="843.752">T&#243;picos: user, recommendation, system</text></g><!--entity sqs--><g id="elem_sqs"><polygon fill="#F1F1F1" points="712,974.6094,722,964.6094,1000,964.6094,1000,1019.8281,990,1029.8281,712,1029.8281,712,974.6094" style="stroke:#181818;stroke-width:0.5;"/><line style="stroke:#181818;stroke-width:0.5;" x1="990" x2="1000" y1="974.6094" y2="964.6094"/><line style="stroke:#181818;stroke-width:0.5;" x1="712" x2="990" y1="974.6094" y2="974.6094"/><line style="stroke:#181818;stroke-width:0.5;" x1="990" x2="990" y1="974.6094" y2="1029.8281"/><text fill="#000000" font-family="sans-serif" font-size="14" lengthAdjust="spacing" textLength="83" x="727" y="999.1426">Amazon SQS</text><text fill="#000000" font-family="sans-serif" font-size="14" lengthAdjust="spacing" textLength="248" x="727" y="1016.752">Colas: user, recommendation, analytics</text></g><!--entity cloudwatch--><g id="elem_cloudwatch"><polygon fill="#F1F1F1" points="32,801.6094,42,791.6094,230,791.6094,230,846.8281,220,856.8281,32,856.8281,32,801.6094" style="stroke:#181818;stroke-width:0.5;"/><line style="stroke:#181818;stroke-width:0.5;" x1="220" x2="230" y1="801.6094" y2="791.6094"/><line style="stroke:#181818;stroke-width:0.5;" x1="32" x2="220" y1="801.6094" y2="801.6094"/><line style="stroke:#181818;stroke-width:0.5;" x1="220" x2="220" y1="801.6094" y2="856.8281"/><text fill="#000000" font-family="sans-serif" font-size="14" lengthAdjust="spacing" textLength="131" x="47" y="826.1426">Amazon CloudWatch</text><text fill="#000000" font-family="sans-serif" font-size="14" lengthAdjust="spacing" textLength="158" x="47" y="843.752">Logs y alarmas CPU/cola</text></g><!--entity subnet1--><g id="elem_subnet1"><polygon fill="#F1F1F1" points="1520.5,394.6094,1530.5,384.6094,1731.5,384.6094,1731.5,439.8281,1721.5,449.8281,1520.5,449.8281,1520.5,394.6094" style="stroke:#181818;stroke-width:0.5;"/><line style="stroke:#181818;stroke-width:0.5;" x1="1721.5" x2="1731.5" y1="394.6094" y2="384.6094"/><line style="stroke:#181818;stroke-width:0.5;" x1="1520.5" x2="1721.5" y1="394.6094" y2="394.6094"/><line style="stroke:#181818;stroke-width:0.5;" x1="1721.5" x2="1721.5" y1="394.6094" y2="449.8281"/><text fill="#000000" font-family="sans-serif" font-size="14" lengthAdjust="spacing" textLength="171" x="1535.5" y="419.1426">Subred p&#250;blica 10.0.1.0/24</text><text fill="#000000" font-family="sans-serif" font-size="14" lengthAdjust="spacing" textLength="78" x="1535.5" y="436.752">(us-east-1e)</text></g><!--entity subnet2--><g id="elem_subnet2"><polygon fill="#F1F1F1" points="1274.5,394.6094,1284.5,384.6094,1485.5,384.6094,1485.5,439.8281,1475.5,449.8281,1274.5,449.8281,1274.5,394.6094" style="stroke:#181818;stroke-width:0.5;"/><line style="stroke:#181818;stroke-width:0.5;" x1="1475.5" x2="1485.5" y1="394.6094" y2="384.6094"/><line style="stroke:#181818;stroke-width:0.5;" x1="1274.5" x2="1475.5" y1="394.6094" y2="394.6094"/><line style="stroke:#181818;stroke-width:0.5;" x1="1475.5" x2="1475.5" y1="394.6094" y2="449.8281"/><text fill="#000000" font-family="sans-serif" font-size="14" lengthAdjust="spacing" textLength="171" x="1289.5" y="419.1426">Subred p&#250;blica 10.0.2.0/24</text><text fill="#000000" font-family="sans-serif" font-size="14" lengthAdjust="spacing" textLength="78" x="1289.5" y="436.752">(us-east-1a)</text></g><!--entity internet_gateway--><g id="elem_internet_gateway"><polygon fill="#F1F1F1" points="1558.5,595.1094,1568.5,585.1094,1705.5,585.1094,1705.5,640.3281,1695.5,650.3281,1558.5,650.3281,1558.5,595.1094" style="stroke:#181818;stroke-width:0.5;"/><line style="stroke:#181818;stroke-width:0.5;" x1="1695.5" x2="1705.5" y1="595.1094" y2="585.1094"/><line style="stroke:#181818;stroke-width:0.5;" x1="1558.5" x2="1695.5" y1="595.1094" y2="595.1094"/><line style="stroke:#181818;stroke-width:0.5;" x1="1695.5" x2="1695.5" y1="595.1094" y2="650.3281"/><text fill="#000000" font-family="sans-serif" font-size="14" lengthAdjust="spacing" textLength="107" x="1573.5" y="619.6426">Internet Gateway</text><text fill="#000000" font-family="sans-serif" font-size="14" lengthAdjust="spacing" textLength="105" x="1573.5" y="637.252">+ route 0.0.0.0/0</text></g><!--entity alb--><g id="elem_alb"><polygon fill="#F1F1F1" points="1034.5,403.1094,1044.5,393.1094,1239.5,393.1094,1239.5,430.7188,1229.5,440.7188,1034.5,440.7188,1034.5,403.1094" style="stroke:#181818;stroke-width:0.5;"/><line style="stroke:#181818;stroke-width:0.5;" x1="1229.5" x2="1239.5" y1="403.1094" y2="393.1094"/><line style="stroke:#181818;stroke-width:0.5;" x1="1034.5" x2="1229.5" y1="403.1094" y2="403.1094"/><line style="stroke:#181818;stroke-width:0.5;" x1="1229.5" x2="1229.5" y1="403.1094" y2="440.7188"/><text fill="#000000" font-family="sans-serif" font-size="14" lengthAdjust="spacing" textLength="165" x="1049.5" y="427.6426">Application Load Balancer</text></g><!--entity backend_jar--><g id="elem_backend_jar"><rect fill="#F1F1F1" height="58.2188" rx="2.5" ry="2.5" style="stroke:#181818;stroke-width:0.5;" width="154" x="1093" y="588.6094"/><polygon fill="#F1F1F1" points="1230,593.6094,1230,607.6094,1242,607.6094,1242,599.6094,1236,593.6094,1230,593.6094" style="stroke:#181818;stroke-width:0.5;"/><line style="stroke:#181818;stroke-width:0.5;" x1="1236" x2="1236" y1="593.6094" y2="599.6094"/><line style="stroke:#181818;stroke-width:0.5;" x1="1242" x2="1236" y1="599.6094" y2="599.6094"/><text fill="#000000" font-family="sans-serif" font-size="14" lengthAdjust="spacing" textLength="124" x="1103" y="616.1426">backend-service.jar</text><text fill="#000000" font-family="sans-serif" font-size="14" lengthAdjust="spacing" textLength="39" x="1103" y="633.752">v1.2.3</text></g><!--entity ai_container--><g id="elem_ai_container"><rect fill="#F1F1F1" height="58.2188" rx="2.5" ry="2.5" style="stroke:#181818;stroke-width:0.5;" width="155" x="1354.5" y="588.6094"/><polygon fill="#F1F1F1" points="1492.5,593.6094,1492.5,607.6094,1504.5,607.6094,1504.5,599.6094,1498.5,593.6094,1492.5,593.6094" style="stroke:#181818;stroke-width:0.5;"/><line style="stroke:#181818;stroke-width:0.5;" x1="1498.5" x2="1498.5" y1="593.6094" y2="599.6094"/><line style="stroke:#181818;stroke-width:0.5;" x1="1504.5" x2="1498.5" y1="599.6094" y2="599.6094"/><text fill="#000000" font-family="sans-serif" font-size="14" lengthAdjust="spacing" textLength="125" x="1364.5" y="616.1426">ai-service-container</text><text fill="#000000" font-family="sans-serif" font-size="14" lengthAdjust="spacing" textLength="39" x="1364.5" y="633.752">v2.1.0</text></g><!--entity backend_schema--><g id="elem_backend_schema"><rect fill="#F1F1F1" height="40.6094" rx="2.5" ry="2.5" style="stroke:#181818;stroke-width:0.5;" width="133" x="1294.5" y="803.6094"/><polygon fill="#F1F1F1" points="1410.5,808.6094,1410.5,822.6094,1422.5,822.6094,1422.5,814.6094,1416.5,808.6094,1410.5,808.6094" style="stroke:#181818;stroke-width:0.5;"/><line style="stroke:#181818;stroke-width:0.5;" x1="1416.5" x2="1416.5" y1="808.6094" y2="814.6094"/><line style="stroke:#181818;stroke-width:0.5;" x1="1422.5" x2="1416.5" y1="814.6094" y2="814.6094"/><text fill="#000000" font-family="sans-serif" font-size="14" lengthAdjust="spacing" textLength="103" x="1304.5" y="831.1426">schema-v1.0.sql</text></g><!--entity ai_schema--><g id="elem_ai_schema"><rect fill="#F1F1F1" height="40.6094" rx="2.5" ry="2.5" style="stroke:#181818;stroke-width:0.5;" width="152" x="1540" y="803.6094"/><polygon fill="#F1F1F1" points="1675,808.6094,1675,822.6094,1687,822.6094,1687,814.6094,1681,808.6094,1675,808.6094" style="stroke:#181818;stroke-width:0.5;"/><line style="stroke:#181818;stroke-width:0.5;" x1="1681" x2="1681" y1="808.6094" y2="814.6094"/><line style="stroke:#181818;stroke-width:0.5;" x1="1687" x2="1681" y1="814.6094" y2="814.6094"/><text fill="#000000" font-family="sans-serif" font-size="14" lengthAdjust="spacing" textLength="122" x="1550" y="831.1426">ml-schema-v1.0.sql</text></g><!--entity browser_device--><g id="elem_browser_device"><polygon fill="#F1F1F1" points="52.5,54.6094,62.5,44.6094,223.5,44.6094,223.5,99.8281,213.5,109.8281,52.5,109.8281,52.5,54.6094" style="stroke:#181818;stroke-width:0.5;"/><line style="stroke:#181818;stroke-width:0.5;" x1="213.5" x2="223.5" y1="54.6094" y2="44.6094"/><line style="stroke:#181818;stroke-width:0.5;" x1="52.5" x2="213.5" y1="54.6094" y2="54.6094"/><line style="stroke:#181818;stroke-width:0.5;" x1="213.5" x2="213.5" y1="54.6094" y2="109.8281"/><text fill="#000000" font-family="sans-serif" font-size="14" lengthAdjust="spacing" textLength="131" x="67.5" y="79.1426">Web Browser Device</text><text fill="#000000" font-family="sans-serif" font-size="14" lengthAdjust="spacing" textLength="95" x="67.5" y="96.752">Cliente externo</text></g><!--entity android_device--><g id="elem_android_device"><polygon fill="#F1F1F1" points="258.5,54.6094,268.5,44.6094,429.5,44.6094,429.5,99.8281,419.5,109.8281,258.5,109.8281,258.5,54.6094" style="stroke:#181818;stroke-width:0.5;"/><line style="stroke:#181818;stroke-width:0.5;" x1="419.5" x2="429.5" y1="54.6094" y2="44.6094"/><line style="stroke:#181818;stroke-width:0.5;" x1="258.5" x2="419.5" y1="54.6094" y2="54.6094"/><line style="stroke:#181818;stroke-width:0.5;" x1="419.5" x2="419.5" y1="54.6094" y2="109.8281"/><text fill="#000000" font-family="sans-serif" font-size="14" lengthAdjust="spacing" textLength="96" x="273.5" y="79.1426">Android Device</text><text fill="#000000" font-family="sans-serif" font-size="14" lengthAdjust="spacing" textLength="131" x="273.5" y="96.752">Cliente m&#243;vil externo</text></g><!--entity nequi_service--><g id="elem_nequi_service"><polygon fill="#F1F1F1" points="1788,801.6094,1798,791.6094,1974,791.6094,1974,846.8281,1964,856.8281,1788,856.8281,1788,801.6094" style="stroke:#181818;stroke-width:0.5;"/><line style="stroke:#181818;stroke-width:0.5;" x1="1964" x2="1974" y1="801.6094" y2="791.6094"/><line style="stroke:#181818;stroke-width:0.5;" x1="1788" x2="1964" y1="801.6094" y2="801.6094"/><line style="stroke:#181818;stroke-width:0.5;" x1="1964" x2="1964" y1="801.6094" y2="856.8281"/><text fill="#000000" font-family="sans-serif" font-size="14" lengthAdjust="spacing" textLength="146" x="1803" y="826.1426">Nequi Payment Service</text><text fill="#000000" font-family="sans-serif" font-size="14" lengthAdjust="spacing" textLength="135" x="1803" y="843.752">API de pagos m&#243;viles</text></g><!--entity pse_service--><g id="elem_pse_service"><polygon fill="#F1F1F1" points="2009.5,801.6094,2019.5,791.6094,2186.5,791.6094,2186.5,846.8281,2176.5,856.8281,2009.5,856.8281,2009.5,801.6094" style="stroke:#181818;stroke-width:0.5;"/><line style="stroke:#181818;stroke-width:0.5;" x1="2176.5" x2="2186.5" y1="801.6094" y2="791.6094"/><line style="stroke:#181818;stroke-width:0.5;" x1="2009.5" x2="2176.5" y1="801.6094" y2="801.6094"/><line style="stroke:#181818;stroke-width:0.5;" x1="2176.5" x2="2176.5" y1="801.6094" y2="856.8281"/><text fill="#000000" font-family="sans-serif" font-size="14" lengthAdjust="spacing" textLength="137" x="2024.5" y="826.1426">PSE Payment Service</text><text fill="#000000" font-family="sans-serif" font-size="14" lengthAdjust="spacing" textLength="115" x="2024.5" y="843.752">Pasarela bancaria</text></g><!--entity google_oauth--><g id="elem_google_oauth"><polygon fill="#F1F1F1" points="2222,801.6094,2232,791.6094,2408,791.6094,2408,846.8281,2398,856.8281,2222,856.8281,2222,801.6094" style="stroke:#181818;stroke-width:0.5;"/><line style="stroke:#181818;stroke-width:0.5;" x1="2398" x2="2408" y1="801.6094" y2="791.6094"/><line style="stroke:#181818;stroke-width:0.5;" x1="2222" x2="2398" y1="801.6094" y2="801.6094"/><line style="stroke:#181818;stroke-width:0.5;" x1="2398" x2="2398" y1="801.6094" y2="856.8281"/><text fill="#000000" font-family="sans-serif" font-size="14" lengthAdjust="spacing" textLength="141" x="2237" y="826.1426">Google OAuth Service</text><text fill="#000000" font-family="sans-serif" font-size="14" lengthAdjust="spacing" textLength="146" x="2237" y="843.752">Autenticaci&#243;n federada</text></g><!--entity facebook_auth--><g id="elem_facebook_auth"><polygon fill="#F1F1F1" points="2443.5,801.6094,2453.5,791.6094,2630.5,791.6094,2630.5,846.8281,2620.5,856.8281,2443.5,856.8281,2443.5,801.6094" style="stroke:#181818;stroke-width:0.5;"/><line style="stroke:#181818;stroke-width:0.5;" x1="2620.5" x2="2630.5" y1="801.6094" y2="791.6094"/><line style="stroke:#181818;stroke-width:0.5;" x1="2443.5" x2="2620.5" y1="801.6094" y2="801.6094"/><line style="stroke:#181818;stroke-width:0.5;" x1="2620.5" x2="2620.5" y1="801.6094" y2="856.8281"/><text fill="#000000" font-family="sans-serif" font-size="14" lengthAdjust="spacing" textLength="147" x="2458.5" y="826.1426">Facebook Auth Service</text><text fill="#000000" font-family="sans-serif" font-size="14" lengthAdjust="spacing" textLength="75" x="2458.5" y="843.752">Login social</text></g><!--entity amadeus_service--><g id="elem_amadeus_service"><polygon fill="#F1F1F1" points="2666,801.6094,2676,791.6094,2850,791.6094,2850,846.8281,2840,856.8281,2666,856.8281,2666,801.6094" style="stroke:#181818;stroke-width:0.5;"/><line style="stroke:#181818;stroke-width:0.5;" x1="2840" x2="2850" y1="801.6094" y2="791.6094"/><line style="stroke:#181818;stroke-width:0.5;" x1="2666" x2="2840" y1="801.6094" y2="801.6094"/><line style="stroke:#181818;stroke-width:0.5;" x1="2840" x2="2840" y1="801.6094" y2="856.8281"/><text fill="#000000" font-family="sans-serif" font-size="14" lengthAdjust="spacing" textLength="144" x="2681" y="826.1426">Amadeus GDS Service</text><text fill="#000000" font-family="sans-serif" font-size="14" lengthAdjust="spacing" textLength="118" x="2681" y="843.752">Contenido tur&#237;stico</text></g><!--entity weather_service--><g id="elem_weather_service"><polygon fill="#F1F1F1" points="2885.5,801.6094,2895.5,791.6094,3062.5,791.6094,3062.5,846.8281,3052.5,856.8281,2885.5,856.8281,2885.5,801.6094" style="stroke:#181818;stroke-width:0.5;"/><line style="stroke:#181818;stroke-width:0.5;" x1="3052.5" x2="3062.5" y1="801.6094" y2="791.6094"/><line style="stroke:#181818;stroke-width:0.5;" x1="2885.5" x2="3052.5" y1="801.6094" y2="801.6094"/><line style="stroke:#181818;stroke-width:0.5;" x1="3052.5" x2="3052.5" y1="801.6094" y2="856.8281"/><text fill="#000000" font-family="sans-serif" font-size="14" lengthAdjust="spacing" textLength="130" x="2900.5" y="826.1426">Weather API Service</text><text fill="#000000" font-family="sans-serif" font-size="14" lengthAdjust="spacing" textLength="137" x="2900.5" y="843.752">Datos meteorol&#243;gicos</text></g><!--entity maps_service--><g id="elem_maps_service"><polygon fill="#F1F1F1" points="3098,801.6094,3108,791.6094,3248,791.6094,3248,846.8281,3238,856.8281,3098,856.8281,3098,801.6094" style="stroke:#181818;stroke-width:0.5;"/><line style="stroke:#181818;stroke-width:0.5;" x1="3238" x2="3248" y1="801.6094" y2="791.6094"/><line style="stroke:#181818;stroke-width:0.5;" x1="3098" x2="3238" y1="801.6094" y2="801.6094"/><line style="stroke:#181818;stroke-width:0.5;" x1="3238" x2="3238" y1="801.6094" y2="856.8281"/><text fill="#000000" font-family="sans-serif" font-size="14" lengthAdjust="spacing" textLength="110" x="3113" y="826.1426">Maps API Service</text><text fill="#000000" font-family="sans-serif" font-size="14" lengthAdjust="spacing" textLength="99" x="3113" y="843.752">Geolocalizaci&#243;n</text></g><!--link browser_device to cloudfront--><g id="link_browser_device_cloudfront"><path d="M138,109.7894 C138,205.2594 138,483.5494 138,578.9694 " fill="none" id="browser_device-to-cloudfront" style="stroke:#181818;stroke-width:1.0;"/><polygon fill="#181818" points="138,584.9694,142,575.9694,138,579.9694,134,575.9694,138,584.9694" style="stroke:#181818;stroke-width:1.0;"/><text fill="#000000" font-family="sans-serif" font-size="13" lengthAdjust="spacing" textLength="41" x="139" y="324.1045">HTTPS</text></g><!--link cloudfront to s3--><g id="link_cloudfront_s3"><path d="M142.69,650.3194 C147.56,671.3994 157.37,697.8494 177,712.6094 C202.38,731.6994 218.56,708.6994 248,720.6094 C287.46,736.5694 320.8119,763.5455 345.9319,787.3155 " fill="none" id="cloudfront-to-s3" style="stroke:#181818;stroke-width:1.0;"/><polygon fill="#181818" points="350.29,791.4394,346.5021,782.3481,346.6582,788.0028,341.0035,788.1589,350.29,791.4394" style="stroke:#181818;stroke-width:1.0;"/><text fill="#000000" font-family="sans-serif" font-size="13" lengthAdjust="spacing" textLength="138" x="178" y="709.1045">HTTPS (origen est&#225;tico)</text></g><!--link browser_device to api_gateway--><g id="link_browser_device_api_gateway"><path d="M169.98,109.7094 C200.27,139.6494 241.2621,180.1621 271.6121,210.1521 " fill="none" id="browser_device-to-api_gateway" style="stroke:#181818;stroke-width:1.0;"/><polygon fill="#181818" points="275.88,214.3694,272.2897,205.1982,272.3234,210.855,266.6667,210.8887,275.88,214.3694" style="stroke:#181818;stroke-width:1.0;"/><text fill="#000000" font-family="sans-serif" font-size="13" lengthAdjust="spacing" textLength="66" x="218" y="154.1045">HTTPS API</text></g><!--link android_device to api_gateway--><g id="link_android_device_api_gateway"><path d="M337.23,109.7094 C330.81,139.6494 322.4878,178.5127 316.0578,208.5027 " fill="none" id="android_device-to-api_gateway" style="stroke:#181818;stroke-width:1.0;"/><polygon fill="#181818" points="314.8,214.3694,320.5979,206.4079,315.8482,209.4805,312.7756,204.7308,314.8,214.3694" style="stroke:#181818;stroke-width:1.0;"/><text fill="#000000" font-family="sans-serif" font-size="13" lengthAdjust="spacing" textLength="66" x="331" y="154.1045">HTTPS API</text></g><!--link api_gateway to alb--><g id="link_api_gateway_alb"><path d="M401.19,253.3194 C569.89,263.7394 918.8,290.1494 1031,335.6094 C1063.13,348.6294 1089.6231,369.9254 1109.6731,388.7254 " fill="none" id="api_gateway-to-alb" style="stroke:#181818;stroke-width:1.0;"/><polygon fill="#181818" points="1114.05,392.8294,1110.2207,383.7554,1110.4026,389.4094,1104.7487,389.5913,1114.05,392.8294" style="stroke:#181818;stroke-width:1.0;"/><text fill="#000000" font-family="sans-serif" font-size="13" lengthAdjust="spacing" textLength="107" x="1000" y="324.1045">HTTP (integraci&#243;n)</text></g><!--link alb to asg_backend--><g id="link_alb_asg_backend"><path d="M1116.89,441.3694 C1103.48,458.1294 1086.62,481.8794 1077,505.6094 C1075.8425,508.4631 1074.7555,511.3859 1073.7347,514.3584 C1073.2243,515.8446 1072.7305,517.3433 1072.2527,518.852 C1072.0138,519.6064 1073.5255,514.6231 1073.2945,515.3821 " fill="none" id="alb-to-asg_backend" style="stroke:#181818;stroke-width:1.0;"/><polygon fill="#181818" points="1071.5479,521.1223,1077.9946,513.6765,1073.0034,516.3388,1070.3411,511.3477,1071.5479,521.1223" style="stroke:#181818;stroke-width:1.0;"/><text fill="#000000" font-family="sans-serif" font-size="13" lengthAdjust="spacing" textLength="68" x="1091" y="494.1045">HTTP :8080</text></g><!--link alb to asg_ai--><g id="link_alb_asg_ai"><path d="M1180.82,441.1294 C1207.16,456.6394 1239.94,479.0794 1263,505.6094 C1280.84,526.1344 1294.685,553.3444 1304.1463,575.6869 C1306.5116,581.2725 1308.6029,586.5539 1310.4142,591.3506 C1310.5274,591.6504 1310.6395,591.9483 1310.7505,592.2442 C1310.806,592.3922 1308.7601,586.9196 1308.8151,587.0666 " fill="none" id="alb-to-asg_ai" style="stroke:#181818;stroke-width:1.0;"/><polygon fill="#181818" points="1310.9162,592.6867,1311.5112,582.8559,1309.1653,588.0033,1304.0178,585.6573,1310.9162,592.6867" style="stroke:#181818;stroke-width:1.0;"/><text fill="#000000" font-family="sans-serif" font-size="13" lengthAdjust="spacing" textLength="68" x="1255" y="494.1045">HTTP :8000</text></g><!--link asg_backend to rds_backend--><g id="link_asg_backend_rds_backend"><path d="M1065.0038,670.6471 C1065.0537,670.7548 1065.1039,670.8623 1065.1545,670.9697 C1065.5589,671.8284 1065.9839,672.6758 1066.4304,673.5097 C1067.3233,675.1776 1068.3022,676.7918 1069.375,678.3352 C1071.5205,681.422 1074.0413,684.2256 1077,686.6094 C1088.96,696.2494 1200.56,689.3694 1215,694.6094 C1233.21,701.2294 1240.96,703.4694 1250,720.6094 C1252.6175,725.5706 1253.0105,725.0916 1254.5648,730.5581 " fill="none" id="asg_backend-to-rds_backend" style="stroke:#181818;stroke-width:1.0;"/><polygon fill="#181818" points="1256.2057,736.3294,1257.5918,726.5785,1254.8383,731.52,1249.8968,728.7664,1256.2057,736.3294" style="stroke:#181818;stroke-width:1.0;"/><text fill="#000000" font-family="sans-serif" font-size="13" lengthAdjust="spacing" textLength="57" x="1245" y="709.1045">TCP 5432</text></g><!--link asg_ai to rds_ai--><g id="link_asg_ai_rds_ai"><path d="M1327.646,670.8071 C1327.6953,670.9169 1327.7449,671.0265 1327.7947,671.136 C1327.994,671.574 1328.1977,672.0099 1328.4059,672.4433 C1329.2386,674.1772 1330.143,675.8729 1331.1252,677.5153 C1333.0895,680.8002 1335.365,683.8719 1338,686.6094 C1372.31,722.2494 1405.29,689.7994 1444,720.6094 C1464.415,736.8544 1479.51,761.9394 1489.5775,783.2269 C1492.0944,788.5487 1494.297,793.6333 1496.19,798.283 C1496.4267,798.8642 1494.4296,793.868 1494.6565,794.4352 " fill="none" id="asg_ai-to-rds_ai" style="stroke:#181818;stroke-width:1.0;"/><polygon fill="#181818" points="1496.8854,800.0059,1497.2559,790.164,1495.028,795.3637,1489.8283,793.1358,1496.8854,800.0059" style="stroke:#181818;stroke-width:1.0;"/><text fill="#000000" font-family="sans-serif" font-size="13" lengthAdjust="spacing" textLength="57" x="1431" y="709.1045">TCP 5432</text></g><!--link asg_backend to s3--><g id="link_asg_backend_s3"><path d="M1063.016,670.8067 C1062.9863,670.9151 1062.9563,671.0233 1062.9259,671.1314 C1062.8651,671.3475 1062.8026,671.5629 1062.7385,671.7777 C1062.6104,672.2073 1062.4758,672.6342 1062.3344,673.0581 C1061.7689,674.7539 1061.096,676.4025 1060.303,677.9878 C1058.7169,681.1584 1056.65,684.0756 1054,686.6094 C1042.39,697.7094 490.29,687.2794 476,694.6094 C436.26,714.9994 411.5158,755.1552 396.7058,786.1652 " fill="none" id="asg_backend-to-s3" style="stroke:#181818;stroke-width:1.0;"/><polygon fill="#181818" points="394.12,791.5794,401.6081,785.1819,396.2748,787.0675,394.3892,781.7342,394.12,791.5794" style="stroke:#181818;stroke-width:1.0;"/><text fill="#000000" font-family="sans-serif" font-size="13" lengthAdjust="spacing" textLength="80" x="477" y="709.1045">HTTPS (SDK)</text></g><!--link asg_ai to s3--><g id="link_asg_ai_s3"><path d="M1310.8734,635.0715 C1310.8188,635.1698 1310.7639,635.2685 1310.7087,635.3674 C1310.5984,635.5652 1310.487,635.7642 1310.3746,635.9642 C1310.1497,636.3642 1309.9207,636.7685 1309.6874,637.1769 C1307.8213,640.4435 1305.6872,643.9666 1303.2963,647.5956 C1293.7325,662.1119 1280.06,678.3244 1263,686.6094 C1227.51,703.8494 946.18,684.6694 908,694.6094 C891.45,698.9194 890.55,708.2994 874,712.6094 C836.36,722.4194 560.9,708.2894 524,720.6094 C481.12,734.9294 444.4795,762.9242 417.4295,787.3942 " fill="none" id="asg_ai-to-s3" style="stroke:#181818;stroke-width:1.0;"/><polygon fill="#181818" points="412.98,791.4194,422.3377,788.348,416.6879,788.0651,416.9709,782.4153,412.98,791.4194" style="stroke:#181818;stroke-width:1.0;"/><text fill="#000000" font-family="sans-serif" font-size="13" lengthAdjust="spacing" textLength="132" x="909" y="709.1045">HTTPS (artefactos ML)</text></g><!--link asg_backend to sns--><g id="link_asg_backend_sns"><path d="M1063.0001,670.7898 C1062.9705,670.8982 1062.9405,671.0064 1062.9101,671.1146 C1062.8494,671.3308 1062.787,671.5463 1062.7231,671.7613 C1062.5951,672.1911 1062.4607,672.6182 1062.3195,673.0424 C1061.7549,674.7392 1061.0832,676.3891 1060.2915,677.9759 C1058.7081,681.1495 1056.645,684.0706 1054,686.6094 C1036,703.8894 622.48,676.8094 605,694.6094 C599.39,700.3194 599.64,706.6694 605,712.6094 C616.68,725.5394 666.45,715.1494 683,720.6094 C731.41,736.5694 775.9733,764.2021 809.5433,787.9721 " fill="none" id="asg_backend-to-sns" style="stroke:#181818;stroke-width:1.0;"/><polygon fill="#181818" points="814.44,791.4394,809.4064,782.974,810.3594,788.55,804.7834,789.503,814.44,791.4394" style="stroke:#181818;stroke-width:1.0;"/><text fill="#000000" font-family="sans-serif" font-size="13" lengthAdjust="spacing" textLength="118" x="606" y="709.1045">HTTPS (publicaci&#243;n)</text></g><!--link asg_ai to sns--><g id="link_asg_ai_sns"><path d="M1310.9879,634.6756 C1310.5531,635.4539 1310.1014,636.2506 1309.6329,637.0635 C1307.7591,640.3148 1305.6178,643.8238 1303.2213,647.4419 C1293.635,661.9144 1279.965,678.1344 1263,686.6094 C1227.38,704.3994 1122.28,683.6494 1084,694.6094 C1074.61,697.2994 980.1068,751.3804 915.6968,788.5504 " fill="none" id="asg_ai-to-sns" style="stroke:#181818;stroke-width:1.0;"/><polygon fill="#181818" points="910.5,791.5494,920.2944,790.5154,914.8306,789.0502,916.2958,783.5864,910.5,791.5494" style="stroke:#181818;stroke-width:1.0;"/><text fill="#000000" font-family="sans-serif" font-size="13" lengthAdjust="spacing" textLength="118" x="1085" y="709.1045">HTTPS (publicaci&#243;n)</text></g><!--link sns to sqs--><g id="link_sns_sqs"><path d="M856,856.8694 C856,887.5894 856,927.8594 856,958.5194 " fill="none" id="sns-to-sqs" style="stroke:#181818;stroke-width:1.0;"/><polygon fill="#181818" points="856,964.5194,860,955.5194,856,959.5194,852,955.5194,856,964.5194" style="stroke:#181818;stroke-width:1.0;"/><text fill="#000000" font-family="sans-serif" font-size="13" lengthAdjust="spacing" textLength="133" x="857" y="931.1045">HTTPS (suscripciones)</text></g><!--link asg_backend to sqs--><g id="link_asg_backend_sqs"><path d="M1063.0001,670.7937 C1062.9705,670.9021 1062.9405,671.0104 1062.9101,671.1185 C1062.8494,671.3347 1062.787,671.5502 1062.7231,671.7651 C1062.5951,672.1949 1062.4607,672.622 1062.3195,673.0461 C1061.7549,674.7427 1061.0832,676.3924 1060.2915,677.9788 C1058.7081,681.1517 1056.645,684.0719 1054,686.6094 C1035.48,704.3794 612.24,678.8194 592,694.6094 C564.05,716.4194 498.28,789.4794 585,908.6094 C614.61,949.2794 657.6666,969.9944 705.8266,981.9444 " fill="none" id="asg_backend-to-sqs" style="stroke:#181818;stroke-width:1.0;"/><polygon fill="#181818" points="711.65,983.3894,703.8782,977.3397,706.7972,982.1852,701.9516,985.1042,711.65,983.3894" style="stroke:#181818;stroke-width:1.0;"/><text fill="#000000" font-family="sans-serif" font-size="13" lengthAdjust="spacing" textLength="106" x="586" y="829.6045">HTTPS (consumo)</text></g><!--link asg_ai to sqs--><g id="link_asg_ai_sqs"><path d="M1310.8447,633.823 C1310.7893,633.9169 1310.7337,634.0111 1310.6778,634.1055 C1310.2308,634.8613 1309.767,635.6356 1309.2866,636.4265 C1307.3652,639.5898 1305.1797,643.0166 1302.7488,646.5706 C1293.025,660.7869 1279.375,677.0394 1263,686.6094 C1245.46,696.8594 1234.53,682.8094 1218,694.6094 C1210.55,699.9294 1215.69,707.6494 1208,712.6094 C1189.83,724.3394 1128.86,708.4194 1111,720.6094 C1022.34,781.1294 1083.76,868.7394 999,934.6094 C983.96,946.2994 971.7857,953.679 954.1757,961.909 " fill="none" id="asg_ai-to-sqs" style="stroke:#181818;stroke-width:1.0;"/><polygon fill="#181818" points="948.74,964.4494,958.5871,964.2626,953.2697,962.3324,955.1999,957.0151,948.74,964.4494" style="stroke:#181818;stroke-width:1.0;"/><text fill="#000000" font-family="sans-serif" font-size="13" lengthAdjust="spacing" textLength="118" x="1112" y="829.6045">HTTPS (publicaci&#243;n)</text></g><!--link asg_ai to cloudwatch--><g id="link_asg_ai_cloudwatch"><path d="M1310.8852,635.0975 C1310.8307,635.196 1310.7758,635.2948 1310.7207,635.3938 C1310.6106,635.592 1310.4993,635.7912 1310.387,635.9915 C1310.1624,636.3921 1309.9336,636.797 1309.7006,637.2059 C1307.8366,640.477 1305.7044,644.0044 1303.315,647.6369 C1293.7575,662.1669 1280.085,678.3794 1263,686.6094 C1237.87,698.7094 787.92,687.3294 761,694.6094 C745.25,698.8694 744.75,708.3394 729,712.6094 C677.41,726.5794 297.87,701.3794 248,720.6094 C210.71,734.9894 181.3859,762.4881 159.9459,786.9381 " fill="none" id="asg_ai-to-cloudwatch" style="stroke:#181818;stroke-width:1.0;"/><polygon fill="#181818" points="155.99,791.4494,164.9313,787.3198,159.2865,787.69,158.9163,782.0453,155.99,791.4494" style="stroke:#181818;stroke-width:1.0;"/><text fill="#000000" font-family="sans-serif" font-size="13" lengthAdjust="spacing" textLength="103" x="762" y="709.1045">HTTPS (m&#233;tricas)</text></g><!--link asg_backend to cloudwatch--><g id="link_asg_backend_cloudwatch"><path d="M1063.0239,670.8187 C1062.9943,670.927 1062.9642,671.0352 1062.9338,671.1432 C1062.8729,671.3592 1062.8104,671.5746 1062.7463,671.7893 C1062.618,672.2188 1062.4833,672.6455 1062.3418,673.0693 C1061.7759,674.7643 1061.1025,676.4122 1060.3087,677.9964 C1058.7213,681.165 1056.6525,684.0794 1054,686.6094 C1040.13,699.8394 382.77,690.7294 364,694.6094 C343.71,698.8094 341.06,707.4294 321,712.6094 C289.4,720.7694 277.88,707.4694 248,720.6094 C211.91,736.4794 182.9705,763.1538 161.2905,786.9538 " fill="none" id="asg_backend-to-cloudwatch" style="stroke:#181818;stroke-width:1.0;"/><polygon fill="#181818" points="157.25,791.3894,166.2678,787.4296,160.6171,787.693,160.3537,782.0423,157.25,791.3894" style="stroke:#181818;stroke-width:1.0;"/><text fill="#000000" font-family="sans-serif" font-size="13" lengthAdjust="spacing" textLength="77" x="365" y="709.1045">HTTPS (logs)</text></g><!--link api_gateway to cloudwatch--><g id="link_api_gateway_cloudwatch"><path d="M307.8,279.8294 C306.91,379.0694 302,679.0094 275,712.6094 C267.16,722.3694 258.96,714.5694 248,720.6094 C214.42,739.1194 186.2859,764.3405 164.1559,786.9605 " fill="none" id="api_gateway-to-cloudwatch" style="stroke:#181818;stroke-width:1.0;"/><polygon fill="#181818" points="159.96,791.2494,169.1131,787.6134,163.4566,787.6753,163.3947,782.0188,159.96,791.2494" style="stroke:#181818;stroke-width:1.0;"/><text fill="#000000" font-family="sans-serif" font-size="13" lengthAdjust="spacing" textLength="103" x="304" y="494.1045">HTTPS (m&#233;tricas)</text></g><!--link alb to cloudwatch--><g id="link_alb_cloudwatch"><path d="M1064.8,441.1494 C892.89,496.2694 463.29,635.4794 324,694.6094 C307.9,701.4394 305.53,706.8794 289,712.6094 C271.46,718.6894 264.67,712.4294 248,720.6094 C213.09,737.7394 184.5458,763.6635 162.6558,786.8835 " fill="none" id="alb-to-cloudwatch" style="stroke:#181818;stroke-width:1.0;"/><polygon fill="#181818" points="158.54,791.2494,167.6242,787.4445,161.9698,787.6112,161.8031,781.9568,158.54,791.2494" style="stroke:#181818;stroke-width:1.0;"/><text fill="#000000" font-family="sans-serif" font-size="13" lengthAdjust="spacing" textLength="103" x="856" y="623.1045">HTTPS (m&#233;tricas)</text></g><!--link asg_backend to nequi_service--><g id="link_asg_backend_nequi_service"><path d="M1064.852,670.8363 C1064.9023,670.9435 1064.953,671.0505 1065.0039,671.1573 C1065.4117,672.0118 1065.8405,672.8545 1066.2912,673.6831 C1067.1927,675.3403 1068.1823,676.9412 1069.2679,678.4685 C1071.4392,681.5231 1073.995,684.2831 1077,686.6094 C1086.23,693.7494 1485.36,693.7794 1497,694.6094 C1591.25,701.2994 1618.57,690.0994 1708,720.6094 C1756.07,737.0094 1800.4789,764.4324 1834.0889,788.0224 " fill="none" id="asg_backend-to-nequi_service" style="stroke:#181818;stroke-width:1.0;stroke-dasharray:7.0,7.0;"/><polygon fill="#181818" points="1839,791.4694,1833.9314,783.0249,1834.9074,788.5969,1829.3354,789.573,1839,791.4694" style="stroke:#181818;stroke-width:1.0;"/><text fill="#000000" font-family="sans-serif" font-size="13" lengthAdjust="spacing" textLength="88" x="1679" y="709.1045">HTTPS (pagos)</text></g><!--link asg_backend to pse_service--><g id="link_asg_backend_pse_service"><path d="M1064.8226,670.8738 C1064.873,670.9809 1064.9237,671.0878 1064.9748,671.1945 C1065.3832,672.0482 1065.8127,672.8899 1066.2644,673.7174 C1067.1676,675.3724 1068.1592,676.9707 1069.2474,678.4948 C1071.4238,681.543 1073.9863,684.2944 1077,686.6094 C1084.7,692.5194 1766.31,693.9694 1776,694.6094 C1872.48,700.9494 1904.69,679.0594 1992,720.6094 C2025.75,736.6694 2051.6937,763.0949 2071.0137,786.8449 " fill="none" id="asg_backend-to-pse_service" style="stroke:#181818;stroke-width:1.0;stroke-dasharray:7.0,7.0;"/><polygon fill="#181818" points="2074.8,791.4994,2072.2235,781.9935,2071.6448,787.6207,2066.0176,787.0419,2074.8,791.4994" style="stroke:#181818;stroke-width:1.0;"/><text fill="#000000" font-family="sans-serif" font-size="13" lengthAdjust="spacing" textLength="88" x="1973" y="709.1045">HTTPS (pagos)</text></g><!--link asg_backend to google_oauth--><g id="link_asg_backend_google_oauth"><path d="M1064.8105,670.894 C1064.8609,671.001 1064.9117,671.1078 1064.9628,671.2145 C1065.3715,672.0678 1065.8013,672.909 1066.2532,673.7359 C1067.1571,675.3899 1068.1496,676.9868 1069.2388,678.5091 C1071.4172,681.5539 1073.9825,684.3006 1077,686.6094 C1087.95,694.9894 2056.28,693.2394 2070,694.6094 C2130.36,700.6594 2149.87,693.2094 2204,720.6094 C2237.7,737.6694 2264.6321,763.4776 2285.2221,786.7276 " fill="none" id="asg_backend-to-google_oauth" style="stroke:#181818;stroke-width:1.0;stroke-dasharray:7.0,7.0;"/><polygon fill="#181818" points="2289.2,791.2194,2286.2277,781.8297,2285.8851,787.4762,2280.2386,787.1336,2289.2,791.2194" style="stroke:#181818;stroke-width:1.0;"/><text fill="#000000" font-family="sans-serif" font-size="13" lengthAdjust="spacing" textLength="90" x="2186" y="709.1045">HTTPS (OAuth)</text></g><!--link asg_backend to facebook_auth--><g id="link_asg_backend_facebook_auth"><path d="M1064.8065,670.898 C1064.8569,671.005 1064.9077,671.1118 1064.9588,671.2185 C1065.3675,672.0717 1065.7974,672.9128 1066.2495,673.7397 C1067.1536,675.3934 1068.1464,676.99 1069.2359,678.512 C1071.415,681.5561 1073.9813,684.3019 1077,686.6094 C1090.33,696.7994 2268.3,693.0294 2285,694.6094 C2348.44,700.6194 2369.01,692.0894 2426,720.6094 C2460.01,737.6294 2487.1448,763.7464 2507.7148,787.1064 " fill="none" id="asg_backend-to-facebook_auth" style="stroke:#181818;stroke-width:1.0;stroke-dasharray:7.0,7.0;"/><polygon fill="#181818" points="2511.68,791.6094,2508.7342,782.2114,2508.3757,787.8569,2502.7302,787.4983,2511.68,791.6094" style="stroke:#181818;stroke-width:1.0;"/><text fill="#000000" font-family="sans-serif" font-size="13" lengthAdjust="spacing" textLength="90" x="2407" y="709.1045">HTTPS (OAuth)</text></g><!--link asg_ai to amadeus_service--><g id="link_asg_ai_amadeus_service"><path d="M1325.8024,670.902 C1325.8529,671.009 1325.9037,671.1159 1325.9548,671.2225 C1326.3636,672.0756 1326.7936,672.9166 1327.2458,673.7434 C1328.1501,675.3968 1329.1432,676.9932 1330.233,678.5149 C1332.4128,681.5583 1334.98,684.3031 1338,686.6094 C1352.34,697.5594 2620.46,687.3994 2637,694.6094 C2682.37,714.3694 2715.3466,755.3306 2735.9566,786.5806 " fill="none" id="asg_ai-to-amadeus_service" style="stroke:#181818;stroke-width:1.0;stroke-dasharray:7.0,7.0;"/><polygon fill="#181818" points="2739.26,791.5894,2737.6441,781.874,2736.5072,787.4154,2730.9658,786.2785,2739.26,791.5894" style="stroke:#181818;stroke-width:1.0;"/><text fill="#000000" font-family="sans-serif" font-size="13" lengthAdjust="spacing" textLength="109" x="2666" y="709.1045">HTTPS (contenido)</text></g><!--link asg_ai to weather_service--><g id="link_asg_ai_weather_service"><path d="M1325.8024,670.9061 C1325.8529,671.0131 1325.9037,671.1199 1325.9548,671.2265 C1326.3636,672.0795 1326.7936,672.9205 1327.2458,673.7471 C1328.1501,675.4003 1329.1432,676.9964 1330.233,678.5178 C1332.4128,681.5605 1334.98,684.3044 1338,686.6094 C1353.96,698.7994 2764.15,691.5494 2784,694.6094 C2822.63,700.5594 2834.37,700.7094 2868,720.6094 C2899.28,739.1194 2924.5283,764.1245 2944.3183,786.7345 " fill="none" id="asg_ai-to-weather_service" style="stroke:#181818;stroke-width:1.0;stroke-dasharray:7.0,7.0;"/><polygon fill="#181818" points="2948.27,791.2494,2945.3523,781.8426,2944.9769,787.487,2939.3325,787.1116,2948.27,791.2494" style="stroke:#181818;stroke-width:1.0;"/><text fill="#000000" font-family="sans-serif" font-size="13" lengthAdjust="spacing" textLength="84" x="2854" y="709.1045">HTTPS (clima)</text></g><!--link asg_ai to maps_service--><g id="link_asg_ai_maps_service"><path d="M1325.7984,670.9061 C1325.8489,671.0131 1325.8996,671.1199 1325.9508,671.2265 C1326.3597,672.0795 1326.7898,672.9205 1327.2421,673.7471 C1328.1466,675.4003 1329.14,676.9964 1330.2302,678.5178 C1332.4106,681.5605 1334.9788,684.3044 1338,686.6094 C1346.88,693.3894 2935.88,693.5094 2947,694.6094 C3006.94,700.5594 3027.54,691.0194 3080,720.6094 C3110.14,737.6094 3132.3044,763.0328 3148.9844,786.3028 " fill="none" id="asg_ai-to-maps_service" style="stroke:#181818;stroke-width:1.0;stroke-dasharray:7.0,7.0;"/><polygon fill="#181818" points="3152.48,791.1794,3150.4877,781.5341,3149.567,787.1156,3143.9856,786.1949,3152.48,791.1794" style="stroke:#181818;stroke-width:1.0;"/><text fill="#000000" font-family="sans-serif" font-size="13" lengthAdjust="spacing" textLength="142" x="3063" y="709.1045">HTTPS (geolocalizaci&#243;n)</text></g><!--link subnet1 to internet_gateway--><g id="link_subnet1_internet_gateway"><path d="M1626.96,449.9994 C1628.08,487.0394 1629.92,547.7894 1631.04,584.7994 " fill="none" id="subnet1-internet_gateway" style="stroke:#181818;stroke-width:1.0;stroke-dasharray:7.0,7.0;"/></g><!--link subnet2 to internet_gateway--><g id="link_subnet2_internet_gateway"><path d="M1441,449.7994 C1468.13,465.0994 1499.8,484.6694 1526,505.6094 C1555.77,529.3994 1585.35,561.2394 1605.67,584.7194 " fill="none" id="subnet2-internet_gateway" style="stroke:#181818;stroke-width:1.0;stroke-dasharray:7.0,7.0;"/></g><!--SRC=[bLRDRkCs4BxxAGOvnTZOwvzjiSXX0SV9fa6Jr1jbcui1Oomn2hiIgP1KKcyHe0_H5-YnXvvowzLlqYVfa9HjobOsA7mov_k-uGo77sMuoHWSCrradAKbWyyNv_3lxt_0IDsNtB3Ob0fXdCaoWT5Dr6e9cJ3Oks8fNpuBA7M7eJQT_XwW1aMhKi1lBG0F6-NubHOS_QEImap5-FWI2YJDM_kVYGIODii_3O-bquWjriMsLQBXL1oLyHTczE6QVG0vIpWUG2PJxGJqa8ZRtD7a34xHi4TSJCNLINJjLjw0DfWoA9HC71SBFaizB1JvUJA6Vg_hVc_xtpleGn6xGbUOg9mhba2n_6UUyHWzla_umRkfs5_tYRNz9ikvOAR_6d-mmyUGFmZuPzGEHMkRCj-0agLXiDfupp5vXGlgNFUgA6ngOy_mN682HvYXY9dolSdc3XiIebF2q8c8P2fEnWCmmsxEOoNXy7tllS-7EftDFQRg5m0gmsynDh1NHJgQgGSUi-ulgARYeK-53nsxYizetN6VchPmDjhDtjjaHzwG6FagPoUcIK8kcCqyi4VccNos3ZIdlZgEO2ArIHMBFfrFHJBlhdTGxTlVYaH_emCwlcCvTgZcNbVVPxMgVUp_PpyRhHCt5fzddQQqLF9MngU6gnHTHbDnlNmkwCRIHIofZGTqysEPvxHdDpq7e1VQiDoFgj0x4fz8OYmpV96F0hC5UK9rfUzrewNSe8dlfkAShZuiQ41HvOGUJpw_ZKbyOoUF5jTwMfdN3Pl3aPAFb9cSpyu0xORiZsu6i5_jzV1MDFUOMU8m5Naa4YLviaFCbyyFFAlnqKDN_4hWaf6nmWGNLAw1o0_XL5W_ed21gTIL6FFL2qkOLTDQYKoYars92MfKB4EQ7n6Zuhu3XMPRv5CfKpBzdqQbkGisG5uXgEKOEsU_PGbJc7YDr35c4ebHYNp4cCsb_09r5JeBBa3BcACVgjiADmkuT8O9ApMSqWolcMDdw3oHG4_Eyc-zVX7GexUAk65exkW0RT_M6iTeRFUOOLB9RFcSsXbr8eyUlYLoWOMkAvmocSaOC_xLzy6HSuAjcQtwM42dyo5ujE0GVhY-daIjOCaYz70LWNsfUCh4vjrhDqa6Jz6QIJjjrOVgcz1M6730R5u1OD- -0wdoHRPRDk8GWLjNI6VbDG1voYRMwr6UW6L1eUCTmlLu0j-z6mvQ5NU5S3ArOAWHDYmw_h4TiiCOkHgphaRdVd7UtjqBsSy6N9JkSLqL7IY-ZB8X1xaF8BhKiU95J6R5T7itQOYbPqINkQpdktynNmZRkDS6dI__CehW3McRuFQxgBqp2Qy9LwVz2gosWMxtGzsgWWAjgRLtq84plOeD7MW3TXQs2wvvJYEQ-ck1MzPIEpDlHZNubea4y8pdM8E6bh71fLlkGYsilWI9jFjfLdtbDSR-0m00]--></g></svg>