<svg xmlns="http://www.w3.org/2000/svg" xmlns:xlink="http://www.w3.org/1999/xlink" width="342pt" height="278pt" viewBox="0.00 0.00 342.00 278.00">
<g id="graph0" class="graph" transform="scale(1 1) rotate(0) translate(4 273.53)">
<title>CLD_Loop_2</title>
<polygon fill="white" stroke="none" points="-4,4 -4,-273.53 338,-273.53 338,4 -4,4"/>
<g id="clust1" class="cluster">
<title>cluster_R2</title>
<path fill="none" stroke="#ef4444" d="M12,0C12,0 322,0 322,0 328,0 334,-6 334,-12 334,-12 334,-257.53 334,-257.53 334,-263.53 328,-269.53 322,-269.53 322,-269.53 12,-269.53 12,-269.53 6,-269.53 0,-263.53 0,-257.53 0,-257.53 0,-12 0,-12 0,-6 6,0 12,0"/>
<text xml:space="preserve" text-anchor="middle" x="167" y="-252.93" font-family="Times,serif" font-size="14.00" fill="#ef4444">R2 - Fragmentación de Experiencia (Refuerzo Negativo)</text>
</g>
<!-- ExperienciasFragmentadas -->
<g id="node1" class="node">
<title>ExperienciasFragmentadas</title>
<path fill="#f9fafb" stroke="#d1d5db" d="M293.62,-156.16C293.62,-156.16 239.92,-156.16 239.92,-156.16 233.92,-156.16 227.92,-150.16 227.92,-144.16 227.92,-144.16 227.92,-132.16 227.92,-132.16 227.92,-126.16 233.92,-120.16 239.92,-120.16 239.92,-120.16 293.62,-120.16 293.62,-120.16 299.62,-120.16 305.62,-126.16 305.62,-132.16 305.62,-132.16 305.62,-144.16 305.62,-144.16 305.62,-150.16 299.62,-156.16 293.62,-156.16"/>
<text xml:space="preserve" text-anchor="middle" x="266.77" y="-141.46" font-family="Segoe UI" font-size="11.00">Experiencias</text>
<text xml:space="preserve" text-anchor="middle" x="266.77" y="-128.26" font-family="Segoe UI" font-size="11.00">Fragmentadas</text>
</g>
<!-- PerdidaContexto -->
<g id="node2" class="node">
<title>PerdidaContexto</title>
<path fill="#f9fafb" stroke="#d1d5db" d="M236.46,-44C236.46,-44 197.1,-44 197.1,-44 191.1,-44 185.1,-38 185.1,-32 185.1,-32 185.1,-20 185.1,-20 185.1,-14 191.1,-8 197.1,-8 197.1,-8 236.46,-8 236.46,-8 242.46,-8 248.46,-14 248.46,-20 248.46,-20 248.46,-32 248.46,-32 248.46,-38 242.46,-44 236.46,-44"/>
<text xml:space="preserve" text-anchor="middle" x="216.78" y="-29.3" font-family="Segoe UI" font-size="11.00">Pérdida de</text>
<text xml:space="preserve" text-anchor="middle" x="216.78" y="-16.1" font-family="Segoe UI" font-size="11.00">Contexto</text>
</g>
<!-- ExperienciasFragmentadas&#45;&gt;PerdidaContexto -->
<g id="edge1" class="edge">
<title>ExperienciasFragmentadas-&gt;PerdidaContexto</title>
<path fill="none" stroke="#dc2626" stroke-width="1.2" d="M266.02,-119.96C264.34,-84.61 261.57,-72.86 243.56,-52.91"/>
<polygon fill="#dc2626" stroke="#dc2626" stroke-width="1.2" points="246.21,-50.63 236.79,-45.78 241.13,-55.45 246.21,-50.63"/>
<text xml:space="preserve" text-anchor="middle" x="257.48" y="-81.83" font-family="Segoe UI" font-size="10.00">+</text>
</g>
<!-- IneficienciaPlanificacion -->
<g id="node3" class="node">
<title>IneficienciaPlanificacion</title>
<path fill="#f9fafb" stroke="#d1d5db" d="M122.58,-60C122.58,-60 65.54,-60 65.54,-60 59.54,-60 53.54,-54 53.54,-48 53.54,-48 53.54,-36 53.54,-36 53.54,-30 59.54,-24 65.54,-24 65.54,-24 122.58,-24 122.58,-24 128.58,-24 134.58,-30 134.58,-36 134.58,-36 134.58,-48 134.58,-48 134.58,-54 128.58,-60 122.58,-60"/>
<text xml:space="preserve" text-anchor="middle" x="94.06" y="-45.3" font-family="Segoe UI" font-size="11.00">Ineficiencia en</text>
<text xml:space="preserve" text-anchor="middle" x="94.06" y="-32.1" font-family="Segoe UI" font-size="11.00">Planificación</text>
</g>
<!-- PerdidaContexto&#45;&gt;IneficienciaPlanificacion -->
<g id="edge2" class="edge">
<title>PerdidaContexto-&gt;IneficienciaPlanificacion</title>
<path fill="none" stroke="#dc2626" stroke-width="1.2" d="M184.88,-18.05C165.72,-13.91 154.3,-13.77 139.62,-19.05"/>
<polygon fill="#dc2626" stroke="#dc2626" stroke-width="1.2" points="138.33,-15.8 130.47,-22.89 141.04,-22.25 138.33,-15.8"/>
<text xml:space="preserve" text-anchor="middle" x="153.17" y="-18.26" font-family="Segoe UI" font-size="10.00">+</text>
</g>
<!-- MenorEngagement -->
<g id="node4" class="node">
<title>MenorEngagement</title>
<path fill="#f9fafb" stroke="#d1d5db" d="M87.36,-179.37C87.36,-179.37 40.38,-179.37 40.38,-179.37 34.38,-179.37 28.38,-173.37 28.38,-167.37 28.38,-167.37 28.38,-155.37 28.38,-155.37 28.38,-149.37 34.38,-143.37 40.38,-143.37 40.38,-143.37 87.36,-143.37 87.36,-143.37 93.36,-143.37 99.36,-149.37 99.36,-155.37 99.36,-155.37 99.36,-167.37 99.36,-167.37 99.36,-173.37 93.36,-179.37 87.36,-179.37"/>
<text xml:space="preserve" text-anchor="middle" x="63.87" y="-164.67" font-family="Segoe UI" font-size="11.00">Menor</text>
<text xml:space="preserve" text-anchor="middle" x="63.87" y="-151.47" font-family="Segoe UI" font-size="11.00">Engagement</text>
</g>
<!-- IneficienciaPlanificacion&#45;&gt;MenorEngagement -->
<g id="edge3" class="edge">
<title>IneficienciaPlanificacion-&gt;MenorEngagement</title>
<path fill="none" stroke="#dc2626" stroke-width="1.2" d="M81.1,-60.34C60.49,-90.1 56.71,-100.8 59.91,-131.31"/>
<polygon fill="#dc2626" stroke="#dc2626" stroke-width="1.2" points="56.42,-131.68 61.09,-141.19 63.37,-130.84 56.42,-131.68"/>
<text xml:space="preserve" text-anchor="middle" x="57.84" y="-101.91" font-family="Segoe UI" font-size="10.00">+</text>
</g>
<!-- ReducidaColaboracion -->
<g id="node5" class="node">
<title>ReducidaColaboracion</title>
<path fill="#f9fafb" stroke="#d1d5db" d="M198.46,-236.73C198.46,-236.73 147.2,-236.73 147.2,-236.73 141.2,-236.73 135.2,-230.73 135.2,-224.73 135.2,-224.73 135.2,-212.73 135.2,-212.73 135.2,-206.73 141.2,-200.73 147.2,-200.73 147.2,-200.73 198.46,-200.73 198.46,-200.73 204.46,-200.73 210.46,-206.73 210.46,-212.73 210.46,-212.73 210.46,-224.73 210.46,-224.73 210.46,-230.73 204.46,-236.73 198.46,-236.73"/>
<text xml:space="preserve" text-anchor="middle" x="172.83" y="-222.03" font-family="Segoe UI" font-size="11.00">Reducida</text>
<text xml:space="preserve" text-anchor="middle" x="172.83" y="-208.83" font-family="Segoe UI" font-size="11.00">Colaboración</text>
</g>
<!-- MenorEngagement&#45;&gt;ReducidaColaboracion -->
<g id="edge4" class="edge">
<title>MenorEngagement-&gt;ReducidaColaboracion</title>
<path fill="none" stroke="#dc2626" stroke-width="1.2" d="M79.26,-179.55C96.16,-198.96 105.76,-206.82 123.99,-211.52"/>
<polygon fill="#dc2626" stroke="#dc2626" stroke-width="1.2" points="122.82,-214.85 133.33,-213.48 124.26,-208 122.82,-214.85"/>
<text xml:space="preserve" text-anchor="middle" x="100.22" y="-205.4" font-family="Segoe UI" font-size="10.00">+</text>
</g>
<!-- ReducidaColaboracion&#45;&gt;ExperienciasFragmentadas -->
<g id="edge5" class="edge">
<title>ReducidaColaboracion-&gt;ExperienciasFragmentadas</title>
<path fill="none" stroke="#dc2626" stroke-width="1.2" d="M210.64,-204.82C231.19,-195.99 239.72,-187.67 251.71,-166.58"/>
<polygon fill="#dc2626" stroke="#dc2626" stroke-width="1.2" points="254.72,-168.38 256.45,-157.93 248.58,-165.02 254.72,-168.38"/>
<text xml:space="preserve" text-anchor="middle" x="236.59" y="-187.98" font-family="Segoe UI" font-size="10.00">+</text>
</g>
</g>
</svg>