<?plantuml 1.2026.2?><svg xmlns="http://www.w3.org/2000/svg" xmlns:xlink="http://www.w3.org/1999/xlink" contentStyleType="text/css" data-diagram-type="ACTIVITY" height="398px" preserveAspectRatio="none" style="width:627px;height:398px;background:#FFFFFF;" version="1.1" viewBox="0 0 627 398" width="627px" zoomAndPan="magnify"><defs/><g><rect fill="none" height="22.6406" style="stroke:none;stroke-width:1;" width="594.7534" x="15" y="12.4551"/><ellipse cx="159.061" cy="50.0957" fill="#222222" rx="10" ry="10" style="stroke:#222222;stroke-width:1;"/><rect fill="#F1F1F1" height="35.0938" rx="12.5" ry="12.5" style="stroke:#181818;stroke-width:0.5;" width="183.4238" x="67.3491" y="80.0957"/><text fill="#000000" font-family="sans-serif" font-size="12" lengthAdjust="spacing" textLength="163.4238" x="77.3491" y="102.5527">Recibir petici&#243;n de exploraci&#243;n</text><rect fill="#F1F1F1" height="35.0938" rx="12.5" ry="12.5" style="stroke:#181818;stroke-width:0.5;" width="128.709" x="94.7065" y="190.2832"/><text fill="#000000" font-family="sans-serif" font-size="12" lengthAdjust="spacing" textLength="108.709" x="104.7065" y="212.7402">Mostrar sugerencias</text><polygon fill="#F1F1F1" points="107.6973,245.377,210.4248,245.377,222.4248,257.377,210.4248,269.377,107.6973,269.377,95.6973,257.377,107.6973,245.377" style="stroke:#181818;stroke-width:0.5;"/><text fill="#000000" font-family="sans-serif" font-size="11" lengthAdjust="spacing" textLength="102.7275" x="107.6973" y="261.8779">Selecci&#243;n del Viajero</text><text fill="#000000" font-family="sans-serif" font-size="11" lengthAdjust="spacing" textLength="37.9092" x="57.7881" y="254.96">Aceptar</text><text fill="#000000" font-family="sans-serif" font-size="11" lengthAdjust="spacing" textLength="47.6792" x="222.4248" y="254.96">Descartar</text><rect fill="#F1F1F1" height="35.0938" rx="12.5" ry="12.5" style="stroke:#181818;stroke-width:0.5;" width="129.3945" x="21" y="279.377"/><text fill="#000000" font-family="sans-serif" font-size="12" lengthAdjust="spacing" textLength="109.3945" x="31" y="301.834">Procesar aceptaci&#243;n</text><rect fill="#F1F1F1" height="35.0938" rx="12.5" ry="12.5" style="stroke:#181818;stroke-width:0.5;" width="114.0313" x="175.4092" y="279.377"/><text fill="#000000" font-family="sans-serif" font-size="12" lengthAdjust="spacing" textLength="94.0313" x="185.4092" y="301.834">Omitir sugerencia</text><polygon fill="#F1F1F1" points="159.061,320.4707,171.061,332.4707,159.061,344.4707,147.061,332.4707,159.061,320.4707" style="stroke:#181818;stroke-width:0.5;"/><ellipse cx="159.061" cy="375.4707" fill="none" rx="11" ry="11" style="stroke:#222222;stroke-width:1;"/><ellipse cx="159.061" cy="375.4707" fill="#222222" rx="6" ry="6" style="stroke:#222222;stroke-width:1;"/><line style="stroke:#000000;stroke-width:1.5;" x1="15" x2="15" y1="12.4551" y2="386.4707"/><rect fill="#F1F1F1" height="35.0938" rx="12.5" ry="12.5" style="stroke:#181818;stroke-width:0.5;" width="304.8125" x="299.4404" y="135.1895"/><text fill="#000000" font-family="sans-serif" font-size="12" lengthAdjust="spacing" textLength="284.8125" x="309.4404" y="157.6465">Analizar comportamiento y generar recomendaciones</text><line style="stroke:#000000;stroke-width:1.5;" x1="293.4404" x2="293.4404" y1="12.4551" y2="386.4707"/><line style="stroke:#000000;stroke-width:1.5;" x1="608.2529" x2="608.2529" y1="12.4551" y2="386.4707"/><line style="stroke:#181818;stroke-width:1;" x1="159.061" x2="159.061" y1="60.0957" y2="80.0957"/><polygon fill="#181818" points="155.061,70.0957,159.061,80.0957,163.061,70.0957,159.061,74.0957" style="stroke:#181818;stroke-width:1;"/><line style="stroke:#181818;stroke-width:1;" x1="95.6973" x2="85.6973" y1="257.377" y2="257.377"/><line style="stroke:#181818;stroke-width:1;" x1="85.6973" x2="85.6973" y1="257.377" y2="279.377"/><polygon fill="#181818" points="81.6973,269.377,85.6973,279.377,89.6973,269.377,85.6973,273.377" style="stroke:#181818;stroke-width:1;"/><line style="stroke:#181818;stroke-width:1;" x1="222.4248" x2="232.4248" y1="257.377" y2="257.377"/><line style="stroke:#181818;stroke-width:1;" x1="232.4248" x2="232.4248" y1="257.377" y2="279.377"/><polygon fill="#181818" points="228.4248,269.377,232.4248,279.377,236.4248,269.377,232.4248,273.377" style="stroke:#181818;stroke-width:1;"/><line style="stroke:#181818;stroke-width:1;" x1="85.6973" x2="85.6973" y1="314.4707" y2="332.4707"/><line style="stroke:#181818;stroke-width:1;" x1="85.6973" x2="147.061" y1="332.4707" y2="332.4707"/><polygon fill="#181818" points="137.061,328.4707,147.061,332.4707,137.061,336.4707,141.061,332.4707" style="stroke:#181818;stroke-width:1;"/><line style="stroke:#181818;stroke-width:1;" x1="232.4248" x2="232.4248" y1="314.4707" y2="332.4707"/><line style="stroke:#181818;stroke-width:1;" x1="232.4248" x2="171.061" y1="332.4707" y2="332.4707"/><polygon fill="#181818" points="181.061,328.4707,171.061,332.4707,181.061,336.4707,177.061,332.4707" style="stroke:#181818;stroke-width:1;"/><line style="stroke:#181818;stroke-width:1;" x1="159.061" x2="159.061" y1="225.377" y2="245.377"/><polygon fill="#181818" points="155.061,235.377,159.061,245.377,163.061,235.377,159.061,239.377" style="stroke:#181818;stroke-width:1;"/><line style="stroke:#181818;stroke-width:1;" x1="159.061" x2="159.061" y1="344.4707" y2="364.4707"/><polygon fill="#181818" points="155.061,354.4707,159.061,364.4707,163.061,354.4707,159.061,358.4707" style="stroke:#181818;stroke-width:1;"/><line style="stroke:#181818;stroke-width:1;" x1="159.061" x2="159.061" y1="115.1895" y2="120.1895"/><line style="stroke:#181818;stroke-width:1;" x1="159.061" x2="451.8467" y1="120.1895" y2="120.1895"/><line style="stroke:#181818;stroke-width:1;" x1="451.8467" x2="451.8467" y1="120.1895" y2="135.1895"/><polygon fill="#181818" points="447.8467,125.1895,451.8467,135.1895,455.8467,125.1895,451.8467,129.1895" style="stroke:#181818;stroke-width:1;"/><line style="stroke:#181818;stroke-width:1;" x1="451.8467" x2="451.8467" y1="170.2832" y2="175.2832"/><line style="stroke:#181818;stroke-width:1;" x1="451.8467" x2="159.061" y1="175.2832" y2="175.2832"/><line style="stroke:#181818;stroke-width:1;" x1="159.061" x2="159.061" y1="175.2832" y2="190.2832"/><polygon fill="#181818" points="155.061,180.2832,159.061,190.2832,163.061,180.2832,159.061,184.2832" style="stroke:#181818;stroke-width:1;"/><text fill="#000000" font-family="sans-serif" font-size="18" lengthAdjust="spacing" textLength="152.0771" x="78.1816" y="31.1406">Interfaz de Usuario</text><text fill="#000000" font-family="sans-serif" font-size="18" lengthAdjust="spacing" textLength="166.043" x="367.8252" y="31.1406">Plataforma SmarTrip</text><?plantuml-src RP0nJWD134NxEONBpHMMAX8D1I8YGE_C_Wr6C-EHnv58jBVY25oCsIX859Isdx__z_9G73RpXIRGQpknYIwXEPk7yHbH3c9KuHBb-wki43vhKkDhVHV2ialiFAjbfdrcUp6fInYtXPDSs2XghchEML1SwKn755WV6Fe8PUfAMj1MgN-zZ8_QV5refoCC9GftM6OQzaY8lxuIlGb_m7H3_ev2mpQYzXYRG3JkJ2DQr-1hy-OTgO66UxJOqzx8fomkVszrh4moX_uJhJy0?></g></svg>