<?plantuml 1.2026.2?><svg xmlns="http://www.w3.org/2000/svg" xmlns:xlink="http://www.w3.org/1999/xlink" contentStyleType="text/css" data-diagram-type="DESCRIPTION" height="652px" preserveAspectRatio="none" style="width:1145px;height:652px;background:#FFFFFF;" version="1.1" viewBox="0 0 1145 652" width="1145px" zoomAndPan="magnify"><title>CI/CD - flujo por repositorio</title><defs/><g><g class="title" data-source-line="1"><text fill="#000000" font-family="sans-serif" font-size="14" font-weight="bold" lengthAdjust="spacing" textLength="183.5449" x="473.7275" y="24.5332">CI/CD - flujo por repositorio</text></g><!--cluster voyager-backend-core--><g class="cluster" data-qualified-name="voyager-backend-core" data-source-line="5" id="ent0002"><path d="M14.5,44.6094 L164.8926,44.6094 A3.75,3.75 0 0 1 167.3926,47.1094 L174.3926,68.2188 L1135.5,68.2188 A2.5,2.5 0 0 1 1138,70.7188 L1138,175.1094 A2.5,2.5 0 0 1 1135.5,177.6094 L14.5,177.6094 A2.5,2.5 0 0 1 12,175.1094 L12,47.1094 A2.5,2.5 0 0 1 14.5,44.6094" fill="none" style="stroke:#000000;stroke-width:1.5;"/><line style="stroke:#000000;stroke-width:1.5;" x1="12" x2="174.3926" y1="68.2188" y2="68.2188"/><text fill="#000000" font-family="sans-serif" font-size="14" font-weight="bold" lengthAdjust="spacing" textLength="149.3926" x="16" y="61.1426">voyager-backend-core</text></g><!--cluster voyager-ai-service--><g class="cluster" data-qualified-name="voyager-ai-service" data-source-line="19" id="ent0014"><path d="M14.5,217.6094 L138.4648,217.6094 A3.75,3.75 0 0 1 140.9648,220.1094 L147.9648,241.2188 L875.5,241.2188 A2.5,2.5 0 0 1 878,243.7188 L878,331.1094 A2.5,2.5 0 0 1 875.5,333.6094 L14.5,333.6094 A2.5,2.5 0 0 1 12,331.1094 L12,220.1094 A2.5,2.5 0 0 1 14.5,217.6094" fill="none" style="stroke:#000000;stroke-width:1.5;"/><line style="stroke:#000000;stroke-width:1.5;" x1="12" x2="147.9648" y1="241.2188" y2="241.2188"/><text fill="#000000" font-family="sans-serif" font-size="14" font-weight="bold" lengthAdjust="spacing" textLength="122.9648" x="16" y="234.1426">voyager-ai-service</text></g><!--cluster voyager-web-client--><g class="cluster" data-qualified-name="voyager-web-client" data-source-line="31" id="ent0024"><path d="M14.5,373.6094 L142.3135,373.6094 A3.75,3.75 0 0 1 144.8135,376.1094 L151.8135,397.2188 L945.5,397.2188 A2.5,2.5 0 0 1 948,399.7188 L948,487.1094 A2.5,2.5 0 0 1 945.5,489.6094 L14.5,489.6094 A2.5,2.5 0 0 1 12,487.1094 L12,376.1094 A2.5,2.5 0 0 1 14.5,373.6094" fill="none" style="stroke:#000000;stroke-width:1.5;"/><line style="stroke:#000000;stroke-width:1.5;" x1="12" x2="151.8135" y1="397.2188" y2="397.2188"/><text fill="#000000" font-family="sans-serif" font-size="14" font-weight="bold" lengthAdjust="spacing" textLength="126.8135" x="16" y="390.1426">voyager-web-client</text></g><!--cluster voyager-android--><g class="cluster" data-qualified-name="voyager-android" data-source-line="45" id="ent0036"><path d="M14.5,529.6094 L125.1895,529.6094 A3.75,3.75 0 0 1 127.6895,532.1094 L134.6895,553.2188 L727.5,553.2188 A2.5,2.5 0 0 1 730,555.7188 L730,643.1094 A2.5,2.5 0 0 1 727.5,645.6094 L14.5,645.6094 A2.5,2.5 0 0 1 12,643.1094 L12,532.1094 A2.5,2.5 0 0 1 14.5,529.6094" fill="none" style="stroke:#000000;stroke-width:1.5;"/><line style="stroke:#000000;stroke-width:1.5;" x1="12" x2="134.6895" y1="553.2188" y2="553.2188"/><text fill="#000000" font-family="sans-serif" font-size="14" font-weight="bold" lengthAdjust="spacing" textLength="109.6895" x="16" y="546.1426">voyager-android</text></g><!--entity bc1--><g class="entity" data-qualified-name="voyager-backend-core.bc1" data-source-line="6" id="ent0003"><rect fill="#F1F1F1" height="47.6094" rx="2.5" ry="2.5" style="stroke:#181818;stroke-width:0.5;" width="96.0342" x="55" y="97.1094"/><rect fill="#F1F1F1" height="10" style="stroke:#181818;stroke-width:0.5;" width="15" x="131.0342" y="102.1094"/><rect fill="#F1F1F1" height="2" style="stroke:#181818;stroke-width:0.5;" width="4" x="129.0342" y="104.1094"/><rect fill="#F1F1F1" height="2" style="stroke:#181818;stroke-width:0.5;" width="4" x="129.0342" y="108.1094"/><text fill="#000000" font-family="sans-serif" font-size="14" lengthAdjust="spacing" textLength="56.0342" x="70" y="131.6426">checkout</text></g><!--entity bc2--><g class="entity" data-qualified-name="voyager-backend-core.bc2" data-source-line="7" id="ent0004"><rect fill="#F1F1F1" height="47.6094" rx="2.5" ry="2.5" style="stroke:#181818;stroke-width:0.5;" width="92.1035" x="186" y="97.1094"/><rect fill="#F1F1F1" height="10" style="stroke:#181818;stroke-width:0.5;" width="15" x="258.1035" y="102.1094"/><rect fill="#F1F1F1" height="2" style="stroke:#181818;stroke-width:0.5;" width="4" x="256.1035" y="104.1094"/><rect fill="#F1F1F1" height="2" style="stroke:#181818;stroke-width:0.5;" width="4" x="256.1035" y="108.1094"/><text fill="#000000" font-family="sans-serif" font-size="14" lengthAdjust="spacing" textLength="52.1035" x="201" y="131.6426">Trivy FS</text></g><!--entity bc3--><g class="entity" data-qualified-name="voyager-backend-core.bc3" data-source-line="8" id="ent0005"><rect fill="#F1F1F1" height="47.6094" rx="2.5" ry="2.5" style="stroke:#181818;stroke-width:0.5;" width="193.6787" x="313" y="97.1094"/><rect fill="#F1F1F1" height="10" style="stroke:#181818;stroke-width:0.5;" width="15" x="486.6787" y="102.1094"/><rect fill="#F1F1F1" height="2" style="stroke:#181818;stroke-width:0.5;" width="4" x="484.6787" y="104.1094"/><rect fill="#F1F1F1" height="2" style="stroke:#181818;stroke-width:0.5;" width="4" x="484.6787" y="108.1094"/><text fill="#000000" font-family="sans-serif" font-size="14" lengthAdjust="spacing" textLength="153.6787" x="328" y="131.6426">SonarCloud + mvn verify</text></g><!--entity bc4--><g class="entity" data-qualified-name="voyager-backend-core.bc4" data-source-line="9" id="ent0006"><rect fill="#F1F1F1" height="47.6094" rx="2.5" ry="2.5" style="stroke:#181818;stroke-width:0.5;" width="157.5029" x="542" y="97.1094"/><rect fill="#F1F1F1" height="10" style="stroke:#181818;stroke-width:0.5;" width="15" x="679.5029" y="102.1094"/><rect fill="#F1F1F1" height="2" style="stroke:#181818;stroke-width:0.5;" width="4" x="677.5029" y="104.1094"/><rect fill="#F1F1F1" height="2" style="stroke:#181818;stroke-width:0.5;" width="4" x="677.5029" y="108.1094"/><text fill="#000000" font-family="sans-serif" font-size="14" lengthAdjust="spacing" textLength="117.5029" x="557" y="131.6426">mvn test / package</text></g><!--entity bc5--><g class="entity" data-qualified-name="voyager-backend-core.bc5" data-source-line="10" id="ent0007"><rect fill="#F1F1F1" height="47.6094" rx="2.5" ry="2.5" style="stroke:#181818;stroke-width:0.5;" width="160.6064" x="735.5" y="97.1094"/><rect fill="#F1F1F1" height="10" style="stroke:#181818;stroke-width:0.5;" width="15" x="876.1064" y="102.1094"/><rect fill="#F1F1F1" height="2" style="stroke:#181818;stroke-width:0.5;" width="4" x="874.1064" y="104.1094"/><rect fill="#F1F1F1" height="2" style="stroke:#181818;stroke-width:0.5;" width="4" x="874.1064" y="108.1094"/><text fill="#000000" font-family="sans-serif" font-size="14" lengthAdjust="spacing" textLength="120.6064" x="750.5" y="131.6426">Artifact backend-jar</text></g><!--entity bc6--><g class="entity" data-qualified-name="voyager-backend-core.bc6" data-source-line="11" id="ent0008"><rect fill="#F1F1F1" height="65.2188" rx="2.5" ry="2.5" style="stroke:#181818;stroke-width:0.5;" width="181.6611" x="932" y="88.6094"/><rect fill="#F1F1F1" height="10" style="stroke:#181818;stroke-width:0.5;" width="15" x="1093.6611" y="93.6094"/><rect fill="#F1F1F1" height="2" style="stroke:#181818;stroke-width:0.5;" width="4" x="1091.6611" y="95.6094"/><rect fill="#F1F1F1" height="2" style="stroke:#181818;stroke-width:0.5;" width="4" x="1091.6611" y="99.6094"/><text fill="#000000" font-family="sans-serif" font-size="14" lengthAdjust="spacing" textLength="141.6611" x="947" y="123.1426">Manual deploy handoff</text><text fill="#000000" font-family="sans-serif" font-size="14" lengthAdjust="spacing" textLength="75.5029" x="947" y="140.752">Learner Lab</text></g><!--entity ai1--><g class="entity" data-qualified-name="voyager-ai-service.ai1" data-source-line="20" id="ent0015"><rect fill="#F1F1F1" height="47.6094" rx="2.5" ry="2.5" style="stroke:#181818;stroke-width:0.5;" width="96.0342" x="55" y="261.6094"/><rect fill="#F1F1F1" height="10" style="stroke:#181818;stroke-width:0.5;" width="15" x="131.0342" y="266.6094"/><rect fill="#F1F1F1" height="2" style="stroke:#181818;stroke-width:0.5;" width="4" x="129.0342" y="268.6094"/><rect fill="#F1F1F1" height="2" style="stroke:#181818;stroke-width:0.5;" width="4" x="129.0342" y="272.6094"/><text fill="#000000" font-family="sans-serif" font-size="14" lengthAdjust="spacing" textLength="56.0342" x="70" y="296.1426">checkout</text></g><!--entity ai2--><g class="entity" data-qualified-name="voyager-ai-service.ai2" data-source-line="21" id="ent0016"><rect fill="#F1F1F1" height="47.6094" rx="2.5" ry="2.5" style="stroke:#181818;stroke-width:0.5;" width="92.1035" x="186" y="261.6094"/><rect fill="#F1F1F1" height="10" style="stroke:#181818;stroke-width:0.5;" width="15" x="258.1035" y="266.6094"/><rect fill="#F1F1F1" height="2" style="stroke:#181818;stroke-width:0.5;" width="4" x="256.1035" y="268.6094"/><rect fill="#F1F1F1" height="2" style="stroke:#181818;stroke-width:0.5;" width="4" x="256.1035" y="272.6094"/><text fill="#000000" font-family="sans-serif" font-size="14" lengthAdjust="spacing" textLength="52.1035" x="201" y="296.1426">Trivy FS</text></g><!--entity ai3--><g class="entity" data-qualified-name="voyager-ai-service.ai3" data-source-line="22" id="ent0017"><rect fill="#F1F1F1" height="47.6094" rx="2.5" ry="2.5" style="stroke:#181818;stroke-width:0.5;" width="113.9375" x="313" y="261.6094"/><rect fill="#F1F1F1" height="10" style="stroke:#181818;stroke-width:0.5;" width="15" x="406.9375" y="266.6094"/><rect fill="#F1F1F1" height="2" style="stroke:#181818;stroke-width:0.5;" width="4" x="404.9375" y="268.6094"/><rect fill="#F1F1F1" height="2" style="stroke:#181818;stroke-width:0.5;" width="4" x="404.9375" y="272.6094"/><text fill="#000000" font-family="sans-serif" font-size="14" lengthAdjust="spacing" textLength="73.9375" x="328" y="296.1426">SonarCloud</text></g><!--entity ai4--><g class="entity" data-qualified-name="voyager-ai-service.ai4" data-source-line="23" id="ent0018"><rect fill="#F1F1F1" height="47.6094" rx="2.5" ry="2.5" style="stroke:#181818;stroke-width:0.5;" width="177.3545" x="462.5" y="261.6094"/><rect fill="#F1F1F1" height="10" style="stroke:#181818;stroke-width:0.5;" width="15" x="619.8545" y="266.6094"/><rect fill="#F1F1F1" height="2" style="stroke:#181818;stroke-width:0.5;" width="4" x="617.8545" y="268.6094"/><rect fill="#F1F1F1" height="2" style="stroke:#181818;stroke-width:0.5;" width="4" x="617.8545" y="272.6094"/><text fill="#000000" font-family="sans-serif" font-size="14" lengthAdjust="spacing" textLength="137.3545" x="477.5" y="296.1426">pip install + tests/build</text></g><!--entity ai5--><g class="entity" data-qualified-name="voyager-ai-service.ai5" data-source-line="24" id="ent0019"><rect fill="#F1F1F1" height="47.6094" rx="2.5" ry="2.5" style="stroke:#181818;stroke-width:0.5;" width="179.3096" x="674.5" y="261.6094"/><rect fill="#F1F1F1" height="10" style="stroke:#181818;stroke-width:0.5;" width="15" x="833.8096" y="266.6094"/><rect fill="#F1F1F1" height="2" style="stroke:#181818;stroke-width:0.5;" width="4" x="831.8096" y="268.6094"/><rect fill="#F1F1F1" height="2" style="stroke:#181818;stroke-width:0.5;" width="4" x="831.8096" y="272.6094"/><text fill="#000000" font-family="sans-serif" font-size="14" lengthAdjust="spacing" textLength="139.3096" x="689.5" y="296.1426">Artifact deploy handoff</text></g><!--entity wc1--><g class="entity" data-qualified-name="voyager-web-client.wc1" data-source-line="32" id="ent0025"><rect fill="#F1F1F1" height="47.6094" rx="2.5" ry="2.5" style="stroke:#181818;stroke-width:0.5;" width="96.0342" x="55" y="417.6094"/><rect fill="#F1F1F1" height="10" style="stroke:#181818;stroke-width:0.5;" width="15" x="131.0342" y="422.6094"/><rect fill="#F1F1F1" height="2" style="stroke:#181818;stroke-width:0.5;" width="4" x="129.0342" y="424.6094"/><rect fill="#F1F1F1" height="2" style="stroke:#181818;stroke-width:0.5;" width="4" x="129.0342" y="428.6094"/><text fill="#000000" font-family="sans-serif" font-size="14" lengthAdjust="spacing" textLength="56.0342" x="70" y="452.1426">checkout</text></g><!--entity wc2--><g class="entity" data-qualified-name="voyager-web-client.wc2" data-source-line="33" id="ent0026"><rect fill="#F1F1F1" height="47.6094" rx="2.5" ry="2.5" style="stroke:#181818;stroke-width:0.5;" width="126.7549" x="186.5" y="417.6094"/><rect fill="#F1F1F1" height="10" style="stroke:#181818;stroke-width:0.5;" width="15" x="293.2549" y="422.6094"/><rect fill="#F1F1F1" height="2" style="stroke:#181818;stroke-width:0.5;" width="4" x="291.2549" y="424.6094"/><rect fill="#F1F1F1" height="2" style="stroke:#181818;stroke-width:0.5;" width="4" x="291.2549" y="428.6094"/><text fill="#000000" font-family="sans-serif" font-size="14" lengthAdjust="spacing" textLength="86.7549" x="201.5" y="452.1426">npm ci + tests</text></g><!--entity wc3--><g class="entity" data-qualified-name="voyager-web-client.wc3" data-source-line="34" id="ent0027"><rect fill="#F1F1F1" height="47.6094" rx="2.5" ry="2.5" style="stroke:#181818;stroke-width:0.5;" width="92.1035" x="349" y="417.6094"/><rect fill="#F1F1F1" height="10" style="stroke:#181818;stroke-width:0.5;" width="15" x="421.1035" y="422.6094"/><rect fill="#F1F1F1" height="2" style="stroke:#181818;stroke-width:0.5;" width="4" x="419.1035" y="424.6094"/><rect fill="#F1F1F1" height="2" style="stroke:#181818;stroke-width:0.5;" width="4" x="419.1035" y="428.6094"/><text fill="#000000" font-family="sans-serif" font-size="14" lengthAdjust="spacing" textLength="52.1035" x="364" y="452.1426">Trivy FS</text></g><!--entity wc4--><g class="entity" data-qualified-name="voyager-web-client.wc4" data-source-line="35" id="ent0028"><rect fill="#F1F1F1" height="47.6094" rx="2.5" ry="2.5" style="stroke:#181818;stroke-width:0.5;" width="113.9375" x="476" y="417.6094"/><rect fill="#F1F1F1" height="10" style="stroke:#181818;stroke-width:0.5;" width="15" x="569.9375" y="422.6094"/><rect fill="#F1F1F1" height="2" style="stroke:#181818;stroke-width:0.5;" width="4" x="567.9375" y="424.6094"/><rect fill="#F1F1F1" height="2" style="stroke:#181818;stroke-width:0.5;" width="4" x="567.9375" y="428.6094"/><text fill="#000000" font-family="sans-serif" font-size="14" lengthAdjust="spacing" textLength="73.9375" x="491" y="452.1426">SonarCloud</text></g><!--entity wc5--><g class="entity" data-qualified-name="voyager-web-client.wc5" data-source-line="36" id="ent0029"><rect fill="#F1F1F1" height="47.6094" rx="2.5" ry="2.5" style="stroke:#181818;stroke-width:0.5;" width="97.5928" x="625" y="417.6094"/><rect fill="#F1F1F1" height="10" style="stroke:#181818;stroke-width:0.5;" width="15" x="702.5928" y="422.6094"/><rect fill="#F1F1F1" height="2" style="stroke:#181818;stroke-width:0.5;" width="4" x="700.5928" y="424.6094"/><rect fill="#F1F1F1" height="2" style="stroke:#181818;stroke-width:0.5;" width="4" x="700.5928" y="428.6094"/><text fill="#000000" font-family="sans-serif" font-size="14" lengthAdjust="spacing" textLength="57.5928" x="640" y="452.1426">Vite build</text></g><!--entity wc6--><g class="entity" data-qualified-name="voyager-web-client.wc6" data-source-line="37" id="ent0030"><rect fill="#F1F1F1" height="47.6094" rx="2.5" ry="2.5" style="stroke:#181818;stroke-width:0.5;" width="165.2754" x="758.5" y="417.6094"/><rect fill="#F1F1F1" height="10" style="stroke:#181818;stroke-width:0.5;" width="15" x="903.7754" y="422.6094"/><rect fill="#F1F1F1" height="2" style="stroke:#181818;stroke-width:0.5;" width="4" x="901.7754" y="424.6094"/><rect fill="#F1F1F1" height="2" style="stroke:#181818;stroke-width:0.5;" width="4" x="901.7754" y="428.6094"/><text fill="#000000" font-family="sans-serif" font-size="14" lengthAdjust="spacing" textLength="125.2754" x="773.5" y="452.1426">Artifact static deploy</text></g><!--entity an1--><g class="entity" data-qualified-name="voyager-android.an1" data-source-line="46" id="ent0037"><rect fill="#F1F1F1" height="47.6094" rx="2.5" ry="2.5" style="stroke:#181818;stroke-width:0.5;" width="96.0342" x="55" y="573.6094"/><rect fill="#F1F1F1" height="10" style="stroke:#181818;stroke-width:0.5;" width="15" x="131.0342" y="578.6094"/><rect fill="#F1F1F1" height="2" style="stroke:#181818;stroke-width:0.5;" width="4" x="129.0342" y="580.6094"/><rect fill="#F1F1F1" height="2" style="stroke:#181818;stroke-width:0.5;" width="4" x="129.0342" y="584.6094"/><text fill="#000000" font-family="sans-serif" font-size="14" lengthAdjust="spacing" textLength="56.0342" x="70" y="608.1426">checkout</text></g><!--entity an2--><g class="entity" data-qualified-name="voyager-android.an2" data-source-line="47" id="ent0038"><rect fill="#F1F1F1" height="47.6094" rx="2.5" ry="2.5" style="stroke:#181818;stroke-width:0.5;" width="92.1035" x="186" y="573.6094"/><rect fill="#F1F1F1" height="10" style="stroke:#181818;stroke-width:0.5;" width="15" x="258.1035" y="578.6094"/><rect fill="#F1F1F1" height="2" style="stroke:#181818;stroke-width:0.5;" width="4" x="256.1035" y="580.6094"/><rect fill="#F1F1F1" height="2" style="stroke:#181818;stroke-width:0.5;" width="4" x="256.1035" y="584.6094"/><text fill="#000000" font-family="sans-serif" font-size="14" lengthAdjust="spacing" textLength="52.1035" x="201" y="608.1426">Trivy FS</text></g><!--entity an3--><g class="entity" data-qualified-name="voyager-android.an3" data-source-line="48" id="ent0039"><rect fill="#F1F1F1" height="47.6094" rx="2.5" ry="2.5" style="stroke:#181818;stroke-width:0.5;" width="235.7197" x="313" y="573.6094"/><rect fill="#F1F1F1" height="10" style="stroke:#181818;stroke-width:0.5;" width="15" x="528.7197" y="578.6094"/><rect fill="#F1F1F1" height="2" style="stroke:#181818;stroke-width:0.5;" width="4" x="526.7197" y="580.6094"/><rect fill="#F1F1F1" height="2" style="stroke:#181818;stroke-width:0.5;" width="4" x="526.7197" y="584.6094"/><text fill="#000000" font-family="sans-serif" font-size="14" lengthAdjust="spacing" textLength="195.7197" x="328" y="608.1426">SonarCloud + Gradle assemble</text></g><!--entity an4--><g class="entity" data-qualified-name="voyager-android.an4" data-source-line="49" id="ent0040"><rect fill="#F1F1F1" height="47.6094" rx="2.5" ry="2.5" style="stroke:#181818;stroke-width:0.5;" width="121.7236" x="584" y="573.6094"/><rect fill="#F1F1F1" height="10" style="stroke:#181818;stroke-width:0.5;" width="15" x="685.7236" y="578.6094"/><rect fill="#F1F1F1" height="2" style="stroke:#181818;stroke-width:0.5;" width="4" x="683.7236" y="580.6094"/><rect fill="#F1F1F1" height="2" style="stroke:#181818;stroke-width:0.5;" width="4" x="683.7236" y="584.6094"/><text fill="#000000" font-family="sans-serif" font-size="14" lengthAdjust="spacing" textLength="81.7236" x="599" y="608.1426">APK / bundle</text></g><!--link bc1 to bc2--><g class="link" data-entity-1="ent0003" data-entity-2="ent0004" data-link-type="dependency" data-source-line="12" id="lnk9"><path d="M151.12,121.1094 C162.71,121.1094 168.29,121.1094 179.87,121.1094" fill="none" id="bc1-to-bc2" style="stroke:#181818;stroke-width:1;"/><polygon fill="#181818" points="185.87,121.1094,176.87,117.1094,180.87,121.1094,176.87,125.1094,185.87,121.1094" style="stroke:#181818;stroke-width:1;"/></g><!--link bc2 to bc3--><g class="link" data-entity-1="ent0004" data-entity-2="ent0005" data-link-type="dependency" data-source-line="13" id="lnk10"><path d="M278.24,121.1094 C289.82,121.1094 295.4,121.1094 306.98,121.1094" fill="none" id="bc2-to-bc3" style="stroke:#181818;stroke-width:1;"/><polygon fill="#181818" points="312.98,121.1094,303.98,117.1094,307.98,121.1094,303.98,125.1094,312.98,121.1094" style="stroke:#181818;stroke-width:1;"/></g><!--link bc3 to bc4--><g class="link" data-entity-1="ent0005" data-entity-2="ent0006" data-link-type="dependency" data-source-line="14" id="lnk11"><path d="M507.26,121.1094 C518.81,121.1094 524.36,121.1094 535.91,121.1094" fill="none" id="bc3-to-bc4" style="stroke:#181818;stroke-width:1;"/><polygon fill="#181818" points="541.91,121.1094,532.91,117.1094,536.91,121.1094,532.91,125.1094,541.91,121.1094" style="stroke:#181818;stroke-width:1;"/></g><!--link bc4 to bc5--><g class="link" data-entity-1="ent0006" data-entity-2="ent0007" data-link-type="dependency" data-source-line="15" id="lnk12"><path d="M700.22,121.1094 C711.98,121.1094 717.74,121.1094 729.5,121.1094" fill="none" id="bc4-to-bc5" style="stroke:#181818;stroke-width:1;"/><polygon fill="#181818" points="735.5,121.1094,726.5,117.1094,730.5,121.1094,726.5,125.1094,735.5,121.1094" style="stroke:#181818;stroke-width:1;"/></g><!--link bc5 to bc6--><g class="link" data-entity-1="ent0007" data-entity-2="ent0008" data-link-type="dependency" data-source-line="16" id="lnk13"><path d="M896.86,121.1094 C908.52,121.1094 914.18,121.1094 925.84,121.1094" fill="none" id="bc5-to-bc6" style="stroke:#181818;stroke-width:1;"/><polygon fill="#181818" points="931.84,121.1094,922.84,117.1094,926.84,121.1094,922.84,125.1094,931.84,121.1094" style="stroke:#181818;stroke-width:1;"/></g><!--link ai1 to ai2--><g class="link" data-entity-1="ent0015" data-entity-2="ent0016" data-link-type="dependency" data-source-line="25" id="lnk20"><path d="M151.12,285.6094 C162.71,285.6094 168.29,285.6094 179.87,285.6094" fill="none" id="ai1-to-ai2" style="stroke:#181818;stroke-width:1;"/><polygon fill="#181818" points="185.87,285.6094,176.87,281.6094,180.87,285.6094,176.87,289.6094,185.87,285.6094" style="stroke:#181818;stroke-width:1;"/></g><!--link ai2 to ai3--><g class="link" data-entity-1="ent0016" data-entity-2="ent0017" data-link-type="dependency" data-source-line="26" id="lnk21"><path d="M278.09,285.6094 C289.7,285.6094 295.31,285.6094 306.92,285.6094" fill="none" id="ai2-to-ai3" style="stroke:#181818;stroke-width:1;"/><polygon fill="#181818" points="312.92,285.6094,303.92,281.6094,307.92,285.6094,303.92,289.6094,312.92,285.6094" style="stroke:#181818;stroke-width:1;"/></g><!--link ai3 to ai4--><g class="link" data-entity-1="ent0017" data-entity-2="ent0018" data-link-type="dependency" data-source-line="27" id="lnk22"><path d="M427.27,285.6094 C438.87,285.6094 444.47,285.6094 456.07,285.6094" fill="none" id="ai3-to-ai4" style="stroke:#181818;stroke-width:1;"/><polygon fill="#181818" points="462.07,285.6094,453.07,281.6094,457.07,285.6094,453.07,289.6094,462.07,285.6094" style="stroke:#181818;stroke-width:1;"/></g><!--link ai4 to ai5--><g class="link" data-entity-1="ent0018" data-entity-2="ent0019" data-link-type="dependency" data-source-line="28" id="lnk23"><path d="M639.61,285.6094 C651.11,285.6094 656.61,285.6094 668.11,285.6094" fill="none" id="ai4-to-ai5" style="stroke:#181818;stroke-width:1;"/><polygon fill="#181818" points="674.11,285.6094,665.11,281.6094,669.11,285.6094,665.11,289.6094,674.11,285.6094" style="stroke:#181818;stroke-width:1;"/></g><!--link wc1 to wc2--><g class="link" data-entity-1="ent0025" data-entity-2="ent0026" data-link-type="dependency" data-source-line="38" id="lnk31"><path d="M151.23,441.6094 C162.94,441.6094 168.64,441.6094 180.34,441.6094" fill="none" id="wc1-to-wc2" style="stroke:#181818;stroke-width:1;"/><polygon fill="#181818" points="186.34,441.6094,177.34,437.6094,181.34,441.6094,177.34,445.6094,186.34,441.6094" style="stroke:#181818;stroke-width:1;"/></g><!--link wc2 to wc3--><g class="link" data-entity-1="ent0026" data-entity-2="ent0027" data-link-type="dependency" data-source-line="39" id="lnk32"><path d="M313.72,441.6094 C325.47,441.6094 331.22,441.6094 342.96,441.6094" fill="none" id="wc2-to-wc3" style="stroke:#181818;stroke-width:1;"/><polygon fill="#181818" points="348.96,441.6094,339.96,437.6094,343.96,441.6094,339.96,445.6094,348.96,441.6094" style="stroke:#181818;stroke-width:1;"/></g><!--link wc3 to wc4--><g class="link" data-entity-1="ent0027" data-entity-2="ent0028" data-link-type="dependency" data-source-line="40" id="lnk33"><path d="M441.09,441.6094 C452.7,441.6094 458.31,441.6094 469.92,441.6094" fill="none" id="wc3-to-wc4" style="stroke:#181818;stroke-width:1;"/><polygon fill="#181818" points="475.92,441.6094,466.92,437.6094,470.92,441.6094,466.92,445.6094,475.92,441.6094" style="stroke:#181818;stroke-width:1;"/></g><!--link wc4 to wc5--><g class="link" data-entity-1="ent0028" data-entity-2="ent0029" data-link-type="dependency" data-source-line="41" id="lnk34"><path d="M590.01,441.6094 C601.6,441.6094 607.19,441.6094 618.78,441.6094" fill="none" id="wc4-to-wc5" style="stroke:#181818;stroke-width:1;"/><polygon fill="#181818" points="624.78,441.6094,615.78,437.6094,619.78,441.6094,615.78,445.6094,624.78,441.6094" style="stroke:#181818;stroke-width:1;"/></g><!--link wc5 to wc6--><g class="link" data-entity-1="ent0029" data-entity-2="ent0030" data-link-type="dependency" data-source-line="42" id="lnk35"><path d="M723.25,441.6094 C734.9,441.6094 740.56,441.6094 752.21,441.6094" fill="none" id="wc5-to-wc6" style="stroke:#181818;stroke-width:1;"/><polygon fill="#181818" points="758.21,441.6094,749.21,437.6094,753.21,441.6094,749.21,445.6094,758.21,441.6094" style="stroke:#181818;stroke-width:1;"/></g><!--link an1 to an2--><g class="link" data-entity-1="ent0037" data-entity-2="ent0038" data-link-type="dependency" data-source-line="50" id="lnk41"><path d="M151.12,597.6094 C162.71,597.6094 168.29,597.6094 179.87,597.6094" fill="none" id="an1-to-an2" style="stroke:#181818;stroke-width:1;"/><polygon fill="#181818" points="185.87,597.6094,176.87,593.6094,180.87,597.6094,176.87,601.6094,185.87,597.6094" style="stroke:#181818;stroke-width:1;"/></g><!--link an2 to an3--><g class="link" data-entity-1="ent0038" data-entity-2="ent0039" data-link-type="dependency" data-source-line="51" id="lnk42"><path d="M278.25,597.6094 C289.79,597.6094 295.32,597.6094 306.86,597.6094" fill="none" id="an2-to-an3" style="stroke:#181818;stroke-width:1;"/><polygon fill="#181818" points="312.86,597.6094,303.86,593.6094,307.86,597.6094,303.86,601.6094,312.86,597.6094" style="stroke:#181818;stroke-width:1;"/></g><!--link an3 to an4--><g class="link" data-entity-1="ent0039" data-entity-2="ent0040" data-link-type="dependency" data-source-line="52" id="lnk43"><path d="M549.29,597.6094 C560.75,597.6094 566.22,597.6094 577.68,597.6094" fill="none" id="an3-to-an4" style="stroke:#181818;stroke-width:1;"/><polygon fill="#181818" points="583.68,597.6094,574.68,593.6094,578.68,597.6094,574.68,601.6094,583.68,597.6094" style="stroke:#181818;stroke-width:1;"/></g><!--link voyager-backend-core to voyager-ai-service--><!--link voyager-ai-service to voyager-web-client--><!--link voyager-web-client to voyager-android--><?plantuml-src TLF1ZjGm3BttAwozech4TcQFIAj18CGY8ItYikmXJLB6kvcuIjD68yI_ay7E04lQY_MSrzX-puaOdONzXyt-BRGmkFc9OAG0mOuqOQI0r3IHHeW4FSL8Hp0Oh8v8lcb6fP_LTmjN2vro36sV4zQRLbEmL_2ZWVmzw8FLppJ7Hr0JzFerPxy4N4xmxbworvoz9w_2tj5iu1KS5m-B3JYSXDGnwPoFTegm0Ub0phTyVXiY3af7AEqygI2C7JC-AJyh1yQEZavmKDxGC7ppTrO5RmFSgLxuDx_vkMbetrowp95X9x1Zk1MuPRWJk6Duq_oiAAQmdMnOKA_efR2cbyB_z9AyI3JY2EYdg9pBGfx5cZRzZAxGNYhrhn92uW5o1-S1IiaS6NO2EuPRWLk6k-gqoVQjTcXzh4-RodRuyGWQI-joTbrH8fMbUA54Ailm5QE5FwEdiWANqRD84RKe81osFR7jfN1Ysql5nBQNGebjB_SdjZsjsUvD83GhdlkgvxxsHju7PV8BLjDaZxspmXHDRZz_p6-adxsvd8XDdZsLAtDaA9vwzZIJS-yhZxjzEA0nrZyQIZwpQnlTLDTyzS-_jgEfhinwJP6p-GK0?></g></svg>