<?plantuml 1.2026.2?><svg xmlns="http://www.w3.org/2000/svg" xmlns:xlink="http://www.w3.org/1999/xlink" contentStyleType="text/css" data-diagram-type="ACTIVITY" height="389px" preserveAspectRatio="none" style="width:456px;height:389px;background:#FFFFFF;" version="1.1" viewBox="0 0 456 389" width="456px" zoomAndPan="magnify"><defs/><g><rect fill="none" height="22.6406" style="stroke:none;stroke-width:1;" width="423.0122" x="15" y="12.4551"/><ellipse cx="112.7061" cy="50.0957" fill="#222222" rx="10" ry="10" style="stroke:#222222;stroke-width:1;"/><rect fill="#F1F1F1" height="35.0938" rx="12.5" ry="12.5" style="stroke:#181818;stroke-width:0.5;" width="183.4121" x="21" y="80.0957"/><text fill="#000000" font-family="sans-serif" font-size="12" lengthAdjust="spacing" textLength="163.4121" x="31" y="102.5527">Sincronizar y actualizar estado</text><rect fill="#F1F1F1" height="35.0938" rx="12.5" ry="12.5" style="stroke:#181818;stroke-width:0.5;" width="174.7578" x="25.3271" y="245.377"/><text fill="#000000" font-family="sans-serif" font-size="12" lengthAdjust="spacing" textLength="154.7578" x="35.3271" y="267.834">Guardar datos de interacci&#243;n</text><line style="stroke:#000000;stroke-width:1.5;" x1="15" x2="15" y1="12.4551" y2="377.5645"/><rect fill="#F1F1F1" height="35.0938" rx="12.5" ry="12.5" style="stroke:#181818;stroke-width:0.5;" width="132.7285" x="257.0977" y="135.1895"/><text fill="#000000" font-family="sans-serif" font-size="12" lengthAdjust="spacing" textLength="112.7285" x="267.0977" y="157.6465">Reflejar coordinaci&#243;n</text><rect fill="#F1F1F1" height="35.0938" rx="12.5" ry="12.5" style="stroke:#181818;stroke-width:0.5;" width="218.0996" x="214.4121" y="190.2832"/><text fill="#000000" font-family="sans-serif" font-size="12" lengthAdjust="spacing" textLength="198.0996" x="224.4121" y="212.7402">Capturar confirmaci&#243;n de actividades</text><rect fill="#F1F1F1" height="35.0938" rx="12.5" ry="12.5" style="stroke:#181818;stroke-width:0.5;" width="151.3965" x="247.7637" y="300.4707"/><text fill="#000000" font-family="sans-serif" font-size="12" lengthAdjust="spacing" textLength="131.3965" x="257.7637" y="322.9277">Cerrar sesi&#243;n de usuario</text><ellipse cx="323.4619" cy="366.5645" fill="none" rx="11" ry="11" style="stroke:#222222;stroke-width:1;"/><ellipse cx="323.4619" cy="366.5645" fill="#222222" rx="6" ry="6" style="stroke:#222222;stroke-width:1;"/><line style="stroke:#000000;stroke-width:1.5;" x1="208.4121" x2="208.4121" y1="12.4551" y2="377.5645"/><line style="stroke:#000000;stroke-width:1.5;" x1="436.5117" x2="436.5117" y1="12.4551" y2="377.5645"/><line style="stroke:#181818;stroke-width:1;" x1="112.7061" x2="112.7061" y1="60.0957" y2="80.0957"/><polygon fill="#181818" points="108.7061,70.0957,112.7061,80.0957,116.7061,70.0957,112.7061,74.0957" style="stroke:#181818;stroke-width:1;"/><line style="stroke:#181818;stroke-width:1;" x1="323.4619" x2="323.4619" y1="170.2832" y2="190.2832"/><polygon fill="#181818" points="319.4619,180.2832,323.4619,190.2832,327.4619,180.2832,323.4619,184.2832" style="stroke:#181818;stroke-width:1;"/><line style="stroke:#181818;stroke-width:1;" x1="323.4619" x2="323.4619" y1="335.5645" y2="355.5645"/><polygon fill="#181818" points="319.4619,345.5645,323.4619,355.5645,327.4619,345.5645,323.4619,349.5645" style="stroke:#181818;stroke-width:1;"/><line style="stroke:#181818;stroke-width:1;" x1="112.7061" x2="112.7061" y1="115.1895" y2="120.1895"/><line style="stroke:#181818;stroke-width:1;" x1="112.7061" x2="323.4619" y1="120.1895" y2="120.1895"/><line style="stroke:#181818;stroke-width:1;" x1="323.4619" x2="323.4619" y1="120.1895" y2="135.1895"/><polygon fill="#181818" points="319.4619,125.1895,323.4619,135.1895,327.4619,125.1895,323.4619,129.1895" style="stroke:#181818;stroke-width:1;"/><line style="stroke:#181818;stroke-width:1;" x1="323.4619" x2="323.4619" y1="225.377" y2="230.377"/><line style="stroke:#181818;stroke-width:1;" x1="323.4619" x2="112.7061" y1="230.377" y2="230.377"/><line style="stroke:#181818;stroke-width:1;" x1="112.7061" x2="112.7061" y1="230.377" y2="245.377"/><polygon fill="#181818" points="108.7061,235.377,112.7061,245.377,116.7061,235.377,112.7061,239.377" style="stroke:#181818;stroke-width:1;"/><line style="stroke:#181818;stroke-width:1;" x1="112.7061" x2="112.7061" y1="280.4707" y2="285.4707"/><line style="stroke:#181818;stroke-width:1;" x1="112.7061" x2="323.4619" y1="285.4707" y2="285.4707"/><line style="stroke:#181818;stroke-width:1;" x1="323.4619" x2="323.4619" y1="285.4707" y2="300.4707"/><polygon fill="#181818" points="319.4619,290.4707,323.4619,300.4707,327.4619,290.4707,323.4619,294.4707" style="stroke:#181818;stroke-width:1;"/><text fill="#000000" font-family="sans-serif" font-size="18" lengthAdjust="spacing" textLength="166.043" x="28.6846" y="31.1406">Plataforma SmarTrip</text><text fill="#000000" font-family="sans-serif" font-size="18" lengthAdjust="spacing" textLength="152.0771" x="246.4233" y="31.1406">Interfaz de Usuario</text><?plantuml-src TOun3i8m34Ntd2BdICSEY0rHE82LE99H6rUEWmJAhJW25oCfiC5e_V_-SptCe11P5h3J0d8IMgl92gB6JPIySA8xYBrPy5fWtWviXS23CNMV52N2tGQqvrn0YAjnHumpNbhHCqkW19wUZpGODyAgHROWHMhIBUXmMwSh1GYO--xFjzok2KAZ0oZdJb7NW__C_tjdHEdEZFbhA--i8LbvVG40?></g></svg>