<?xml version="1.0" encoding="us-ascii" standalone="no"?><svg xmlns="http://www.w3.org/2000/svg" xmlns:xlink="http://www.w3.org/1999/xlink" contentStyleType="text/css" height="709px" preserveAspectRatio="none" style="width:4110px;height:709px;background:#FFFFFF;" version="1.1" viewBox="0 0 4110 709" width="4110px" zoomAndPan="magnify"><defs/><g><text fill="#000000" font-family="sans-serif" font-size="14" font-weight="bold" lengthAdjust="spacing" textLength="401.4375" x="1847.2813" y="24.5332">Componentes UML &#8212; Arquitectura Modular por Dominios</text><text fill="#000000" font-family="sans-serif" font-size="14" font-weight="bold" lengthAdjust="spacing" textLength="260" x="1918" y="42.1426">(Principios DDD y Clean Architecture)</text><!--cluster Authentication Domain--><g id="cluster_Authentication Domain"><path d="M439,300.2188 L598,300.2188 A3.75,3.75 0 0 1 600.5,302.7188 L607.5,323.8281 L755,323.8281 A2.5,2.5 0 0 1 757.5,326.3281 L757.5,559.7188 A2.5,2.5 0 0 1 755,562.2188 L439,562.2188 A2.5,2.5 0 0 1 436.5,559.7188 L436.5,302.7188 A2.5,2.5 0 0 1 439,300.2188 " fill="none" style="stroke:#000000;stroke-width:1.5;"/><line style="stroke:#000000;stroke-width:1.5;" x1="436.5" x2="607.5" y1="323.8281" y2="323.8281"/><text fill="#000000" font-family="sans-serif" font-size="14" font-weight="bold" lengthAdjust="spacing" textLength="158" x="440.5" y="316.752">Authentication Domain</text></g><!--cluster Payment Domain--><g id="cluster_Payment Domain"><path d="M861,300.2188 L977,300.2188 A3.75,3.75 0 0 1 979.5,302.7188 L986.5,323.8281 L1354,323.8281 A2.5,2.5 0 0 1 1356.5,326.3281 L1356.5,559.7188 A2.5,2.5 0 0 1 1354,562.2188 L861,562.2188 A2.5,2.5 0 0 1 858.5,559.7188 L858.5,302.7188 A2.5,2.5 0 0 1 861,300.2188 " fill="none" style="stroke:#000000;stroke-width:1.5;"/><line style="stroke:#000000;stroke-width:1.5;" x1="858.5" x2="986.5" y1="323.8281" y2="323.8281"/><text fill="#000000" font-family="sans-serif" font-size="14" font-weight="bold" lengthAdjust="spacing" textLength="115" x="862.5" y="316.752">Payment Domain</text></g><!--cluster User Management Domain--><g id="cluster_User Management Domain"><path d="M1383,456.2188 L1568,456.2188 A3.75,3.75 0 0 1 1570.5,458.7188 L1577.5,479.8281 L1699,479.8281 A2.5,2.5 0 0 1 1701.5,482.3281 L1701.5,699.7188 A2.5,2.5 0 0 1 1699,702.2188 L1383,702.2188 A2.5,2.5 0 0 1 1380.5,699.7188 L1380.5,458.7188 A2.5,2.5 0 0 1 1383,456.2188 " fill="none" style="stroke:#000000;stroke-width:1.5;"/><line style="stroke:#000000;stroke-width:1.5;" x1="1380.5" x2="1577.5" y1="479.8281" y2="479.8281"/><text fill="#000000" font-family="sans-serif" font-size="14" font-weight="bold" lengthAdjust="spacing" textLength="184" x="1384.5" y="472.752">User Management Domain</text></g><!--cluster Travel Planning Domain--><g id="cluster_Travel Planning Domain"><path d="M1728,300.2188 L1894,300.2188 A3.75,3.75 0 0 1 1896.5,302.7188 L1903.5,323.8281 L2066,323.8281 A2.5,2.5 0 0 1 2068.5,326.3281 L2068.5,559.7188 A2.5,2.5 0 0 1 2066,562.2188 L1728,562.2188 A2.5,2.5 0 0 1 1725.5,559.7188 L1725.5,302.7188 A2.5,2.5 0 0 1 1728,300.2188 " fill="none" style="stroke:#000000;stroke-width:1.5;"/><line style="stroke:#000000;stroke-width:1.5;" x1="1725.5" x2="1903.5" y1="323.8281" y2="323.8281"/><text fill="#000000" font-family="sans-serif" font-size="14" font-weight="bold" lengthAdjust="spacing" textLength="165" x="1729.5" y="316.752">Travel Planning Domain</text></g><!--cluster Social Domain--><g id="cluster_Social Domain"><path d="M2790,300.2188 L2889,300.2188 A3.75,3.75 0 0 1 2891.5,302.7188 L2898.5,323.8281 L3124,323.8281 A2.5,2.5 0 0 1 3126.5,326.3281 L3126.5,559.7188 A2.5,2.5 0 0 1 3124,562.2188 L2790,562.2188 A2.5,2.5 0 0 1 2787.5,559.7188 L2787.5,302.7188 A2.5,2.5 0 0 1 2790,300.2188 " fill="none" style="stroke:#000000;stroke-width:1.5;"/><line style="stroke:#000000;stroke-width:1.5;" x1="2787.5" x2="2898.5" y1="323.8281" y2="323.8281"/><text fill="#000000" font-family="sans-serif" font-size="14" font-weight="bold" lengthAdjust="spacing" textLength="98" x="2791.5" y="316.752">Social Domain</text></g><!--cluster AI Recommendation Domain--><g id="cluster_AI Recommendation Domain"><path d="M2313,89.2188 L2509,89.2188 A3.75,3.75 0 0 1 2511.5,91.7188 L2518.5,112.8281 L2761,112.8281 A2.5,2.5 0 0 1 2763.5,115.3281 L2763.5,403.7188 A2.5,2.5 0 0 1 2761,406.2188 L2313,406.2188 A2.5,2.5 0 0 1 2310.5,403.7188 L2310.5,91.7188 A2.5,2.5 0 0 1 2313,89.2188 " fill="none" style="stroke:#000000;stroke-width:1.5;"/><line style="stroke:#000000;stroke-width:1.5;" x1="2310.5" x2="2518.5" y1="112.8281" y2="112.8281"/><text fill="#000000" font-family="sans-serif" font-size="14" font-weight="bold" lengthAdjust="spacing" textLength="195" x="2314.5" y="105.752">AI Recommendation Domain</text></g><!--entity i_auth--><g id="elem_i_auth"><ellipse cx="685.5" cy="516.2188" fill="#F1F1F1" rx="8" ry="8" style="stroke:#181818;stroke-width:0.5;"/><text fill="#000000" font-family="sans-serif" font-size="14" lengthAdjust="spacing" textLength="79" x="646" y="547.752">IAuthService</text></g><!--entity auth_service--><g id="elem_auth_service"><rect fill="#F1F1F1" height="47.6094" rx="2.5" ry="2.5" style="stroke:#181818;stroke-width:0.5;" width="116" x="625.5" y="336.2188"/><rect fill="#F1F1F1" height="10" style="stroke:#181818;stroke-width:0.5;" width="15" x="721.5" y="341.2188"/><rect fill="#F1F1F1" height="2" style="stroke:#181818;stroke-width:0.5;" width="4" x="719.5" y="343.2188"/><rect fill="#F1F1F1" height="2" style="stroke:#181818;stroke-width:0.5;" width="4" x="719.5" y="347.2188"/><text fill="#000000" font-family="sans-serif" font-size="14" lengthAdjust="spacing" textLength="76" x="640.5" y="370.752">AuthService</text></g><!--entity i_auth_repo--><g id="elem_i_auth_repo"><ellipse cx="532.5" cy="516.2188" fill="#F1F1F1" rx="8" ry="8" style="stroke:#181818;stroke-width:0.5;"/><text fill="#000000" font-family="sans-serif" font-size="14" lengthAdjust="spacing" textLength="100" x="482.5" y="547.752">IAuthRepository</text></g><!--entity auth_repo--><g id="elem_auth_repo"><rect fill="#F1F1F1" height="47.6094" rx="2.5" ry="2.5" style="stroke:#181818;stroke-width:0.5;" width="137" x="453" y="336.2188"/><rect fill="#F1F1F1" height="10" style="stroke:#181818;stroke-width:0.5;" width="15" x="570" y="341.2188"/><rect fill="#F1F1F1" height="2" style="stroke:#181818;stroke-width:0.5;" width="4" x="568" y="343.2188"/><rect fill="#F1F1F1" height="2" style="stroke:#181818;stroke-width:0.5;" width="4" x="568" y="347.2188"/><text fill="#000000" font-family="sans-serif" font-size="14" lengthAdjust="spacing" textLength="97" x="468" y="370.752">AuthRepository</text></g><!--entity i_payment--><g id="elem_i_payment"><ellipse cx="1269.5" cy="516.2188" fill="#F1F1F1" rx="8" ry="8" style="stroke:#181818;stroke-width:0.5;"/><text fill="#000000" font-family="sans-serif" font-size="14" lengthAdjust="spacing" textLength="105" x="1217" y="547.752">IPaymentService</text></g><!--entity payment_service--><g id="elem_payment_service"><rect fill="#F1F1F1" height="47.6094" rx="2.5" ry="2.5" style="stroke:#181818;stroke-width:0.5;" width="142" x="1198.5" y="336.2188"/><rect fill="#F1F1F1" height="10" style="stroke:#181818;stroke-width:0.5;" width="15" x="1320.5" y="341.2188"/><rect fill="#F1F1F1" height="2" style="stroke:#181818;stroke-width:0.5;" width="4" x="1318.5" y="343.2188"/><rect fill="#F1F1F1" height="2" style="stroke:#181818;stroke-width:0.5;" width="4" x="1318.5" y="347.2188"/><text fill="#000000" font-family="sans-serif" font-size="14" lengthAdjust="spacing" textLength="102" x="1213.5" y="370.752">PaymentService</text></g><!--entity i_payment_gateway--><g id="elem_i_payment_gateway"><ellipse cx="1097.5" cy="516.2188" fill="#F1F1F1" rx="8" ry="8" style="stroke:#181818;stroke-width:0.5;"/><text fill="#000000" font-family="sans-serif" font-size="14" lengthAdjust="spacing" textLength="113" x="1041" y="547.752">IPaymentGateway</text></g><!--entity nequi_gateway--><g id="elem_nequi_gateway"><rect fill="#F1F1F1" height="47.6094" rx="2.5" ry="2.5" style="stroke:#181818;stroke-width:0.5;" width="131" x="1032" y="336.2188"/><rect fill="#F1F1F1" height="10" style="stroke:#181818;stroke-width:0.5;" width="15" x="1143" y="341.2188"/><rect fill="#F1F1F1" height="2" style="stroke:#181818;stroke-width:0.5;" width="4" x="1141" y="343.2188"/><rect fill="#F1F1F1" height="2" style="stroke:#181818;stroke-width:0.5;" width="4" x="1141" y="347.2188"/><text fill="#000000" font-family="sans-serif" font-size="14" lengthAdjust="spacing" textLength="91" x="1047" y="370.752">NequiGateway</text></g><!--entity pse_gateway--><g id="elem_pse_gateway"><rect fill="#F1F1F1" height="47.6094" rx="2.5" ry="2.5" style="stroke:#181818;stroke-width:0.5;" width="122" x="874.5" y="336.2188"/><rect fill="#F1F1F1" height="10" style="stroke:#181818;stroke-width:0.5;" width="15" x="976.5" y="341.2188"/><rect fill="#F1F1F1" height="2" style="stroke:#181818;stroke-width:0.5;" width="4" x="974.5" y="343.2188"/><rect fill="#F1F1F1" height="2" style="stroke:#181818;stroke-width:0.5;" width="4" x="974.5" y="347.2188"/><text fill="#000000" font-family="sans-serif" font-size="14" lengthAdjust="spacing" textLength="82" x="889.5" y="370.752">PSEGateway</text></g><!--entity i_user--><g id="elem_i_user"><ellipse cx="1627.5" cy="656.2188" fill="#F1F1F1" rx="8" ry="8" style="stroke:#181818;stroke-width:0.5;"/><text fill="#000000" font-family="sans-serif" font-size="14" lengthAdjust="spacing" textLength="79" x="1588" y="687.752">IUserService</text></g><!--entity user_service--><g id="elem_user_service"><rect fill="#F1F1F1" height="47.6094" rx="2.5" ry="2.5" style="stroke:#181818;stroke-width:0.5;" width="116" x="1569.5" y="492.2188"/><rect fill="#F1F1F1" height="10" style="stroke:#181818;stroke-width:0.5;" width="15" x="1665.5" y="497.2188"/><rect fill="#F1F1F1" height="2" style="stroke:#181818;stroke-width:0.5;" width="4" x="1663.5" y="499.2188"/><rect fill="#F1F1F1" height="2" style="stroke:#181818;stroke-width:0.5;" width="4" x="1663.5" y="503.2188"/><text fill="#000000" font-family="sans-serif" font-size="14" lengthAdjust="spacing" textLength="76" x="1584.5" y="526.752">UserService</text></g><!--entity i_user_repo--><g id="elem_i_user_repo"><ellipse cx="1476.5" cy="656.2188" fill="#F1F1F1" rx="8" ry="8" style="stroke:#181818;stroke-width:0.5;"/><text fill="#000000" font-family="sans-serif" font-size="14" lengthAdjust="spacing" textLength="100" x="1426.5" y="687.752">IUserRepository</text></g><!--entity user_repo--><g id="elem_user_repo"><rect fill="#F1F1F1" height="47.6094" rx="2.5" ry="2.5" style="stroke:#181818;stroke-width:0.5;" width="137" x="1397" y="492.2188"/><rect fill="#F1F1F1" height="10" style="stroke:#181818;stroke-width:0.5;" width="15" x="1514" y="497.2188"/><rect fill="#F1F1F1" height="2" style="stroke:#181818;stroke-width:0.5;" width="4" x="1512" y="499.2188"/><rect fill="#F1F1F1" height="2" style="stroke:#181818;stroke-width:0.5;" width="4" x="1512" y="503.2188"/><text fill="#000000" font-family="sans-serif" font-size="14" lengthAdjust="spacing" textLength="97" x="1412" y="526.752">UserRepository</text></g><!--entity i_travel--><g id="elem_i_travel"><ellipse cx="1966.5" cy="516.2188" fill="#F1F1F1" rx="8" ry="8" style="stroke:#181818;stroke-width:0.5;"/><text fill="#000000" font-family="sans-serif" font-size="14" lengthAdjust="spacing" textLength="90" x="1921.5" y="547.752">ITravelService</text></g><!--entity travel_service--><g id="elem_travel_service"><rect fill="#F1F1F1" height="47.6094" rx="2.5" ry="2.5" style="stroke:#181818;stroke-width:0.5;" width="127" x="1925" y="336.2188"/><rect fill="#F1F1F1" height="10" style="stroke:#181818;stroke-width:0.5;" width="15" x="2032" y="341.2188"/><rect fill="#F1F1F1" height="2" style="stroke:#181818;stroke-width:0.5;" width="4" x="2030" y="343.2188"/><rect fill="#F1F1F1" height="2" style="stroke:#181818;stroke-width:0.5;" width="4" x="2030" y="347.2188"/><text fill="#000000" font-family="sans-serif" font-size="14" lengthAdjust="spacing" textLength="87" x="1940" y="370.752">TravelService</text></g><!--entity i_travel_repo--><g id="elem_i_travel_repo"><ellipse cx="1815.5" cy="516.2188" fill="#F1F1F1" rx="8" ry="8" style="stroke:#181818;stroke-width:0.5;"/><text fill="#000000" font-family="sans-serif" font-size="14" lengthAdjust="spacing" textLength="111" x="1760" y="547.752">ITravelRepository</text></g><!--entity travel_repo--><g id="elem_travel_repo"><rect fill="#F1F1F1" height="47.6094" rx="2.5" ry="2.5" style="stroke:#181818;stroke-width:0.5;" width="148" x="1741.5" y="336.2188"/><rect fill="#F1F1F1" height="10" style="stroke:#181818;stroke-width:0.5;" width="15" x="1869.5" y="341.2188"/><rect fill="#F1F1F1" height="2" style="stroke:#181818;stroke-width:0.5;" width="4" x="1867.5" y="343.2188"/><rect fill="#F1F1F1" height="2" style="stroke:#181818;stroke-width:0.5;" width="4" x="1867.5" y="347.2188"/><text fill="#000000" font-family="sans-serif" font-size="14" lengthAdjust="spacing" textLength="108" x="1756.5" y="370.752">TravelRepository</text></g><!--entity i_social--><g id="elem_i_social"><ellipse cx="3052.5" cy="516.2188" fill="#F1F1F1" rx="8" ry="8" style="stroke:#181818;stroke-width:0.5;"/><text fill="#000000" font-family="sans-serif" font-size="14" lengthAdjust="spacing" textLength="88" x="3008.5" y="547.752">ISocialService</text></g><!--entity social_service--><g id="elem_social_service"><rect fill="#F1F1F1" height="47.6094" rx="2.5" ry="2.5" style="stroke:#181818;stroke-width:0.5;" width="125" x="2985" y="336.2188"/><rect fill="#F1F1F1" height="10" style="stroke:#181818;stroke-width:0.5;" width="15" x="3090" y="341.2188"/><rect fill="#F1F1F1" height="2" style="stroke:#181818;stroke-width:0.5;" width="4" x="3088" y="343.2188"/><rect fill="#F1F1F1" height="2" style="stroke:#181818;stroke-width:0.5;" width="4" x="3088" y="347.2188"/><text fill="#000000" font-family="sans-serif" font-size="14" lengthAdjust="spacing" textLength="85" x="3000" y="370.752">SocialService</text></g><!--entity i_social_repo--><g id="elem_i_social_repo"><ellipse cx="2890.5" cy="516.2188" fill="#F1F1F1" rx="8" ry="8" style="stroke:#181818;stroke-width:0.5;"/><text fill="#000000" font-family="sans-serif" font-size="14" lengthAdjust="spacing" textLength="109" x="2836" y="547.752">ISocialRepository</text></g><!--entity social_repo--><g id="elem_social_repo"><rect fill="#F1F1F1" height="47.6094" rx="2.5" ry="2.5" style="stroke:#181818;stroke-width:0.5;" width="146" x="2803.5" y="336.2188"/><rect fill="#F1F1F1" height="10" style="stroke:#181818;stroke-width:0.5;" width="15" x="2929.5" y="341.2188"/><rect fill="#F1F1F1" height="2" style="stroke:#181818;stroke-width:0.5;" width="4" x="2927.5" y="343.2188"/><rect fill="#F1F1F1" height="2" style="stroke:#181818;stroke-width:0.5;" width="4" x="2927.5" y="347.2188"/><text fill="#000000" font-family="sans-serif" font-size="14" lengthAdjust="spacing" textLength="106" x="2818.5" y="370.752">SocialRepository</text></g><!--entity i_recommendation--><g id="elem_i_recommendation"><ellipse cx="2425.5" cy="360.2188" fill="#F1F1F1" rx="8" ry="8" style="stroke:#181818;stroke-width:0.5;"/><text fill="#000000" font-family="sans-serif" font-size="14" lengthAdjust="spacing" textLength="160" x="2345.5" y="391.752">IRecommendationService</text></g><!--entity recommendation_service--><g id="elem_recommendation_service"><rect fill="#F1F1F1" height="47.6094" rx="2.5" ry="2.5" style="stroke:#181818;stroke-width:0.5;" width="197" x="2327" y="125.2188"/><rect fill="#F1F1F1" height="10" style="stroke:#181818;stroke-width:0.5;" width="15" x="2504" y="130.2188"/><rect fill="#F1F1F1" height="2" style="stroke:#181818;stroke-width:0.5;" width="4" x="2502" y="132.2188"/><rect fill="#F1F1F1" height="2" style="stroke:#181818;stroke-width:0.5;" width="4" x="2502" y="136.2188"/><text fill="#000000" font-family="sans-serif" font-size="14" lengthAdjust="spacing" textLength="157" x="2342" y="159.752">RecommendationService</text></g><!--entity i_content--><g id="elem_i_content"><ellipse cx="2637.5" cy="360.2188" fill="#F1F1F1" rx="8" ry="8" style="stroke:#181818;stroke-width:0.5;"/><text fill="#000000" font-family="sans-serif" font-size="14" lengthAdjust="spacing" textLength="151" x="2562" y="391.752">IExternalContentService</text></g><!--entity content_service--><g id="elem_content_service"><rect fill="#F1F1F1" height="47.6094" rx="2.5" ry="2.5" style="stroke:#181818;stroke-width:0.5;" width="188" x="2559.5" y="125.2188"/><rect fill="#F1F1F1" height="10" style="stroke:#181818;stroke-width:0.5;" width="15" x="2727.5" y="130.2188"/><rect fill="#F1F1F1" height="2" style="stroke:#181818;stroke-width:0.5;" width="4" x="2725.5" y="132.2188"/><rect fill="#F1F1F1" height="2" style="stroke:#181818;stroke-width:0.5;" width="4" x="2725.5" y="136.2188"/><text fill="#000000" font-family="sans-serif" font-size="14" lengthAdjust="spacing" textLength="148" x="2574.5" y="159.752">ExternalContentService</text></g><!--entity i_oauth--><g id="elem_i_oauth"><ellipse cx="319.5" cy="516.2188" fill="#F1F1F1" rx="8" ry="8" style="stroke:#181818;stroke-width:0.5;"/><text fill="#000000" font-family="sans-serif" font-size="14" lengthAdjust="spacing" textLength="96" x="271.5" y="547.752">IOAuthProvider</text></g><!--entity i_content_provider--><g id="elem_i_content_provider"><ellipse cx="3425.5" cy="360.2188" fill="#F1F1F1" rx="8" ry="8" style="stroke:#181818;stroke-width:0.5;"/><text fill="#000000" font-family="sans-serif" font-size="14" lengthAdjust="spacing" textLength="106" x="3372.5" y="391.752">IContentProvider</text></g><!--entity i_messaging--><g id="elem_i_messaging"><ellipse cx="3223.5" cy="516.2188" fill="#F1F1F1" rx="8" ry="8" style="stroke:#181818;stroke-width:0.5;"/><text fill="#000000" font-family="sans-serif" font-size="14" lengthAdjust="spacing" textLength="118" x="3164.5" y="547.752">IMessagingService</text></g><!--entity i_storage--><g id="elem_i_storage"><ellipse cx="2206.5" cy="516.2188" fill="#F1F1F1" rx="8" ry="8" style="stroke:#181818;stroke-width:0.5;"/><text fill="#000000" font-family="sans-serif" font-size="14" lengthAdjust="spacing" textLength="100" x="2156.5" y="547.752">IStorageService</text></g><!--entity google_oauth--><g id="elem_google_oauth"><rect fill="#F1F1F1" height="47.6094" rx="2.5" ry="2.5" style="stroke:#181818;stroke-width:0.5;" width="179" x="7" y="336.2188"/><rect fill="#F1F1F1" height="10" style="stroke:#181818;stroke-width:0.5;" width="15" x="166" y="341.2188"/><rect fill="#F1F1F1" height="2" style="stroke:#181818;stroke-width:0.5;" width="4" x="164" y="343.2188"/><rect fill="#F1F1F1" height="2" style="stroke:#181818;stroke-width:0.5;" width="4" x="164" y="347.2188"/><text fill="#000000" font-family="sans-serif" font-size="14" lengthAdjust="spacing" textLength="139" x="22" y="370.752">GoogleOAuthProvider</text></g><!--entity facebook_oauth--><g id="elem_facebook_oauth"><rect fill="#F1F1F1" height="47.6094" rx="2.5" ry="2.5" style="stroke:#181818;stroke-width:0.5;" width="196" x="221.5" y="336.2188"/><rect fill="#F1F1F1" height="10" style="stroke:#181818;stroke-width:0.5;" width="15" x="397.5" y="341.2188"/><rect fill="#F1F1F1" height="2" style="stroke:#181818;stroke-width:0.5;" width="4" x="395.5" y="343.2188"/><rect fill="#F1F1F1" height="2" style="stroke:#181818;stroke-width:0.5;" width="4" x="395.5" y="347.2188"/><text fill="#000000" font-family="sans-serif" font-size="14" lengthAdjust="spacing" textLength="156" x="236.5" y="370.752">FacebookOAuthProvider</text></g><!--entity amadeus_content--><g id="elem_amadeus_content"><rect fill="#F1F1F1" height="47.6094" rx="2.5" ry="2.5" style="stroke:#181818;stroke-width:0.5;" width="202" x="3324.5" y="125.2188"/><rect fill="#F1F1F1" height="10" style="stroke:#181818;stroke-width:0.5;" width="15" x="3506.5" y="130.2188"/><rect fill="#F1F1F1" height="2" style="stroke:#181818;stroke-width:0.5;" width="4" x="3504.5" y="132.2188"/><rect fill="#F1F1F1" height="2" style="stroke:#181818;stroke-width:0.5;" width="4" x="3504.5" y="136.2188"/><text fill="#000000" font-family="sans-serif" font-size="14" lengthAdjust="spacing" textLength="162" x="3339.5" y="159.752">AmadeusContentProvider</text></g><!--entity weather_content--><g id="elem_weather_content"><rect fill="#F1F1F1" height="47.6094" rx="2.5" ry="2.5" style="stroke:#181818;stroke-width:0.5;" width="197" x="3562" y="125.2188"/><rect fill="#F1F1F1" height="10" style="stroke:#181818;stroke-width:0.5;" width="15" x="3739" y="130.2188"/><rect fill="#F1F1F1" height="2" style="stroke:#181818;stroke-width:0.5;" width="4" x="3737" y="132.2188"/><rect fill="#F1F1F1" height="2" style="stroke:#181818;stroke-width:0.5;" width="4" x="3737" y="136.2188"/><text fill="#000000" font-family="sans-serif" font-size="14" lengthAdjust="spacing" textLength="157" x="3577" y="159.752">WeatherContentProvider</text></g><!--entity maps_content--><g id="elem_maps_content"><rect fill="#F1F1F1" height="47.6094" rx="2.5" ry="2.5" style="stroke:#181818;stroke-width:0.5;" width="177" x="3112" y="125.2188"/><rect fill="#F1F1F1" height="10" style="stroke:#181818;stroke-width:0.5;" width="15" x="3269" y="130.2188"/><rect fill="#F1F1F1" height="2" style="stroke:#181818;stroke-width:0.5;" width="4" x="3267" y="132.2188"/><rect fill="#F1F1F1" height="2" style="stroke:#181818;stroke-width:0.5;" width="4" x="3267" y="136.2188"/><text fill="#000000" font-family="sans-serif" font-size="14" lengthAdjust="spacing" textLength="137" x="3127" y="159.752">MapsContentProvider</text></g><!--entity sqs_messaging--><g id="elem_sqs_messaging"><rect fill="#F1F1F1" height="47.6094" rx="2.5" ry="2.5" style="stroke:#181818;stroke-width:0.5;" width="184" x="3145.5" y="336.2188"/><rect fill="#F1F1F1" height="10" style="stroke:#181818;stroke-width:0.5;" width="15" x="3309.5" y="341.2188"/><rect fill="#F1F1F1" height="2" style="stroke:#181818;stroke-width:0.5;" width="4" x="3307.5" y="343.2188"/><rect fill="#F1F1F1" height="2" style="stroke:#181818;stroke-width:0.5;" width="4" x="3307.5" y="347.2188"/><text fill="#000000" font-family="sans-serif" font-size="14" lengthAdjust="spacing" textLength="144" x="3160.5" y="370.752">SQSMessagingService</text></g><!--entity s3_storage--><g id="elem_s3_storage"><rect fill="#F1F1F1" height="47.6094" rx="2.5" ry="2.5" style="stroke:#181818;stroke-width:0.5;" width="154" x="2140.5" y="336.2188"/><rect fill="#F1F1F1" height="10" style="stroke:#181818;stroke-width:0.5;" width="15" x="2274.5" y="341.2188"/><rect fill="#F1F1F1" height="2" style="stroke:#181818;stroke-width:0.5;" width="4" x="2272.5" y="343.2188"/><rect fill="#F1F1F1" height="2" style="stroke:#181818;stroke-width:0.5;" width="4" x="2272.5" y="347.2188"/><text fill="#000000" font-family="sans-serif" font-size="14" lengthAdjust="spacing" textLength="114" x="2155.5" y="370.752">S3StorageService</text></g><g id="elem_TopNote"><path d="M3794,62.2188 L3794,235.7344 L4103,235.7344 L4103,72.2188 L4093,62.2188 L3794,62.2188 " fill="#FEFFDD" style="stroke:#181818;stroke-width:0.5;"/><path d="M4093,62.2188 L4093,72.2188 L4103,72.2188 L4093,62.2188 " fill="#FEFFDD" style="stroke:#181818;stroke-width:1.0;"/><text fill="#000000" font-family="sans-serif" font-size="13" font-weight="bold" lengthAdjust="spacing" textLength="288" x="3800" y="80.7139">Arquitectura de Componentes UML Corregida</text><text fill="#000000" font-family="sans-serif" font-size="13" lengthAdjust="spacing" textLength="4" x="3800" y="97.0654">&#160;</text><text fill="#000000" font-family="sans-serif" font-size="13" lengthAdjust="spacing" textLength="120" x="3800" y="113.417">Principios aplicados:</text><text fill="#000000" font-family="sans-serif" font-size="13" lengthAdjust="spacing" textLength="175" x="3800" y="129.7686">&#8226; Domain-Driven Design (DDD)</text><text fill="#000000" font-family="sans-serif" font-size="13" lengthAdjust="spacing" textLength="189" x="3800" y="146.1201">&#8226; Dependency Inversion Principle</text><text fill="#000000" font-family="sans-serif" font-size="13" lengthAdjust="spacing" textLength="159" x="3800" y="162.4717">&#8226; Interfaces como contratos</text><text fill="#000000" font-family="sans-serif" font-size="13" lengthAdjust="spacing" textLength="201" x="3800" y="178.8232">&#8226; Alta cohesi&#243;n, bajo acoplamiento</text><text fill="#000000" font-family="sans-serif" font-size="13" lengthAdjust="spacing" textLength="4" x="3800" y="195.1748">&#160;</text><text fill="#000000" font-family="sans-serif" font-size="13" lengthAdjust="spacing" textLength="191" x="3800" y="211.5264">Packages por bounded contexts,</text><text fill="#000000" font-family="sans-serif" font-size="13" lengthAdjust="spacing" textLength="103" x="3800" y="227.8779">no por tecnolog&#237;a.</text></g><!--link auth_service to i_auth--><g id="link_auth_service_i_auth"><path d="M683.8,384.2788 C684.25,419.3488 684.8623,466.4303 685.1623,489.1503 " fill="none" id="auth_service-to-i_auth" style="stroke:#181818;stroke-width:1.0;stroke-dasharray:7.0,7.0;"/><polygon fill="none" points="685.4,507.1488,691.1618,489.0711,679.1629,489.2295,685.4,507.1488" style="stroke:#181818;stroke-width:1.0;"/></g><!--link auth_repo to i_auth_repo--><g id="link_auth_repo_i_auth_repo"><path d="M521.96,384.3988 C522.38,400.1588 523.15,421.4688 524.5,440.2188 C526.25,464.5087 527.4171,475.2416 529.1671,489.0516 " fill="none" id="auth_repo-to-i_auth_repo" style="stroke:#181818;stroke-width:1.0;stroke-dasharray:7.0,7.0;"/><polygon fill="none" points="531.43,506.9088,535.1195,488.2973,523.2147,489.8058,531.43,506.9088" style="stroke:#181818;stroke-width:1.0;"/></g><!--link auth_service to i_auth_repo--><g id="link_auth_service_i_auth_repo"><path d="M656.76,384.3788 C642.93,395.1188 625.26,407.0788 607.5,414.2188 C586.21,422.7788 573.49,406.7988 556.5,422.2188 C531.8,444.6288 530.7707,482.7953 531.6207,501.0353 " fill="none" id="auth_service-to-i_auth_repo" style="stroke:#181818;stroke-width:1.0;"/><polygon fill="#181818" points="531.9,507.0288,535.4767,497.8523,531.6672,502.0342,527.4854,498.2247,531.9,507.0288" style="stroke:#181818;stroke-width:1.0;"/><text fill="#000000" font-family="sans-serif" font-size="13" lengthAdjust="spacing" textLength="117" x="557.5" y="436.7139">validates credentials</text></g><!--link payment_service to i_payment--><g id="link_payment_service_i_payment"><path d="M1269.5,384.2788 C1269.5,419.3488 1269.5,466.4288 1269.5,489.1488 " fill="none" id="payment_service-to-i_payment" style="stroke:#181818;stroke-width:1.0;stroke-dasharray:7.0,7.0;"/><polygon fill="none" points="1269.5,507.1488,1275.5,489.1488,1263.5,489.1488,1269.5,507.1488" style="stroke:#181818;stroke-width:1.0;"/></g><!--link nequi_gateway to i_payment_gateway--><g id="link_nequi_gateway_i_payment_gateway"><path d="M1097.5,384.2788 C1097.5,419.3488 1097.5,466.4288 1097.5,489.1488 " fill="none" id="nequi_gateway-to-i_payment_gateway" style="stroke:#181818;stroke-width:1.0;stroke-dasharray:7.0,7.0;"/><polygon fill="none" points="1097.5,507.1488,1103.5,489.1488,1091.5,489.1488,1097.5,507.1488" style="stroke:#181818;stroke-width:1.0;"/></g><!--link pse_gateway to i_payment_gateway--><g id="link_pse_gateway_i_payment_gateway"><path d="M959.75,384.2788 C996.65,419.3488 1052.0641,472.027 1075.9641,494.747 " fill="none" id="pse_gateway-to-i_payment_gateway" style="stroke:#181818;stroke-width:1.0;stroke-dasharray:7.0,7.0;"/><polygon fill="none" points="1089.01,507.1488,1080.098,490.3983,1071.8302,499.0956,1089.01,507.1488" style="stroke:#181818;stroke-width:1.0;"/></g><!--link payment_service to i_payment_gateway--><g id="link_payment_service_i_payment_gateway"><path d="M1236.14,384.4788 C1219.96,394.8588 1199.87,406.4588 1180.5,414.2188 C1165.69,420.1488 1158.11,412.4388 1145.5,422.2188 C1116.78,444.4888 1105.0373,482.8837 1100.6573,501.1737 " fill="none" id="payment_service-to-i_payment_gateway" style="stroke:#181818;stroke-width:1.0;"/><polygon fill="#181818" points="1099.26,507.0087,1105.246,499.1878,1100.4245,502.1462,1097.466,497.3247,1099.26,507.0087" style="stroke:#181818;stroke-width:1.0;"/><text fill="#000000" font-family="sans-serif" font-size="13" lengthAdjust="spacing" textLength="114" x="1146.5" y="436.7139">processes payment</text></g><!--link user_service to i_user--><g id="link_user_service_i_user"><path d="M1627.5,540.3188 C1627.5,571.7788 1627.5,608.5288 1627.5,629.0988 " fill="none" id="user_service-to-i_user" style="stroke:#181818;stroke-width:1.0;stroke-dasharray:7.0,7.0;"/><polygon fill="none" points="1627.5,647.0988,1633.5,629.0988,1621.5,629.0988,1627.5,647.0988" style="stroke:#181818;stroke-width:1.0;"/></g><!--link user_repo to i_user_repo--><g id="link_user_repo_i_user_repo"><path d="M1466.73,540.3988 C1467.63,556.1488 1468.95,577.4588 1470.5,596.2188 C1472.01,614.4788 1472.3167,617.9806 1473.5867,629.3206 " fill="none" id="user_repo-to-i_user_repo" style="stroke:#181818;stroke-width:1.0;stroke-dasharray:7.0,7.0;"/><polygon fill="none" points="1475.59,647.2088,1479.5494,628.6528,1467.6239,629.9884,1475.59,647.2088" style="stroke:#181818;stroke-width:1.0;"/></g><!--link user_service to i_user_repo--><g id="link_user_service_i_user_repo"><path d="M1600.7,540.2188 C1586.85,550.9288 1569.19,562.8988 1551.5,570.2188 C1532.73,577.9888 1522.2,565.3288 1506.5,578.2188 C1484.99,595.8888 1479.4888,625.0329 1477.7788,641.0029 " fill="none" id="user_service-to-i_user_repo" style="stroke:#181818;stroke-width:1.0;"/><polygon fill="#181818" points="1477.14,646.9688,1482.0755,638.4458,1477.6723,641.9972,1474.1209,637.594,1477.14,646.9688" style="stroke:#181818;stroke-width:1.0;"/><text fill="#000000" font-family="sans-serif" font-size="13" lengthAdjust="spacing" textLength="111" x="1507.5" y="592.7139">manages user data</text></g><!--link travel_service to i_travel--><g id="link_travel_service_i_travel"><path d="M1977.98,384.4488 C1973.48,395.6288 1968.75,409.3588 1966.5,422.2188 C1961.11,453.0688 1962.0729,472.6607 1963.7329,489.0207 " fill="none" id="travel_service-to-i_travel" style="stroke:#181818;stroke-width:1.0;stroke-dasharray:7.0,7.0;"/><polygon fill="none" points="1965.55,506.9288,1969.7023,488.415,1957.7636,489.6264,1965.55,506.9288" style="stroke:#181818;stroke-width:1.0;"/></g><!--link travel_repo to i_travel_repo--><g id="link_travel_repo_i_travel_repo"><path d="M1815.5,384.2788 C1815.5,419.3488 1815.5,466.4288 1815.5,489.1488 " fill="none" id="travel_repo-to-i_travel_repo" style="stroke:#181818;stroke-width:1.0;stroke-dasharray:7.0,7.0;"/><polygon fill="none" points="1815.5,507.1488,1821.5,489.1488,1809.5,489.1488,1815.5,507.1488" style="stroke:#181818;stroke-width:1.0;"/></g><!--link travel_service to i_travel_repo--><g id="link_travel_service_i_travel_repo"><path d="M1959.76,384.3088 C1944.97,395.0488 1926.15,407.0088 1907.5,414.2188 C1886.51,422.3388 1875.38,408.5488 1857.5,422.2188 C1829.21,443.8388 1820.3808,482.9114 1817.5008,501.2514 " fill="none" id="travel_service-to-i_travel_repo" style="stroke:#181818;stroke-width:1.0;"/><polygon fill="#181818" points="1816.57,507.1788,1821.9178,498.9082,1817.3457,502.2393,1814.0146,497.6672,1816.57,507.1788" style="stroke:#181818;stroke-width:1.0;"/><text fill="#000000" font-family="sans-serif" font-size="13" lengthAdjust="spacing" textLength="96" x="1858.5" y="436.7139">coordinates trips</text></g><!--link social_service to i_social--><g id="link_social_service_i_social"><path d="M3048.25,384.2788 C3049.39,419.3488 3050.914,466.4383 3051.654,489.1583 " fill="none" id="social_service-to-i_social" style="stroke:#181818;stroke-width:1.0;stroke-dasharray:7.0,7.0;"/><polygon fill="none" points="3052.24,507.1488,3057.6509,488.963,3045.6572,489.3536,3052.24,507.1488" style="stroke:#181818;stroke-width:1.0;"/></g><!--link social_repo to i_social_repo--><g id="link_social_repo_i_social_repo"><path d="M2877.62,384.4088 C2878.47,400.1588 2879.78,421.4688 2881.5,440.2188 C2883.72,464.5087 2885.042,475.2633 2886.922,489.0733 " fill="none" id="social_repo-to-i_social_repo" style="stroke:#181818;stroke-width:1.0;stroke-dasharray:7.0,7.0;"/><polygon fill="none" points="2889.35,506.9088,2892.8672,488.2639,2880.9768,489.8826,2889.35,506.9088" style="stroke:#181818;stroke-width:1.0;"/></g><!--link social_service to i_social_repo--><g id="link_social_service_i_social_repo"><path d="M3019.2,384.4288 C3004.61,395.1988 2986.02,407.1488 2967.5,414.2188 C2944.42,423.0288 2930.72,405.5388 2912.5,422.2188 C2888.03,444.6288 2887.9402,482.8042 2889.2502,501.0442 " fill="none" id="social_service-to-i_social_repo" style="stroke:#181818;stroke-width:1.0;"/><polygon fill="#181818" points="2889.68,507.0288,2893.025,497.7653,2889.3218,502.0416,2885.0456,498.3384,2889.68,507.0288" style="stroke:#181818;stroke-width:1.0;"/><text fill="#000000" font-family="sans-serif" font-size="13" lengthAdjust="spacing" textLength="127" x="2913.5" y="436.7139">manages connections</text></g><!--link recommendation_service to i_recommendation--><g id="link_recommendation_service_i_recommendation"><path d="M2425.5,173.3887 C2425.5,219.7188 2425.5,303.8988 2425.5,333.2088 " fill="none" id="recommendation_service-to-i_recommendation" style="stroke:#181818;stroke-width:1.0;stroke-dasharray:7.0,7.0;"/><polygon fill="none" points="2425.5,351.2088,2431.5,333.2088,2419.5,333.2088,2425.5,351.2088" style="stroke:#181818;stroke-width:1.0;"/></g><!--link content_service to i_content--><g id="link_content_service_i_content"><path d="M2651.73,173.3887 C2648.18,219.7188 2641.7377,303.9516 2639.4877,333.2616 " fill="none" id="content_service-to-i_content" style="stroke:#181818;stroke-width:1.0;stroke-dasharray:7.0,7.0;"/><polygon fill="none" points="2638.11,351.2088,2645.4701,333.7208,2633.5053,332.8023,2638.11,351.2088" style="stroke:#181818;stroke-width:1.0;"/></g><!--link recommendation_service to i_content--><g id="link_recommendation_service_i_content"><path d="M2427.51,173.2687 C2431.47,203.7587 2443.18,256.8088 2477.5,284.2188 C2496.46,299.3588 2508.75,283.7788 2531.5,292.2188 C2570.69,306.7588 2606.0665,333.3913 2623.6365,347.6913 " fill="none" id="recommendation_service-to-i_content" style="stroke:#181818;stroke-width:1.0;"/><polygon fill="#181818" points="2628.29,351.4788,2623.8347,342.6952,2624.4121,348.3225,2618.7848,348.8999,2628.29,351.4788" style="stroke:#181818;stroke-width:1.0;"/><text fill="#000000" font-family="sans-serif" font-size="13" lengthAdjust="spacing" textLength="156" x="2478.5" y="280.7139">enriches recommendations</text></g><!--link auth_service to user_service--><g id="link_auth_service_user_service"><path d="M693.5,384.2788 C703.06,403.1388 719.45,428.5188 742.5,440.2188 C782.58,460.5588 1509.53,432.1288 1551.5,448.2188 C1574.66,457.0988 1591.3722,472.0357 1605.3022,487.6957 " fill="none" id="auth_service-to-user_service" style="stroke:#181818;stroke-width:1.0;"/><polygon fill="#181818" points="1609.29,492.1788,1606.297,482.7957,1605.9668,488.4429,1600.3196,488.1127,1609.29,492.1788" style="stroke:#181818;stroke-width:1.0;"/><text fill="#000000" font-family="sans-serif" font-size="13" lengthAdjust="spacing" textLength="114" x="743.5" y="436.7139">authenticates users</text></g><!--link payment_service to user_service--><g id="link_payment_service_user_service"><path d="M1316.77,384.2488 C1356.54,402.5488 1415.43,427.1688 1469.5,440.2188 C1505.1,448.8088 1517.92,433.6288 1551.5,448.2188 C1573.92,457.9588 1590.3361,472.4646 1604.3761,487.7146 " fill="none" id="payment_service-to-user_service" style="stroke:#181818;stroke-width:1.0;"/><polygon fill="#181818" points="1608.44,492.1287,1605.2869,482.7983,1605.0534,488.4503,1599.4014,488.2168,1608.44,492.1287" style="stroke:#181818;stroke-width:1.0;"/><text fill="#000000" font-family="sans-serif" font-size="13" lengthAdjust="spacing" textLength="140" x="1470.5" y="436.7139">validates user payments</text></g><!--link social_service to user_service--><g id="link_social_service_user_service"><path d="M3020.97,384.2588 C3006.27,395.5488 2987.03,408.0288 2967.5,414.2188 C2955.59,417.9988 2080.99,439.8888 2068.5,440.2188 C2049.45,440.7188 1743.64,442.3788 1725.5,448.2188 C1697.84,457.1288 1675.5121,472.6871 1656.9021,488.3371 " fill="none" id="social_service-to-user_service" style="stroke:#181818;stroke-width:1.0;"/><polygon fill="#181818" points="1652.31,492.1988,1661.7726,489.4676,1656.1367,488.9807,1656.6237,483.3448,1652.31,492.1988" style="stroke:#181818;stroke-width:1.0;"/><text fill="#000000" font-family="sans-serif" font-size="13" lengthAdjust="spacing" textLength="127" x="2724.5" y="436.7139">manages user profiles</text></g><!--link travel_service to user_service--><g id="link_travel_service_user_service"><path d="M1961.21,384.4488 C1946.34,395.6488 1927.03,407.9788 1907.5,414.2188 C1864.71,427.8988 1745.83,402.4288 1705.5,422.2188 C1675.23,437.0688 1655.3308,464.4931 1642.4108,486.8631 " fill="none" id="travel_service-to-user_service" style="stroke:#181818;stroke-width:1.0;"/><polygon fill="#181818" points="1639.41,492.0588,1647.375,486.2658,1641.9107,487.729,1640.4474,482.2647,1639.41,492.0588" style="stroke:#181818;stroke-width:1.0;"/><text fill="#000000" font-family="sans-serif" font-size="13" lengthAdjust="spacing" textLength="125" x="1706.5" y="436.7139">coordinates user trips</text></g><!--link recommendation_service to travel_service--><g id="link_recommendation_service_travel_service"><path d="M2375.65,173.2687 C2315.65,201.0988 2211.92,249.4987 2123.5,292.2188 C2093.7,306.6188 2065.7462,320.4646 2039.6762,333.5046 " fill="none" id="recommendation_service-to-travel_service" style="stroke:#181818;stroke-width:1.0;"/><polygon fill="#181818" points="2034.31,336.1888,2044.1486,335.74,2038.7818,333.952,2040.5698,328.5852,2034.31,336.1888" style="stroke:#181818;stroke-width:1.0;"/><text fill="#000000" font-family="sans-serif" font-size="13" lengthAdjust="spacing" textLength="127" x="2173.5" y="280.7139">suggests destinations</text></g><!--link recommendation_service to social_service--><g id="link_recommendation_service_social_service"><path d="M2449.32,173.2787 C2471.54,193.3488 2506.59,221.4688 2542.5,236.2188 C2610.65,264.1988 2797.31,275.8588 2870.5,284.2188 C2891.99,286.6788 2947.49,283.9988 2967.5,292.2188 C2990.79,301.7888 3008.1997,316.4147 3023.0597,331.7147 " fill="none" id="recommendation_service-to-social_service" style="stroke:#181818;stroke-width:1.0;"/><polygon fill="#181818" points="3027.24,336.0188,3023.8389,326.7758,3023.7564,332.432,3018.1002,332.3495,3027.24,336.0188" style="stroke:#181818;stroke-width:1.0;"/><text fill="#000000" font-family="sans-serif" font-size="13" lengthAdjust="spacing" textLength="102" x="2871.5" y="280.7139">matches travelers</text></g><!--link google_oauth to i_oauth--><g id="link_google_oauth_i_oauth"><path d="M129.89,384.2788 C182.13,420.3588 265.5492,477.9593 295.6792,498.7693 " fill="none" id="google_oauth-to-i_oauth" style="stroke:#181818;stroke-width:1.0;stroke-dasharray:7.0,7.0;"/><polygon fill="none" points="310.49,508.9988,299.089,493.8324,292.2694,503.7063,310.49,508.9988" style="stroke:#181818;stroke-width:1.0;"/></g><!--link facebook_oauth to i_oauth--><g id="link_facebook_oauth_i_oauth"><path d="M319.5,384.2788 C319.5,419.3488 319.5,466.4288 319.5,489.1488 " fill="none" id="facebook_oauth-to-i_oauth" style="stroke:#181818;stroke-width:1.0;stroke-dasharray:7.0,7.0;"/><polygon fill="none" points="319.5,507.1488,325.5,489.1488,313.5,489.1488,319.5,507.1488" style="stroke:#181818;stroke-width:1.0;"/></g><!--link amadeus_content to i_content_provider--><g id="link_amadeus_content_i_content_provider"><path d="M3425.5,173.3887 C3425.5,219.7188 3425.5,303.8988 3425.5,333.2088 " fill="none" id="amadeus_content-to-i_content_provider" style="stroke:#181818;stroke-width:1.0;stroke-dasharray:7.0,7.0;"/><polygon fill="none" points="3425.5,351.2088,3431.5,333.2088,3419.5,333.2088,3425.5,351.2088" style="stroke:#181818;stroke-width:1.0;"/></g><!--link weather_content to i_content_provider--><g id="link_weather_content_i_content_provider"><path d="M3634.45,173.3887 C3582.35,219.7188 3480.9109,309.9374 3447.9509,339.2474 " fill="none" id="weather_content-to-i_content_provider" style="stroke:#181818;stroke-width:1.0;stroke-dasharray:7.0,7.0;"/><polygon fill="none" points="3434.5,351.2088,3451.938,343.731,3443.9638,334.7638,3434.5,351.2088" style="stroke:#181818;stroke-width:1.0;"/></g><!--link maps_content to i_content_provider--><g id="link_maps_content_i_content_provider"><path d="M3225.44,173.3887 C3275.32,219.7188 3372.1306,309.6497 3403.6906,338.9597 " fill="none" id="maps_content-to-i_content_provider" style="stroke:#181818;stroke-width:1.0;stroke-dasharray:7.0,7.0;"/><polygon fill="none" points="3416.88,351.2088,3407.7736,334.5632,3399.6076,343.3561,3416.88,351.2088" style="stroke:#181818;stroke-width:1.0;"/></g><!--link sqs_messaging to i_messaging--><g id="link_sqs_messaging_i_messaging"><path d="M3235.4,384.2788 C3232.22,419.3488 3227.9332,466.503 3225.8632,489.223 " fill="none" id="sqs_messaging-to-i_messaging" style="stroke:#181818;stroke-width:1.0;stroke-dasharray:7.0,7.0;"/><polygon fill="none" points="3224.23,507.1488,3231.8385,489.7674,3219.8879,488.6786,3224.23,507.1488" style="stroke:#181818;stroke-width:1.0;"/></g><!--link s3_storage to i_storage--><g id="link_s3_storage_i_storage"><path d="M2235.63,384.5488 C2245.46,399.9988 2254.64,420.9188 2249.5,440.2188 C2242.39,466.9088 2234.3364,479.7669 2224.1464,492.8769 " fill="none" id="s3_storage-to-i_storage" style="stroke:#181818;stroke-width:1.0;stroke-dasharray:7.0,7.0;"/><polygon fill="none" points="2213.1,507.0888,2228.8837,496.5591,2219.4091,489.1948,2213.1,507.0888" style="stroke:#181818;stroke-width:1.0;"/></g><!--link auth_service to i_oauth--><g id="link_auth_service_i_oauth"><path d="M658.1,384.3888 C644.21,395.5688 626.08,407.9088 607.5,414.2188 C571.06,426.5988 470.48,408.5488 434.5,422.2188 C386.01,440.6388 346.3226,483.3243 330.1026,502.4343 " fill="none" id="auth_service-to-i_oauth" style="stroke:#181818;stroke-width:1.0;"/><polygon fill="#181818" points="326.22,507.0087,335.0935,502.7355,329.4555,503.1967,328.9943,497.5587,326.22,507.0087" style="stroke:#181818;stroke-width:1.0;"/><text fill="#000000" font-family="sans-serif" font-size="13" lengthAdjust="spacing" textLength="99" x="435.5" y="436.7139">federates identity</text></g><!--link content_service to i_content_provider--><g id="link_content_service_i_content_provider"><path d="M2732.03,173.2387 C2840.73,204.0788 3043.66,257.9488 3220.5,284.2188 C3248.47,288.3788 3321.31,281.5688 3347.5,292.2188 C3379.25,305.1288 3403.4689,331.7 3415.4889,346.51 " fill="none" id="content_service-to-i_content_provider" style="stroke:#181818;stroke-width:1.0;"/><polygon fill="#181818" points="3419.27,351.1688,3416.7042,341.66,3416.1191,347.2865,3410.4926,346.7014,3419.27,351.1688" style="stroke:#181818;stroke-width:1.0;"/><text fill="#000000" font-family="sans-serif" font-size="13" lengthAdjust="spacing" textLength="95" x="3221.5" y="280.7139">retrieves content</text></g><!--link social_service to i_messaging--><g id="link_social_service_i_messaging"><path d="M3068.22,384.2488 C3083.26,400.5088 3104.4,422.4688 3124.5,440.2188 C3155.86,467.9088 3191.6015,493.2913 3209.4715,505.6213 " fill="none" id="social_service-to-i_messaging" style="stroke:#181818;stroke-width:1.0;"/><polygon fill="#181818" points="3214.41,509.0288,3209.2739,500.6252,3210.2946,506.1892,3204.7306,507.2099,3214.41,509.0288" style="stroke:#181818;stroke-width:1.0;"/><text fill="#000000" font-family="sans-serif" font-size="13" lengthAdjust="spacing" textLength="96" x="3125.5" y="436.7139">publishes events</text></g><!--link travel_service to i_storage--><g id="link_travel_service_i_storage"><path d="M1984.87,384.2488 C1983.48,402.0588 1984.94,425.9888 1999.5,440.2188 C2010.54,451.0088 2053.68,443.8988 2068.5,448.2188 C2119.89,463.1988 2170.5617,492.7953 2192.1417,506.1853 " fill="none" id="travel_service-to-i_storage" style="stroke:#181818;stroke-width:1.0;"/><polygon fill="#181818" points="2197.24,509.3488,2191.7015,501.2048,2192.9914,506.7126,2187.4836,508.0025,2197.24,509.3488" style="stroke:#181818;stroke-width:1.0;"/><text fill="#000000" font-family="sans-serif" font-size="13" lengthAdjust="spacing" textLength="75" x="2000.5" y="436.7139">stores media</text></g><!--SRC=[VLV1Zjis4BtxAmXVcYooUyajm1OGR6KXO2sxjhTDYW8BhiJLif58XPIT66c1_4Fx1Rddr4_OFycNT2XI4abH1WH37hutvBmP3gc6DYL12rxLd17M48dkLhVenzT_KIG-7cX3ikOWC5hn_51YWMekq99Nb54k_s0lDeAoZDRm1osNItH2Yv9W1jJioL39ozcinja7N10qZmxD4qn2CznGpfGZJDaSVPaXH65kyOWpG2KAjYFYI3CoHrWYUe_10g2iMwPsPMCKubvgGy3TbjHSqeQBa-NnNe1rxDR3saXux8dGrTLVFm_Bwv6slQCwlCjBPnYzGVCZBccELG8oGNAb4YxbVFQt9Ty6dogroYdTpBWhNQsDRfW1fC5DQ6W8Dx30J_ZakhuljDMT8YLGFZQUAKCOkzd5DhAMnCB1uwsjatS8pV7j3LkkBCTdGDvaEbSUJcMi5ZmZKf9UEpTRT-00hJ23FsUpfd1koWvWSGNoCGenaIa57LLxYnzNUm1h8-6n9-eaCylhaRQzepeyhU201-sgLXSz7OAonwvsUu6Ff4IR4ZD6MJ6fdSQvwZMjpGrqZDEe2GqrVAIYuOnr3E9TD3pkb9rg_N8jl3lMkV3uMbMR1Rfcd8kSihQFD8BMNWVPyGpQogISUjYLKxOsDzunJgCcvDJmaPo6CvOpY7VHyBXJTfBroxNmxbZdmkDhEMsMLQOPPmoECpYqF46Z16q9B1rsU7x-K7DXhiR26NF5cEQvh0djuy_mpd2vu63qpuPC6zq9pp0CtfeAdl0oEiq3eJa-Ejomb0b_EZy6fd93cA3P4_5rq0dw2LrVNwDbl8dJPPmkacY7udI_ZT5olKhIPBrJuxFPw51s-XPCWeSRY-bMu3zqGlZ4uJXlMvoX03bGTZxNQOvmoZpIaW0piFzzfhtzMxRf0MSqzRo24taeOFP6eXn-bJEjwXaVNanj24sR6-szLSta94dtyVPjj8WX8-_WDOrCBkogNQjxs4Rm8ys9CCNAsrkMZJ8Lwk6w0gkDsQ6iuC361HmfxaQeEhC3ta7pWKHu_L0R-t1Mczju1RKLBP9rEWhAsbStd1Sb6KTMj7OJdeL_2ujuuFp3cF5eHiQSgC8vESYGC5WFzHlDOlr6C5Iv2B4-wQ4GQuNhu4GLs4FutI-xeFhoexJqjmcl0mcGhuSCsCfrVKHBuYhaZdb2U0reA1ilz4cS7Uyao0coGmrH3r7rPvLRPWkehNUwmE0LxUBjhyb2jJ5TRfFzp0IjjkGZV5M8jZFGzlEYESrdVZDscco_UiKM15e9EPB-40XsCYkczePyU2YfL7q0c6tt2zvXkj1Lxu5NW5SafxXl6RVH-_NT7hr7w-rDb2Q_mrPx_YVL4JFU45KNUrwdy0hdnyM5y-MQZxzk5rm8Ka1xlhZGHvZr6Olh4ffzpkKRiF_u-isSvvTBGI44j2II5WozWA_Tbns0rD0K2SjEA657Q7Ng5c0ybiI0agwjAFqgtee8oU3IZ4TbWy48Kj7d_zWhz83_v0Xdl2vnHM7bviwpqVSEsNw7F_03p9lhX7nkv2lr8SJR8GYUyP8Npz_nrGnMXvHCi_y1]--></g></svg>