<?plantuml 1.2026.2?><svg xmlns="http://www.w3.org/2000/svg" xmlns:xlink="http://www.w3.org/1999/xlink" contentStyleType="text/css" data-diagram-type="ACTIVITY" height="393px" preserveAspectRatio="none" style="width:562px;height:393px;background:#FFFFFF;" version="1.1" viewBox="0 0 562 393" width="562px" zoomAndPan="magnify"><defs/><g><rect fill="none" height="22.6406" style="stroke:none;stroke-width:1;" width="529.4988" x="15" y="12.4551"/><polygon fill="#F1F1F1" points="156.062,179.1895,274.0703,179.1895,286.0703,191.1895,274.0703,203.1895,156.062,203.1895,144.062,191.1895,156.062,179.1895" style="stroke:#181818;stroke-width:0.5;"/><text fill="#000000" font-family="sans-serif" font-size="11" lengthAdjust="spacing" textLength="118.0083" x="156.062" y="195.6904">&#191;Autenticaci&#243;n Exitosa?</text><text fill="#000000" font-family="sans-serif" font-size="11" lengthAdjust="spacing" textLength="8.5562" x="135.5059" y="188.7725">s&#237;</text><text fill="#000000" font-family="sans-serif" font-size="11" lengthAdjust="spacing" textLength="12.2354" x="286.0703" y="188.7725">no</text><rect fill="#F1F1F1" height="35.0938" rx="12.5" ry="12.5" style="stroke:#181818;stroke-width:0.5;" width="167.3867" x="48" y="223.1895"/><text fill="#000000" font-family="sans-serif" font-size="12" lengthAdjust="spacing" textLength="147.3867" x="58" y="245.6465">Cargar Perfil y Preferencias</text><ellipse cx="131.6934" cy="291.4121" fill="none" rx="11" ry="11" style="stroke:#222222;stroke-width:1;"/><ellipse cx="131.6934" cy="291.4121" fill="#222222" rx="6" ry="6" style="stroke:#222222;stroke-width:1;"/><polygon fill="#F1F1F1" points="215.0662,135.1895,227.0662,147.1895,215.0662,159.1895,203.0662,147.1895,215.0662,135.1895" style="stroke:#181818;stroke-width:0.5;"/><polygon fill="#F1F1F1" points="215.0662,357.3311,215.0662,357.3311,227.0662,369.3311,215.0662,381.3311,215.0662,381.3311,203.0662,369.3311,215.0662,357.3311" style="stroke:#181818;stroke-width:0.5;"/><line style="stroke:#000000;stroke-width:1.5;" x1="15" x2="15" y1="12.4551" y2="381.3311"/><ellipse cx="379.3379" cy="50.0957" fill="#222222" rx="10" ry="10" style="stroke:#222222;stroke-width:1;"/><rect fill="#F1F1F1" height="35.0938" rx="12.5" ry="12.5" style="stroke:#181818;stroke-width:0.5;" width="140.0645" x="309.3057" y="80.0957"/><text fill="#000000" font-family="sans-serif" font-size="12" lengthAdjust="spacing" textLength="120.0645" x="319.3057" y="102.5527">Acceso a la Aplicaci&#243;n</text><rect fill="#F1F1F1" height="35.0938" rx="12.5" ry="12.5" style="stroke:#181818;stroke-width:0.5;" width="94.0098" x="415.7058" y="223.1895"/><text fill="#000000" font-family="sans-serif" font-size="12" lengthAdjust="spacing" textLength="74.0098" x="425.7058" y="245.6465">Notificar Error</text><polygon fill="#F1F1F1" points="411.6584,280.4121,513.7629,280.4121,525.7629,292.4121,513.7629,304.4121,411.6584,304.4121,399.6584,292.4121,411.6584,280.4121" style="stroke:#181818;stroke-width:0.5;"/><text fill="#000000" font-family="sans-serif" font-size="11" lengthAdjust="spacing" textLength="8.5562" x="466.7107" y="315.8311">s&#237;</text><text fill="#000000" font-family="sans-serif" font-size="11" lengthAdjust="spacing" textLength="102.1045" x="411.6584" y="296.9131">&#191;Solicitar Reintento?</text><text fill="#000000" font-family="sans-serif" font-size="11" lengthAdjust="spacing" textLength="12.2354" x="525.7629" y="289.9951">no</text><line style="stroke:#000000;stroke-width:1.5;" x1="303.3057" x2="303.3057" y1="12.4551" y2="381.3311"/><line style="stroke:#000000;stroke-width:1.5;" x1="542.9983" x2="542.9983" y1="12.4551" y2="381.3311"/><line style="stroke:#181818;stroke-width:1;" x1="131.6934" x2="131.6934" y1="258.2832" y2="280.4121"/><polygon fill="#181818" points="127.6934,270.4121,131.6934,280.4121,135.6934,270.4121,131.6934,274.4121" style="stroke:#181818;stroke-width:1;"/><line style="stroke:#181818;stroke-width:1;" x1="144.062" x2="131.6934" y1="191.1895" y2="191.1895"/><line style="stroke:#181818;stroke-width:1;" x1="131.6934" x2="131.6934" y1="191.1895" y2="223.1895"/><polygon fill="#181818" points="127.6934,213.1895,131.6934,223.1895,135.6934,213.1895,131.6934,217.1895" style="stroke:#181818;stroke-width:1;"/><line style="stroke:#181818;stroke-width:1;" x1="215.0662" x2="215.0662" y1="159.1895" y2="179.1895"/><polygon fill="#181818" points="211.0662,169.1895,215.0662,179.1895,219.0662,169.1895,215.0662,173.1895" style="stroke:#181818;stroke-width:1;"/><line style="stroke:#181818;stroke-width:1;" x1="203.0662" x2="34" y1="369.3311" y2="369.3311"/><polygon fill="#181818" points="30,278.2832,34,268.2832,38,278.2832,34,274.2832" style="stroke:#181818;stroke-width:1;"/><line style="stroke:#181818;stroke-width:1;" x1="34" x2="34" y1="147.1895" y2="369.3311"/><line style="stroke:#181818;stroke-width:1;" x1="34" x2="203.0662" y1="147.1895" y2="147.1895"/><polygon fill="#181818" points="193.0662,143.1895,203.0662,147.1895,193.0662,151.1895,197.0662,147.1895" style="stroke:#181818;stroke-width:1;"/><line style="stroke:#181818;stroke-width:1;" x1="462.7107" x2="462.7107" y1="337.3311" y2="341.3311"/><line style="stroke:#181818;stroke-width:1;" x1="462.7107" x2="215.0662" y1="341.3311" y2="341.3311"/><line style="stroke:#181818;stroke-width:1;" x1="215.0662" x2="215.0662" y1="341.3311" y2="357.3311"/><polygon fill="#181818" points="211.0662,347.3311,215.0662,357.3311,219.0662,347.3311,215.0662,351.3311" style="stroke:#181818;stroke-width:1;"/><line style="stroke:#181818;stroke-width:1;" x1="379.3379" x2="379.3379" y1="60.0957" y2="80.0957"/><polygon fill="#181818" points="375.3379,70.0957,379.3379,80.0957,383.3379,70.0957,379.3379,74.0957" style="stroke:#181818;stroke-width:1;"/><line style="stroke:#181818;stroke-width:1;" x1="462.7107" x2="462.7107" y1="304.4121" y2="337.3311"/><polygon fill="#181818" points="458.7107,327.3311,462.7107,337.3311,466.7107,327.3311,462.7107,331.3311" style="stroke:#181818;stroke-width:1;"/><line style="stroke:#181818;stroke-width:1;" x1="462.7107" x2="462.7107" y1="258.2832" y2="280.4121"/><polygon fill="#181818" points="458.7107,270.4121,462.7107,280.4121,466.7107,270.4121,462.7107,274.4121" style="stroke:#181818;stroke-width:1;"/><line style="stroke:#181818;stroke-width:1;" x1="286.0703" x2="462.7107" y1="191.1895" y2="191.1895"/><line style="stroke:#181818;stroke-width:1;" x1="462.7107" x2="462.7107" y1="191.1895" y2="223.1895"/><polygon fill="#181818" points="458.7107,213.1895,462.7107,223.1895,466.7107,213.1895,462.7107,217.1895" style="stroke:#181818;stroke-width:1;"/><line style="stroke:#181818;stroke-width:1;" x1="379.3379" x2="379.3379" y1="115.1895" y2="120.1895"/><line style="stroke:#181818;stroke-width:1;" x1="379.3379" x2="215.0662" y1="120.1895" y2="120.1895"/><line style="stroke:#181818;stroke-width:1;" x1="215.0662" x2="215.0662" y1="120.1895" y2="135.1895"/><polygon fill="#181818" points="211.0662,125.1895,215.0662,135.1895,219.0662,125.1895,215.0662,129.1895" style="stroke:#181818;stroke-width:1;"/><text fill="#000000" font-family="sans-serif" font-size="18" lengthAdjust="spacing" textLength="166.043" x="76.1313" y="31.1406">Plataforma SmarTrip</text><text fill="#000000" font-family="sans-serif" font-size="18" lengthAdjust="spacing" textLength="152.0771" x="347.1134" y="31.1406">Interfaz de Usuario</text><?plantuml-src RP1DQiD038NtSugtjA-GB8efMNHJJDCUG3YQHZ2PCHg5_k0hTTK359gBLOb9eTGh3UYzf-_Dr2SoYaKFXEs1z55bd4AOxhAnHdh7Zl5KZwHIfb2DrCAg6mQk1OH4wCOa0mro-inhjoscAOzC5W29QBw_kgDnjgiBcrUnKkccXUqvewcdZzQrmEgMz9aKlOD8mXjwvSZAUH2gwukaMXdzmQaocbnctpBx9V6-c4I_hDYe5fr3PgfjyIBY1V70ai-4vJ-IXoysF6_-Gloo-IBl98Rhd3y3Btj9BaSRVW00?></g></svg>