<?plantuml 1.2026.2?><svg xmlns="http://www.w3.org/2000/svg" xmlns:xlink="http://www.w3.org/1999/xlink" contentStyleType="text/css" data-diagram-type="ACTIVITY" height="389px" preserveAspectRatio="none" style="width:453px;height:389px;background:#FFFFFF;" version="1.1" viewBox="0 0 453 389" width="453px" zoomAndPan="magnify"><defs/><g><rect fill="none" height="22.6406" style="stroke:none;stroke-width:1;" width="420.3521" x="15" y="12.4551"/><ellipse cx="133.7178" cy="50.0957" fill="#222222" rx="10" ry="10" style="stroke:#222222;stroke-width:1;"/><rect fill="#F1F1F1" height="35.0938" rx="12.5" ry="12.5" style="stroke:#181818;stroke-width:0.5;" width="224.7676" x="21.334" y="80.0957"/><text fill="#000000" font-family="sans-serif" font-size="12" lengthAdjust="spacing" textLength="204.7676" x="31.334" y="102.5527">Recibir datos de planificaci&#243;n (Viajero)</text><rect fill="#F1F1F1" height="35.0938" rx="12.5" ry="12.5" style="stroke:#181818;stroke-width:0.5;" width="130.7246" x="68.3555" y="190.2832"/><text fill="#000000" font-family="sans-serif" font-size="12" lengthAdjust="spacing" textLength="110.7246" x="78.3555" y="212.7402">Presentar resultados</text><rect fill="#F1F1F1" height="35.0938" rx="12.5" ry="12.5" style="stroke:#181818;stroke-width:0.5;" width="225.4355" x="21" y="245.377"/><text fill="#000000" font-family="sans-serif" font-size="12" lengthAdjust="spacing" textLength="205.4355" x="31" y="267.834">Esperar solicitud de conexi&#243;n (Viajero)</text><line style="stroke:#000000;stroke-width:1.5;" x1="15" x2="15" y1="12.4551" y2="377.5645"/><rect fill="#F1F1F1" height="35.0938" rx="12.5" ry="12.5" style="stroke:#181818;stroke-width:0.5;" width="173.416" x="256.4355" y="135.1895"/><text fill="#000000" font-family="sans-serif" font-size="12" lengthAdjust="spacing" textLength="153.416" x="266.4355" y="157.6465">Procesar y generar opciones</text><rect fill="#F1F1F1" height="35.0938" rx="12.5" ry="12.5" style="stroke:#181818;stroke-width:0.5;" width="125.3867" x="280.4502" y="300.4707"/><text fill="#000000" font-family="sans-serif" font-size="12" lengthAdjust="spacing" textLength="105.3867" x="290.4502" y="322.9277">Gestionar invitaci&#243;n</text><ellipse cx="343.1436" cy="366.5645" fill="none" rx="11" ry="11" style="stroke:#222222;stroke-width:1;"/><ellipse cx="343.1436" cy="366.5645" fill="#222222" rx="6" ry="6" style="stroke:#222222;stroke-width:1;"/><line style="stroke:#000000;stroke-width:1.5;" x1="250.4355" x2="250.4355" y1="12.4551" y2="377.5645"/><line style="stroke:#000000;stroke-width:1.5;" x1="433.8516" x2="433.8516" y1="12.4551" y2="377.5645"/><line style="stroke:#181818;stroke-width:1;" x1="133.7178" x2="133.7178" y1="60.0957" y2="80.0957"/><polygon fill="#181818" points="129.7178,70.0957,133.7178,80.0957,137.7178,70.0957,133.7178,74.0957" style="stroke:#181818;stroke-width:1;"/><line style="stroke:#181818;stroke-width:1;" x1="133.7178" x2="133.7178" y1="225.377" y2="245.377"/><polygon fill="#181818" points="129.7178,235.377,133.7178,245.377,137.7178,235.377,133.7178,239.377" style="stroke:#181818;stroke-width:1;"/><line style="stroke:#181818;stroke-width:1;" x1="343.1436" x2="343.1436" y1="335.5645" y2="355.5645"/><polygon fill="#181818" points="339.1436,345.5645,343.1436,355.5645,347.1436,345.5645,343.1436,349.5645" style="stroke:#181818;stroke-width:1;"/><line style="stroke:#181818;stroke-width:1;" x1="133.7178" x2="133.7178" y1="115.1895" y2="120.1895"/><line style="stroke:#181818;stroke-width:1;" x1="133.7178" x2="343.1436" y1="120.1895" y2="120.1895"/><line style="stroke:#181818;stroke-width:1;" x1="343.1436" x2="343.1436" y1="120.1895" y2="135.1895"/><polygon fill="#181818" points="339.1436,125.1895,343.1436,135.1895,347.1436,125.1895,343.1436,129.1895" style="stroke:#181818;stroke-width:1;"/><line style="stroke:#181818;stroke-width:1;" x1="343.1436" x2="343.1436" y1="170.2832" y2="175.2832"/><line style="stroke:#181818;stroke-width:1;" x1="343.1436" x2="133.7178" y1="175.2832" y2="175.2832"/><line style="stroke:#181818;stroke-width:1;" x1="133.7178" x2="133.7178" y1="175.2832" y2="190.2832"/><polygon fill="#181818" points="129.7178,180.2832,133.7178,190.2832,137.7178,180.2832,133.7178,184.2832" style="stroke:#181818;stroke-width:1;"/><line style="stroke:#181818;stroke-width:1;" x1="133.7178" x2="133.7178" y1="280.4707" y2="285.4707"/><line style="stroke:#181818;stroke-width:1;" x1="133.7178" x2="343.1436" y1="285.4707" y2="285.4707"/><line style="stroke:#181818;stroke-width:1;" x1="343.1436" x2="343.1436" y1="285.4707" y2="300.4707"/><polygon fill="#181818" points="339.1436,290.4707,343.1436,300.4707,347.1436,290.4707,343.1436,294.4707" style="stroke:#181818;stroke-width:1;"/><text fill="#000000" font-family="sans-serif" font-size="18" lengthAdjust="spacing" textLength="152.0771" x="56.6792" y="31.1406">Interfaz de Usuario</text><text fill="#000000" font-family="sans-serif" font-size="18" lengthAdjust="spacing" textLength="166.043" x="259.1221" y="31.1406">Plataforma SmarTrip</text><?plantuml-src ZOyx3i9034JxFSMMS8LG8qGNyUlDheECmdfbEmXGRiKHk1WEj1HqKyoycHdNnL0wUCICSQy32F4Or40iD1jCT2I96OnrCjGU2dMK8D7hMUBiG716uVaYXB7jmQ1ZkK3SNa1sGdKCJIkSK47YFPwmeBZYceWBwXJwsUuXL2o-8ReOUeFCxcwMMZy0vPuIsP2dL7BKxTyrArJpRcTGkP9zRxXTZUiR?></g></svg>