<?plantuml 1.2026.2?><svg xmlns="http://www.w3.org/2000/svg" xmlns:xlink="http://www.w3.org/1999/xlink" contentStyleType="text/css" data-diagram-type="DESCRIPTION" height="750px" preserveAspectRatio="none" style="width:485px;height:750px;background:#FFFFFF;" version="1.1" viewBox="0 0 485 750" width="485px" zoomAndPan="magnify"><title>Arquitectura Empresarial - Vista ArchiMate</title><defs/><g><g class="title" data-source-line="3"><text fill="#000000" font-family="sans-serif" font-size="14" font-weight="bold" lengthAdjust="spacing" textLength="284.7578" x="93.3125" y="24.5332">Arquitectura Empresarial - Vista ArchiMate</text></g><!--entity stakeholder--><g class="entity" data-qualified-name="stakeholder" data-source-line="8" id="ent0002"><rect fill="#FFFFCC" height="53.584" rx="0.5" ry="0.5" style="stroke:#181818;stroke-width:0.5;" width="140" x="77" y="45.6094"/><path d="M203.445,61.0834 L192.582,61.0912 A0.5,0.5 0 0 0 192.5722,61.0912 C191.5839,61.1091 190.7112,61.6584 190.1114,62.4684 C189.5116,63.2783 189.1589,64.3565 189.1585,65.5364 C189.1581,66.7163 189.5101,67.7964 190.1093,68.607 C190.7085,69.4176 191.5803,69.9666 192.5686,69.9857 A0.5,0.5 0 0 0 192.5779,69.9857 A0.5,0.5 0 0 0 192.5877,69.9857 L203.5097,69.9955 L203.5097,69.9945 C204.3349,69.9928 205.1528,69.5828 205.7695,68.8297 A0.5,0.5 0 0 0 205.7887,68.7651 A0.5,0.5 0 0 0 205.8491,68.7299 C207.1454,67.0377 207.2103,64.3854 206.0155,62.5814 C205.4181,61.6795 204.5662,61.1428 203.6678,61.0869 C203.6151,61.0836 203.5624,61.0842 203.5097,61.0843 L203.5097,61.0833 L203.4477,61.0833 C203.4468,61.0834 203.4455,61.0833 203.4446,61.0833 M203.5101,62.0823 C203.5421,62.0824 203.5739,62.0834 203.6057,62.0854 C204.1531,62.1194 204.7215,62.4374 205.1818,63.1324 C206.1024,64.5224 206.0368,66.8413 205.0568,68.1207 A0.5,0.5 0 0 0 205.0433,68.1713 A0.5,0.5 0 0 0 204.9963,68.1966 C204.5339,68.7613 204.0163,68.998 203.5101,68.9956 L203.5075,68.9956 C203.4646,68.9953 203.4215,68.993 203.3788,68.9894 C202.8315,68.9427 202.2634,68.6108 201.8104,67.9037 C200.9045,66.4895 200.9998,64.1728 201.9923,62.9195 C202.4393,62.3551 202.9462,62.1029 203.4423,62.0833 L203.51,62.0833 M201.3914,62.0849 C201.3289,62.1528 201.2678,62.224 201.209,62.2983 C199.8901,63.9637 199.7961,66.6145 200.9671,68.4426 C201.0963,68.6442 201.2378,68.8283 201.3899,68.9935 L192.5884,68.9857 L192.5878,68.9857 C191.9563,68.9735 191.3699,68.6298 190.914,68.0131 C190.4582,67.3964 190.1582,66.5153 190.1585,65.5362 C190.1589,64.5572 190.4578,63.678 190.914,63.0619 C191.3703,62.4459 191.9583,62.1024 192.5899,62.0909" fill="#000000"/><text fill="#000000" font-family="Verdana" font-size="12" lengthAdjust="spacing" textLength="72.3047" x="110.8477" y="86.6738">Stakeholder</text></g><!--entity goal--><g class="entity" data-qualified-name="goal" data-source-line="9" id="ent0003"><rect fill="#FFFFCC" height="53.584" rx="0.5" ry="0.5" style="stroke:#181818;stroke-width:0.5;" width="141.9043" x="76" y="175.6094"/><path d="M198.9293,189.3634 A0.5,0.5 0 0 0 198.9081,189.3732 A0.5,0.5 0 0 0 198.8885,189.3654 C195.4693,189.4119 192.7225,192.2294 192.7633,195.6487 C192.804,199.068 195.6154,201.8182 199.0348,201.7832 C202.4542,201.7482 205.2109,198.941 205.1817,195.5216 C205.1525,192.1022 202.3489,189.3399 198.9294,189.3633 M198.9277,190.3535 A0.5,0.5 0 0 0 198.937,190.3633 C201.8167,190.3436 204.1571,192.6498 204.1816,195.5294 C204.2062,198.409 201.9049,200.7539 199.0253,200.7833 C196.1457,200.8127 193.7979,198.5164 193.7636,195.6368 C193.7293,192.7573 196.0223,190.4045 198.9018,190.3653 A0.5,0.5 0 0 0 198.9276,190.3534 M198.9194,191.7054 C196.791,191.7344 195.0777,193.4909 195.1031,195.6194 C195.1285,197.7479 196.8829,199.4652 199.0114,199.4435 C201.1399,199.4217 202.8598,197.67 202.8417,195.5414 C202.8235,193.4129 201.0739,191.6909 198.9453,191.7055 A0.5,0.5 0 0 0 198.9334,191.7169 A0.5,0.5 0 0 0 198.9195,191.7055 M198.9468,192.6991 A0.5,0.5 0 0 0 198.953,192.7053 C200.5417,192.6945 201.8282,193.9603 201.8417,195.5491 C201.8552,197.1378 200.5903,198.4273 199.0016,198.4435 C197.4129,198.4598 196.122,197.1962 196.1031,195.6075 C196.0842,194.0188 197.3448,192.727 198.9334,192.7054 A0.5,0.5 0 0 0 198.9468,192.6992 M198.9489,193.8866 C198.0296,193.8992 197.274,194.6747 197.2849,195.594 C197.2958,196.5133 198.0709,197.271 198.9902,197.2616 C199.9095,197.2522 200.6677,196.4782 200.6599,195.5589 C200.6521,194.6396 199.8801,193.8804 198.9608,193.8867 A0.959,0.959 0 0 0 198.9546,193.8929 A0.959,0.959 0 0 0 198.9489,193.8867" fill="#000000"/><text fill="#000000" font-family="Verdana" font-size="12" lengthAdjust="spacing" textLength="50.6074" x="86" y="216.6738">Objetivo</text><text fill="#000000" font-family="Verdana" font-size="12" lengthAdjust="spacing" textLength="4.2188" x="136.6074" y="216.6738">&#160;</text><text fill="#000000" font-family="Verdana" font-size="12" lengthAdjust="spacing" textLength="67.0781" x="140.8262" y="216.6738">Estrat&#233;gico</text></g><!--entity process--><g class="entity" data-qualified-name="process" data-source-line="11" id="ent0004"><rect fill="#FFFFCC" height="53.584" rx="12.5" ry="12.5" style="stroke:#181818;stroke-width:0.5;" width="140" x="77" y="305.6094"/><path d="M201.729,319.1094 A0.5001,0.5001 0 0 0 201.4009,319.584 L201.4263,322.2207 L188.8693,322.2247 A0.5001,0.5001 0 0 0 188.3693,322.7247 L188.3654,328.7735 A0.5001,0.5001 0 0 0 188.8673,329.2735 L201.3963,329.2266 L201.3963,331.5528 A0.5001,0.5001 0 0 0 202.2791,331.8731 L207.2732,325.92 A0.5001,0.5001 0 0 0 207.2752,325.2794 L202.285,319.2599 A0.5001,0.5001 0 0 0 201.7284,319.1095 M202.4146,320.9824 L206.2408,325.5976 L202.397,330.1777 L202.397,328.7246 A0.5001,0.5001 0 0 0 201.895,328.2246 L189.366,328.2715 L189.3699,323.2246 L201.9309,323.2206 A0.5001,0.5001 0 0 0 202.4309,322.7167" fill="#000000"/><text fill="#000000" font-family="Verdana" font-size="12" lengthAdjust="spacing" textLength="46.5762" x="88.3242" y="346.6738">Proceso</text><text fill="#000000" font-family="Verdana" font-size="12" lengthAdjust="spacing" textLength="4.2188" x="134.9004" y="346.6738">&#160;</text><text fill="#000000" font-family="Verdana" font-size="12" lengthAdjust="spacing" textLength="14.625" x="139.1191" y="346.6738">de</text><text fill="#000000" font-family="Verdana" font-size="12" lengthAdjust="spacing" textLength="4.2188" x="153.7441" y="346.6738">&#160;</text><text fill="#000000" font-family="Verdana" font-size="12" lengthAdjust="spacing" textLength="47.7129" x="157.9629" y="346.6738">Negocio</text></g><!--entity bservice--><g class="entity" data-qualified-name="bservice" data-source-line="12" id="ent0005"><rect fill="#FFFFCC" height="53.584" rx="12.5" ry="12.5" style="stroke:#181818;stroke-width:0.5;" width="140" x="7" y="435.6094"/><path d="M124.5,451.5194 C121.8244,451.5134 119.6469,453.7235 119.6228,456.4416 C119.5987,459.1597 121.7369,461.4111 124.4122,461.4552 A0.5,0.5 0 0 0 124.4277,461.4552 L131.9687,461.4552 A0.5,0.5 0 0 0 131.9747,461.4552 C134.6619,461.4304 136.8199,459.1768 136.7987,456.4472 C136.7776,453.729 134.6017,451.5206 131.9297,451.5209 L131.9297,451.5189 L131.8966,451.5189 M124.498,452.5193 A0.5,0.5 0 0 0 124.502,452.5193 L131.9294,452.5193 C134.0519,452.5195 135.7814,454.2629 135.7984,456.455 C135.8155,458.655 134.1017,460.4333 131.9687,460.4553 C131.9677,460.4553 131.9657,460.4553 131.9647,460.4553 L124.4298,460.4553 C122.3046,460.4202 120.6033,458.6435 120.6228,456.4514 C120.6423,454.2593 122.3725,452.515 124.498,452.5193" fill="#000000"/><text fill="#000000" font-family="Verdana" font-size="12" lengthAdjust="spacing" textLength="47.6953" x="17.7646" y="476.6738">Servicio</text><text fill="#000000" font-family="Verdana" font-size="12" lengthAdjust="spacing" textLength="4.2188" x="65.46" y="476.6738">&#160;</text><text fill="#000000" font-family="Verdana" font-size="12" lengthAdjust="spacing" textLength="14.625" x="69.6787" y="476.6738">de</text><text fill="#000000" font-family="Verdana" font-size="12" lengthAdjust="spacing" textLength="4.2188" x="84.3037" y="476.6738">&#160;</text><text fill="#000000" font-family="Verdana" font-size="12" lengthAdjust="spacing" textLength="47.7129" x="88.5225" y="476.6738">Negocio</text></g><!--entity app--><g class="entity" data-qualified-name="app" data-source-line="17" id="ent0006"><rect fill="#C2F0FF" height="53.584" rx="0.5" ry="0.5" style="stroke:#181818;stroke-width:0.5;" width="168.3828" x="311" y="435.6094"/><path d="M469.1428,450.2484 L454.3168,450.2954 A0.5001,0.5001 0 0 0 453.8171,450.7951 L453.8171,452.2327 L451.3289,452.2131 A0.5001,0.5001 0 0 0 450.8245,452.7133 L450.8245,454.6486 A0.5001,0.5001 0 0 0 451.3248,455.1488 L453.8053,455.1488 L453.7815,456.1916 L451.2819,456.172 A0.5001,0.5001 0 0 0 450.778,456.6722 L450.778,458.6075 A0.5001,0.5001 0 0 0 451.2777,459.1077 L453.7701,459.1077 L453.7701,462.1096 A0.5001,0.5001 0 0 0 454.2704,462.6099 L469.1434,462.6564 A0.5001,0.5001 0 0 0 469.6452,462.1567 L469.6452,450.7487 A0.5001,0.5001 0 0 0 469.1434,450.2485 M468.6446,451.2504 L468.6446,461.6544 L454.7696,461.6115 L454.7696,459.1078 L457.264,459.1078 A0.5001,0.5001 0 0 0 457.7638,458.6076 L457.7638,456.7193 A0.5001,0.5001 0 0 0 457.2677,456.219 L454.7815,456.1994 L454.8053,455.1488 L457.3106,455.1488 A0.5001,0.5001 0 0 0 457.8108,454.6486 L457.8108,452.7598 A0.5001,0.5001 0 0 0 457.3147,452.26 L454.8167,452.2404 L454.8167,451.2932 M451.8246,453.2172 L456.8109,453.2559 L456.8109,454.1489 L451.8246,454.1489 M451.7776,457.1761 L456.7639,457.2153 L456.7639,458.1078 L451.7776,458.1078" fill="#000000"/><text fill="#000000" font-family="Verdana" font-size="12" lengthAdjust="spacing" textLength="65.1738" x="321" y="476.6738">Plataforma</text><text fill="#000000" font-family="Verdana" font-size="12" lengthAdjust="spacing" textLength="4.2188" x="386.1738" y="476.6738">&#160;</text><text fill="#000000" font-family="Verdana" font-size="12" lengthAdjust="spacing" textLength="14.625" x="390.3926" y="476.6738">de</text><text fill="#000000" font-family="Verdana" font-size="12" lengthAdjust="spacing" textLength="4.2188" x="405.0176" y="476.6738">&#160;</text><text fill="#000000" font-family="Verdana" font-size="12" lengthAdjust="spacing" textLength="60.1465" x="409.2363" y="476.6738">Aplicaci&#243;n</text></g><!--entity appservice--><g class="entity" data-qualified-name="appservice" data-source-line="18" id="ent0007"><rect fill="#C2F0FF" height="53.584" rx="12.5" ry="12.5" style="stroke:#181818;stroke-width:0.5;" width="157.1563" x="133.5" y="565.6094"/><path d="M268.1563,581.5194 C265.4806,581.5134 263.3031,583.7235 263.2791,586.4416 C263.255,589.1597 265.3932,591.4111 268.0685,591.4552 A0.5,0.5 0 0 0 268.084,591.4552 L275.625,591.4552 A0.5,0.5 0 0 0 275.631,591.4552 C278.3182,591.4304 280.4762,589.1768 280.455,586.4472 C280.4339,583.729 278.258,581.5206 275.586,581.5209 L275.586,581.5189 L275.5529,581.5189 M268.1543,582.5193 A0.5,0.5 0 0 0 268.1582,582.5193 L275.5857,582.5193 C277.7082,582.5195 279.4376,584.2629 279.4547,586.455 C279.4718,588.655 277.758,590.4333 275.625,590.4553 C275.624,590.4553 275.6219,590.4553 275.621,590.4553 L268.0861,590.4553 C265.9609,590.4202 264.2596,588.6435 264.2791,586.4514 C264.2986,584.2593 266.0288,582.515 268.1543,582.5193" fill="#000000"/><text fill="#000000" font-family="Verdana" font-size="12" lengthAdjust="spacing" textLength="53.9473" x="143.5" y="606.6738">Servicios</text><text fill="#000000" font-family="Verdana" font-size="12" lengthAdjust="spacing" textLength="4.2188" x="197.4473" y="606.6738">&#160;</text><text fill="#000000" font-family="Verdana" font-size="12" lengthAdjust="spacing" textLength="14.625" x="201.666" y="606.6738">de</text><text fill="#000000" font-family="Verdana" font-size="12" lengthAdjust="spacing" textLength="4.2188" x="216.291" y="606.6738">&#160;</text><text fill="#000000" font-family="Verdana" font-size="12" lengthAdjust="spacing" textLength="60.1465" x="220.5098" y="606.6738">Aplicaci&#243;n</text></g><!--entity data--><g class="entity" data-qualified-name="data" data-source-line="19" id="ent0008"><rect fill="#C2F0FF" height="49.168" rx="0.5" ry="0.5" style="stroke:#181818;stroke-width:0.5;" width="140" x="142" y="695.6094"/><text fill="#000000" font-family="Verdana" font-size="12" font-style="italic" lengthAdjust="spacing" textLength="84.5566" x="186.4434" y="717.6738">&#171;data-object&#187;</text><text fill="#000000" font-family="Verdana" font-size="12" lengthAdjust="spacing" textLength="34.7168" x="194.6416" y="732.2578">Datos</text></g><!--entity infra--><g class="entity" data-qualified-name="infra" data-source-line="24" id="ent0009"><rect fill="#C9FFC9" height="53.584" rx="0.5" ry="0.5" style="stroke:#181818;stroke-width:0.5;" width="149.1816" x="325.5" y="565.6094"/><path d="M451.7046,578.5094 A0.5001,0.5001 0 0 0 451.4003,578.6086 L447.2993,581.6839 L447.2848,581.6948 L447.2853,581.6953 A0.5001,0.5001 0 0 0 447.0838,582.0973 L447.1308,590.8451 A0.5001,0.5001 0 0 0 447.629,591.3412 L459.556,591.3882 A0.5001,0.5001 0 0 0 459.9921,591.136 L463.935,588.0561 A0.5001,0.5001 0 0 0 464.1262,587.6619 L464.1262,579.1012 A0.5001,0.5001 0 0 0 463.6301,578.6009 M451.8648,579.5093 L462.1388,579.5894 L459.3943,581.6415 L449.0773,581.6007 M463.1268,580.1005 L463.1268,587.4174 L460.0583,589.8167 L460.0583,582.3918 M448.0858,582.597 L459.0578,582.6404 L459.0578,590.3862 L448.1278,590.3433" fill="#000000"/><text fill="#000000" font-family="Verdana" font-size="12" lengthAdjust="spacing" textLength="90.9375" x="335.5" y="606.6738">Infraestructura</text><text fill="#000000" font-family="Verdana" font-size="12" lengthAdjust="spacing" textLength="4.2188" x="426.4375" y="606.6738">&#160;</text><text fill="#000000" font-family="Verdana" font-size="12" lengthAdjust="spacing" textLength="34.0254" x="430.6563" y="606.6738">Cloud</text></g><!--link stakeholder to goal--><g class="link" data-entity-1="ent0002" data-entity-2="ent0003" data-link-type="dependency" data-source-line="31" id="lnk10"><path d="M147,99.8194 C147,121.9094 147,147.3494 147,169.4294" fill="none" id="stakeholder-to-goal" style="stroke:#000000;stroke-width:1;"/><polygon fill="#000000" points="147,175.4294,151,166.4294,147,170.4294,143,166.4294,147,175.4294" style="stroke:#000000;stroke-width:1;"/><text fill="#000000" font-family="Verdana" font-size="12" lengthAdjust="spacing" textLength="54.1348" x="148" y="142.6738">influence</text></g><!--link goal to process--><g class="link" data-entity-1="ent0003" data-entity-2="ent0004" data-link-type="dependency" data-source-line="34" id="lnk11"><path d="M147,229.8194 C147,251.9094 147,277.3494 147,299.4294" fill="none" id="goal-to-process" style="stroke:#000000;stroke-width:1;"/><polygon fill="#000000" points="147,305.4294,151,296.4294,147,300.4294,143,296.4294,147,305.4294" style="stroke:#000000;stroke-width:1;"/><text fill="#000000" font-family="Verdana" font-size="12" lengthAdjust="spacing" textLength="62.4727" x="148" y="272.6738">realization</text></g><!--link process to bservice--><g class="link" data-entity-1="ent0004" data-entity-2="ent0005" data-link-type="dependency" data-source-line="35" id="lnk12"><path d="M132.67,359.8194 C120.59,381.9094 106.268,408.0846 94.198,430.1646" fill="none" id="process-to-bservice" style="stroke:#000000;stroke-width:1;"/><polygon fill="#000000" points="91.32,435.4294,99.1468,429.4509,93.7183,431.0421,92.1271,425.6136,91.32,435.4294" style="stroke:#000000;stroke-width:1;"/><text fill="#000000" font-family="Verdana" font-size="12" lengthAdjust="spacing" textLength="62.4727" x="118" y="402.6738">realization</text></g><!--link process to appservice--><g class="link" data-entity-1="ent0004" data-entity-2="ent0007" data-link-type="dependency" data-source-line="38" id="lnk13"><path d="M171.1,359.7494 C178,368.6194 184.78,378.9894 189,389.6094 C212.67,449.1394 214.4976,519.8014 213.4576,559.3714" fill="none" id="process-to-appservice" style="stroke:#000000;stroke-width:1;"/><polygon fill="#000000" points="213.3,565.3694,217.5351,556.4776,213.4314,560.3711,209.5378,556.2674,213.3,565.3694" style="stroke:#000000;stroke-width:1;"/><text fill="#000000" font-family="Verdana" font-size="12" lengthAdjust="spacing" textLength="48.498" x="212" y="467.6738">used-by</text></g><!--link bservice to appservice--><g class="link" data-entity-1="ent0005" data-entity-2="ent0007" data-link-type="dependency" data-source-line="39" id="lnk14"><path d="M100.96,489.8994 C113.96,503.8194 130.49,521.0094 146,535.6094 C156.72,545.6994 164.3144,552.4218 175.2744,561.6218" fill="none" id="bservice-to-appservice" style="stroke:#000000;stroke-width:1;"/><polygon fill="#000000" points="179.87,565.4794,175.5484,556.6293,176.0404,562.2647,170.405,562.7567,179.87,565.4794" style="stroke:#000000;stroke-width:1;"/><text fill="#000000" font-family="Verdana" font-size="12" lengthAdjust="spacing" textLength="43.9863" x="147" y="532.6738">serving</text></g><!--link app to appservice--><g class="link" data-entity-1="ent0006" data-entity-2="ent0007" data-link-type="dependency" data-source-line="42" id="lnk15"><path d="M357.53,489.8194 C325.95,511.9094 285.9068,539.9106 254.3368,561.9906" fill="none" id="app-to-appservice" style="stroke:#000000;stroke-width:1;"/><polygon fill="#000000" points="249.42,565.4294,259.0877,563.549,253.5173,562.5637,254.5026,556.9933,249.42,565.4294" style="stroke:#000000;stroke-width:1;"/><text fill="#000000" font-family="Verdana" font-size="12" lengthAdjust="spacing" textLength="62.4727" x="315" y="532.6738">realization</text></g><!--link appservice to data--><g class="link" data-entity-1="ent0007" data-entity-2="ent0008" data-link-type="dependency" data-source-line="43" id="lnk16"><path d="M212,619.6094 C212,641.8694 212,667.6494 212,689.2594" fill="none" id="appservice-to-data" style="stroke:#000000;stroke-width:1;"/><polygon fill="#000000" points="212,695.2594,216,686.2594,212,690.2594,208,686.2594,212,695.2594" style="stroke:#000000;stroke-width:1;"/><text fill="#000000" font-family="Verdana" font-size="12" lengthAdjust="spacing" textLength="39.3633" x="213" y="662.6738">access</text></g><!--link app to infra--><g class="link" data-entity-1="ent0006" data-entity-2="ent0009" data-link-type="dependency" data-source-line="46" id="lnk17"><path d="M396.02,489.8194 C396.89,511.9094 397.8865,537.3539 398.7465,559.4339" fill="none" id="app-to-infra" style="stroke:#000000;stroke-width:1;"/><polygon fill="#000000" points="398.98,565.4294,402.6267,556.2805,398.7854,560.4332,394.6328,556.5919,398.98,565.4294" style="stroke:#000000;stroke-width:1;"/><text fill="#000000" font-family="Verdana" font-size="12" lengthAdjust="spacing" textLength="70.9219" x="398" y="532.6738">deployment</text></g><?plantuml-src bLDBRjim4Dth55DtqPNGlU4QK1orDU3OHkGMo79CJMIsDAcIL03t03r0Rz55Lpr2RjAJP4X_92UnssWZYJFluSsynrTI2zMK10EqOYNNwEbjjlyQ9ecNNX5azbiZFGdVM8HyNLjoQ2KgIE6pT1uXGguOaYHluDsfXsiNduhnD2yAc6Gt-VNPveCWU7tHEAd9EUWL7h_IogYIR0_GWMl_OJ3e_0s7pnFCbb_8opi3kVCM_VslIWeJgIh30mq6uSNWvz5pQmGv0xomALL6o2sqZiUEqSjTQxexEYMZ87id6VwOQUbYWRfKkwCWwlnoi_byCXvbY_5i-hBzPdMjf40lZUOP5NgyDNQDGLmMAqBU_z5H8DOrQyCMa0gpheqcxOzdFUBSZ-jEKBPJTvdRmK_nNg8tBfAKB9hXuPKQzbZuV-zhaOy-JcUJsOURbwrhGMAbZJBL1dfZVMkHE4lDzdQCb6dAg4Y62alIflmFxwxpIJPYu_82Yl4L-_YUdRpCYhCmBcvZJ9N4f7iNqdIu3NG_w50DQH7lvYvhIQo5fdrq-s09bVmU5vliJqF78PB7BIqP_Ftnislg4RfZRXyQHsMwt2G7oYSTyKjNWRt3o3DuiXgJaBudcAwgJY7qnLJq0KNGyvWqo6OhevFtlrlohN5zZcgjp6RDoKuU0000?></g></svg>