<?xml version="1.0" encoding="us-ascii" standalone="no"?><svg xmlns="http://www.w3.org/2000/svg" xmlns:xlink="http://www.w3.org/1999/xlink" contentStyleType="text/css" height="168px" preserveAspectRatio="none" style="width:3617px;height:168px;background:#FFFFFF;" version="1.1" viewBox="0 0 3617 168" width="3617px" zoomAndPan="magnify"><defs/><g><text fill="#000000" font-family="sans-serif" font-size="14" font-weight="bold" lengthAdjust="spacing" textLength="201.4375" x="1700.7813" y="24.5332">CI/CD &#8212; flujo por repositorio</text><!--cluster voyager-backend-core--><g id="cluster_voyager-backend-core"><path d="M8.5,44.6094 L168.5,44.6094 A3.75,3.75 0 0 1 171,47.1094 L178,68.2188 L1102.5,68.2188 A2.5,2.5 0 0 1 1105,70.7188 L1105,159.1094 A2.5,2.5 0 0 1 1102.5,161.6094 L8.5,161.6094 A2.5,2.5 0 0 1 6,159.1094 L6,47.1094 A2.5,2.5 0 0 1 8.5,44.6094 " fill="none" style="stroke:#000000;stroke-width:1.5;"/><line style="stroke:#000000;stroke-width:1.5;" x1="6" x2="178" y1="68.2188" y2="68.2188"/><text fill="#000000" font-family="sans-serif" font-size="14" font-weight="bold" lengthAdjust="spacing" textLength="159" x="10" y="61.1426">voyager-backend-core</text></g><!--cluster voyager-ai-service--><g id="cluster_voyager-ai-service"><path d="M1131.5,53.1094 L1264.5,53.1094 A3.75,3.75 0 0 1 1267,55.6094 L1274,76.7188 L1965.5,76.7188 A2.5,2.5 0 0 1 1968,79.2188 L1968,150.6094 A2.5,2.5 0 0 1 1965.5,153.1094 L1131.5,153.1094 A2.5,2.5 0 0 1 1129,150.6094 L1129,55.6094 A2.5,2.5 0 0 1 1131.5,53.1094 " fill="none" style="stroke:#000000;stroke-width:1.5;"/><line style="stroke:#000000;stroke-width:1.5;" x1="1129" x2="1274" y1="76.7188" y2="76.7188"/><text fill="#000000" font-family="sans-serif" font-size="14" font-weight="bold" lengthAdjust="spacing" textLength="132" x="1133" y="69.6426">voyager-ai-service</text></g><!--cluster voyager-web-client--><g id="cluster_voyager-web-client"><path d="M1994.5,53.1094 L2130.5,53.1094 A3.75,3.75 0 0 1 2133,55.6094 L2140,76.7188 L2895.5,76.7188 A2.5,2.5 0 0 1 2898,79.2188 L2898,150.6094 A2.5,2.5 0 0 1 2895.5,153.1094 L1994.5,153.1094 A2.5,2.5 0 0 1 1992,150.6094 L1992,55.6094 A2.5,2.5 0 0 1 1994.5,53.1094 " fill="none" style="stroke:#000000;stroke-width:1.5;"/><line style="stroke:#000000;stroke-width:1.5;" x1="1992" x2="2140" y1="76.7188" y2="76.7188"/><text fill="#000000" font-family="sans-serif" font-size="14" font-weight="bold" lengthAdjust="spacing" textLength="135" x="1996" y="69.6426">voyager-web-client</text></g><!--cluster voyager-android--><g id="cluster_voyager-android"><path d="M2924.5,53.1094 L3041.5,53.1094 A3.75,3.75 0 0 1 3044,55.6094 L3051,76.7188 L3607.5,76.7188 A2.5,2.5 0 0 1 3610,79.2188 L3610,150.6094 A2.5,2.5 0 0 1 3607.5,153.1094 L2924.5,153.1094 A2.5,2.5 0 0 1 2922,150.6094 L2922,55.6094 A2.5,2.5 0 0 1 2924.5,53.1094 " fill="none" style="stroke:#000000;stroke-width:1.5;"/><line style="stroke:#000000;stroke-width:1.5;" x1="2922" x2="3051" y1="76.7188" y2="76.7188"/><text fill="#000000" font-family="sans-serif" font-size="14" font-weight="bold" lengthAdjust="spacing" textLength="116" x="2926" y="69.6426">voyager-android</text></g><!--entity bc1--><g id="elem_bc1"><rect fill="#F1F1F1" height="47.6094" rx="2.5" ry="2.5" style="stroke:#181818;stroke-width:0.5;" width="97" x="22.5" y="89.1094"/><rect fill="#F1F1F1" height="10" style="stroke:#181818;stroke-width:0.5;" width="15" x="99.5" y="94.1094"/><rect fill="#F1F1F1" height="2" style="stroke:#181818;stroke-width:0.5;" width="4" x="97.5" y="96.1094"/><rect fill="#F1F1F1" height="2" style="stroke:#181818;stroke-width:0.5;" width="4" x="97.5" y="100.1094"/><text fill="#000000" font-family="sans-serif" font-size="14" lengthAdjust="spacing" textLength="57" x="37.5" y="123.6426">checkout</text></g><!--entity bc2--><g id="elem_bc2"><rect fill="#F1F1F1" height="47.6094" rx="2.5" ry="2.5" style="stroke:#181818;stroke-width:0.5;" width="93" x="154.5" y="89.1094"/><rect fill="#F1F1F1" height="10" style="stroke:#181818;stroke-width:0.5;" width="15" x="227.5" y="94.1094"/><rect fill="#F1F1F1" height="2" style="stroke:#181818;stroke-width:0.5;" width="4" x="225.5" y="96.1094"/><rect fill="#F1F1F1" height="2" style="stroke:#181818;stroke-width:0.5;" width="4" x="225.5" y="100.1094"/><text fill="#000000" font-family="sans-serif" font-size="14" lengthAdjust="spacing" textLength="53" x="169.5" y="123.6426">Trivy FS</text></g><!--entity bc3--><g id="elem_bc3"><rect fill="#F1F1F1" height="47.6094" rx="2.5" ry="2.5" style="stroke:#181818;stroke-width:0.5;" width="195" x="282.5" y="89.1094"/><rect fill="#F1F1F1" height="10" style="stroke:#181818;stroke-width:0.5;" width="15" x="457.5" y="94.1094"/><rect fill="#F1F1F1" height="2" style="stroke:#181818;stroke-width:0.5;" width="4" x="455.5" y="96.1094"/><rect fill="#F1F1F1" height="2" style="stroke:#181818;stroke-width:0.5;" width="4" x="455.5" y="100.1094"/><text fill="#000000" font-family="sans-serif" font-size="14" lengthAdjust="spacing" textLength="155" x="297.5" y="123.6426">SonarCloud + mvn verify</text></g><!--entity bc4--><g id="elem_bc4"><rect fill="#F1F1F1" height="47.6094" rx="2.5" ry="2.5" style="stroke:#181818;stroke-width:0.5;" width="159" x="512.5" y="89.1094"/><rect fill="#F1F1F1" height="10" style="stroke:#181818;stroke-width:0.5;" width="15" x="651.5" y="94.1094"/><rect fill="#F1F1F1" height="2" style="stroke:#181818;stroke-width:0.5;" width="4" x="649.5" y="96.1094"/><rect fill="#F1F1F1" height="2" style="stroke:#181818;stroke-width:0.5;" width="4" x="649.5" y="100.1094"/><text fill="#000000" font-family="sans-serif" font-size="14" lengthAdjust="spacing" textLength="119" x="527.5" y="123.6426">mvn test / package</text></g><!--entity bc5--><g id="elem_bc5"><rect fill="#F1F1F1" height="47.6094" rx="2.5" ry="2.5" style="stroke:#181818;stroke-width:0.5;" width="163" x="706.5" y="89.1094"/><rect fill="#F1F1F1" height="10" style="stroke:#181818;stroke-width:0.5;" width="15" x="849.5" y="94.1094"/><rect fill="#F1F1F1" height="2" style="stroke:#181818;stroke-width:0.5;" width="4" x="847.5" y="96.1094"/><rect fill="#F1F1F1" height="2" style="stroke:#181818;stroke-width:0.5;" width="4" x="847.5" y="100.1094"/><text fill="#000000" font-family="sans-serif" font-size="14" lengthAdjust="spacing" textLength="123" x="721.5" y="123.6426">Artifact backend-jar</text></g><!--entity bc6--><g id="elem_bc6"><rect fill="#F1F1F1" height="65.2188" rx="2.5" ry="2.5" style="stroke:#181818;stroke-width:0.5;" width="184" x="905" y="80.6094"/><rect fill="#F1F1F1" height="10" style="stroke:#181818;stroke-width:0.5;" width="15" x="1069" y="85.6094"/><rect fill="#F1F1F1" height="2" style="stroke:#181818;stroke-width:0.5;" width="4" x="1067" y="87.6094"/><rect fill="#F1F1F1" height="2" style="stroke:#181818;stroke-width:0.5;" width="4" x="1067" y="91.6094"/><text fill="#000000" font-family="sans-serif" font-size="14" lengthAdjust="spacing" textLength="144" x="920" y="115.1426">Manual deploy handoff</text><text fill="#000000" font-family="sans-serif" font-size="14" lengthAdjust="spacing" textLength="78" x="920" y="132.752">Learner Lab</text></g><!--entity ai1--><g id="elem_ai1"><rect fill="#F1F1F1" height="47.6094" rx="2.5" ry="2.5" style="stroke:#181818;stroke-width:0.5;" width="97" x="1145.5" y="89.1094"/><rect fill="#F1F1F1" height="10" style="stroke:#181818;stroke-width:0.5;" width="15" x="1222.5" y="94.1094"/><rect fill="#F1F1F1" height="2" style="stroke:#181818;stroke-width:0.5;" width="4" x="1220.5" y="96.1094"/><rect fill="#F1F1F1" height="2" style="stroke:#181818;stroke-width:0.5;" width="4" x="1220.5" y="100.1094"/><text fill="#000000" font-family="sans-serif" font-size="14" lengthAdjust="spacing" textLength="57" x="1160.5" y="123.6426">checkout</text></g><!--entity ai2--><g id="elem_ai2"><rect fill="#F1F1F1" height="47.6094" rx="2.5" ry="2.5" style="stroke:#181818;stroke-width:0.5;" width="93" x="1277.5" y="89.1094"/><rect fill="#F1F1F1" height="10" style="stroke:#181818;stroke-width:0.5;" width="15" x="1350.5" y="94.1094"/><rect fill="#F1F1F1" height="2" style="stroke:#181818;stroke-width:0.5;" width="4" x="1348.5" y="96.1094"/><rect fill="#F1F1F1" height="2" style="stroke:#181818;stroke-width:0.5;" width="4" x="1348.5" y="100.1094"/><text fill="#000000" font-family="sans-serif" font-size="14" lengthAdjust="spacing" textLength="53" x="1292.5" y="123.6426">Trivy FS</text></g><!--entity ai3--><g id="elem_ai3"><rect fill="#F1F1F1" height="47.6094" rx="2.5" ry="2.5" style="stroke:#181818;stroke-width:0.5;" width="115" x="1405.5" y="89.1094"/><rect fill="#F1F1F1" height="10" style="stroke:#181818;stroke-width:0.5;" width="15" x="1500.5" y="94.1094"/><rect fill="#F1F1F1" height="2" style="stroke:#181818;stroke-width:0.5;" width="4" x="1498.5" y="96.1094"/><rect fill="#F1F1F1" height="2" style="stroke:#181818;stroke-width:0.5;" width="4" x="1498.5" y="100.1094"/><text fill="#000000" font-family="sans-serif" font-size="14" lengthAdjust="spacing" textLength="75" x="1420.5" y="123.6426">SonarCloud</text></g><!--entity ai4--><g id="elem_ai4"><rect fill="#F1F1F1" height="47.6094" rx="2.5" ry="2.5" style="stroke:#181818;stroke-width:0.5;" width="179" x="1555.5" y="89.1094"/><rect fill="#F1F1F1" height="10" style="stroke:#181818;stroke-width:0.5;" width="15" x="1714.5" y="94.1094"/><rect fill="#F1F1F1" height="2" style="stroke:#181818;stroke-width:0.5;" width="4" x="1712.5" y="96.1094"/><rect fill="#F1F1F1" height="2" style="stroke:#181818;stroke-width:0.5;" width="4" x="1712.5" y="100.1094"/><text fill="#000000" font-family="sans-serif" font-size="14" lengthAdjust="spacing" textLength="139" x="1570.5" y="123.6426">pip install + tests/build</text></g><!--entity ai5--><g id="elem_ai5"><rect fill="#F1F1F1" height="47.6094" rx="2.5" ry="2.5" style="stroke:#181818;stroke-width:0.5;" width="182" x="1770" y="89.1094"/><rect fill="#F1F1F1" height="10" style="stroke:#181818;stroke-width:0.5;" width="15" x="1932" y="94.1094"/><rect fill="#F1F1F1" height="2" style="stroke:#181818;stroke-width:0.5;" width="4" x="1930" y="96.1094"/><rect fill="#F1F1F1" height="2" style="stroke:#181818;stroke-width:0.5;" width="4" x="1930" y="100.1094"/><text fill="#000000" font-family="sans-serif" font-size="14" lengthAdjust="spacing" textLength="142" x="1785" y="123.6426">Artifact deploy handoff</text></g><!--entity wc1--><g id="elem_wc1"><rect fill="#F1F1F1" height="47.6094" rx="2.5" ry="2.5" style="stroke:#181818;stroke-width:0.5;" width="97" x="2008.5" y="89.1094"/><rect fill="#F1F1F1" height="10" style="stroke:#181818;stroke-width:0.5;" width="15" x="2085.5" y="94.1094"/><rect fill="#F1F1F1" height="2" style="stroke:#181818;stroke-width:0.5;" width="4" x="2083.5" y="96.1094"/><rect fill="#F1F1F1" height="2" style="stroke:#181818;stroke-width:0.5;" width="4" x="2083.5" y="100.1094"/><text fill="#000000" font-family="sans-serif" font-size="14" lengthAdjust="spacing" textLength="57" x="2023.5" y="123.6426">checkout</text></g><!--entity wc2--><g id="elem_wc2"><rect fill="#F1F1F1" height="47.6094" rx="2.5" ry="2.5" style="stroke:#181818;stroke-width:0.5;" width="127" x="2140.5" y="89.1094"/><rect fill="#F1F1F1" height="10" style="stroke:#181818;stroke-width:0.5;" width="15" x="2247.5" y="94.1094"/><rect fill="#F1F1F1" height="2" style="stroke:#181818;stroke-width:0.5;" width="4" x="2245.5" y="96.1094"/><rect fill="#F1F1F1" height="2" style="stroke:#181818;stroke-width:0.5;" width="4" x="2245.5" y="100.1094"/><text fill="#000000" font-family="sans-serif" font-size="14" lengthAdjust="spacing" textLength="87" x="2155.5" y="123.6426">npm ci + tests</text></g><!--entity wc3--><g id="elem_wc3"><rect fill="#F1F1F1" height="47.6094" rx="2.5" ry="2.5" style="stroke:#181818;stroke-width:0.5;" width="93" x="2302.5" y="89.1094"/><rect fill="#F1F1F1" height="10" style="stroke:#181818;stroke-width:0.5;" width="15" x="2375.5" y="94.1094"/><rect fill="#F1F1F1" height="2" style="stroke:#181818;stroke-width:0.5;" width="4" x="2373.5" y="96.1094"/><rect fill="#F1F1F1" height="2" style="stroke:#181818;stroke-width:0.5;" width="4" x="2373.5" y="100.1094"/><text fill="#000000" font-family="sans-serif" font-size="14" lengthAdjust="spacing" textLength="53" x="2317.5" y="123.6426">Trivy FS</text></g><!--entity wc4--><g id="elem_wc4"><rect fill="#F1F1F1" height="47.6094" rx="2.5" ry="2.5" style="stroke:#181818;stroke-width:0.5;" width="115" x="2430.5" y="89.1094"/><rect fill="#F1F1F1" height="10" style="stroke:#181818;stroke-width:0.5;" width="15" x="2525.5" y="94.1094"/><rect fill="#F1F1F1" height="2" style="stroke:#181818;stroke-width:0.5;" width="4" x="2523.5" y="96.1094"/><rect fill="#F1F1F1" height="2" style="stroke:#181818;stroke-width:0.5;" width="4" x="2523.5" y="100.1094"/><text fill="#000000" font-family="sans-serif" font-size="14" lengthAdjust="spacing" textLength="75" x="2445.5" y="123.6426">SonarCloud</text></g><!--entity wc5--><g id="elem_wc5"><rect fill="#F1F1F1" height="47.6094" rx="2.5" ry="2.5" style="stroke:#181818;stroke-width:0.5;" width="98" x="2581" y="89.1094"/><rect fill="#F1F1F1" height="10" style="stroke:#181818;stroke-width:0.5;" width="15" x="2659" y="94.1094"/><rect fill="#F1F1F1" height="2" style="stroke:#181818;stroke-width:0.5;" width="4" x="2657" y="96.1094"/><rect fill="#F1F1F1" height="2" style="stroke:#181818;stroke-width:0.5;" width="4" x="2657" y="100.1094"/><text fill="#000000" font-family="sans-serif" font-size="14" lengthAdjust="spacing" textLength="58" x="2596" y="123.6426">Vite build</text></g><!--entity wc6--><g id="elem_wc6"><rect fill="#F1F1F1" height="47.6094" rx="2.5" ry="2.5" style="stroke:#181818;stroke-width:0.5;" width="167" x="2714.5" y="89.1094"/><rect fill="#F1F1F1" height="10" style="stroke:#181818;stroke-width:0.5;" width="15" x="2861.5" y="94.1094"/><rect fill="#F1F1F1" height="2" style="stroke:#181818;stroke-width:0.5;" width="4" x="2859.5" y="96.1094"/><rect fill="#F1F1F1" height="2" style="stroke:#181818;stroke-width:0.5;" width="4" x="2859.5" y="100.1094"/><text fill="#000000" font-family="sans-serif" font-size="14" lengthAdjust="spacing" textLength="127" x="2729.5" y="123.6426">Artifact static deploy</text></g><!--entity an1--><g id="elem_an1"><rect fill="#F1F1F1" height="47.6094" rx="2.5" ry="2.5" style="stroke:#181818;stroke-width:0.5;" width="97" x="2938.5" y="89.1094"/><rect fill="#F1F1F1" height="10" style="stroke:#181818;stroke-width:0.5;" width="15" x="3015.5" y="94.1094"/><rect fill="#F1F1F1" height="2" style="stroke:#181818;stroke-width:0.5;" width="4" x="3013.5" y="96.1094"/><rect fill="#F1F1F1" height="2" style="stroke:#181818;stroke-width:0.5;" width="4" x="3013.5" y="100.1094"/><text fill="#000000" font-family="sans-serif" font-size="14" lengthAdjust="spacing" textLength="57" x="2953.5" y="123.6426">checkout</text></g><!--entity an2--><g id="elem_an2"><rect fill="#F1F1F1" height="47.6094" rx="2.5" ry="2.5" style="stroke:#181818;stroke-width:0.5;" width="93" x="3070.5" y="89.1094"/><rect fill="#F1F1F1" height="10" style="stroke:#181818;stroke-width:0.5;" width="15" x="3143.5" y="94.1094"/><rect fill="#F1F1F1" height="2" style="stroke:#181818;stroke-width:0.5;" width="4" x="3141.5" y="96.1094"/><rect fill="#F1F1F1" height="2" style="stroke:#181818;stroke-width:0.5;" width="4" x="3141.5" y="100.1094"/><text fill="#000000" font-family="sans-serif" font-size="14" lengthAdjust="spacing" textLength="53" x="3085.5" y="123.6426">Trivy FS</text></g><!--entity an3--><g id="elem_an3"><rect fill="#F1F1F1" height="47.6094" rx="2.5" ry="2.5" style="stroke:#181818;stroke-width:0.5;" width="238" x="3199" y="89.1094"/><rect fill="#F1F1F1" height="10" style="stroke:#181818;stroke-width:0.5;" width="15" x="3417" y="94.1094"/><rect fill="#F1F1F1" height="2" style="stroke:#181818;stroke-width:0.5;" width="4" x="3415" y="96.1094"/><rect fill="#F1F1F1" height="2" style="stroke:#181818;stroke-width:0.5;" width="4" x="3415" y="100.1094"/><text fill="#000000" font-family="sans-serif" font-size="14" lengthAdjust="spacing" textLength="198" x="3214" y="123.6426">SonarCloud + Gradle assemble</text></g><!--entity an4--><g id="elem_an4"><rect fill="#F1F1F1" height="47.6094" rx="2.5" ry="2.5" style="stroke:#181818;stroke-width:0.5;" width="122" x="3472" y="89.1094"/><rect fill="#F1F1F1" height="10" style="stroke:#181818;stroke-width:0.5;" width="15" x="3574" y="94.1094"/><rect fill="#F1F1F1" height="2" style="stroke:#181818;stroke-width:0.5;" width="4" x="3572" y="96.1094"/><rect fill="#F1F1F1" height="2" style="stroke:#181818;stroke-width:0.5;" width="4" x="3572" y="100.1094"/><text fill="#000000" font-family="sans-serif" font-size="14" lengthAdjust="spacing" textLength="82" x="3487" y="123.6426">APK / bundle</text></g><!--link bc1 to bc2--><g id="link_bc1_bc2"><path d="M119.75,113.1094 C131.28,113.1094 136.81,113.1094 148.34,113.1094 " fill="none" id="bc1-to-bc2" style="stroke:#181818;stroke-width:1.0;"/><polygon fill="#181818" points="154.34,113.1094,145.34,109.1094,149.34,113.1094,145.34,117.1094,154.34,113.1094" style="stroke:#181818;stroke-width:1.0;"/></g><!--link bc2 to bc3--><g id="link_bc2_bc3"><path d="M247.85,113.1094 C259.38,113.1094 264.91,113.1094 276.43,113.1094 " fill="none" id="bc2-to-bc3" style="stroke:#181818;stroke-width:1.0;"/><polygon fill="#181818" points="282.43,113.1094,273.43,109.1094,277.43,113.1094,273.43,117.1094,282.43,113.1094" style="stroke:#181818;stroke-width:1.0;"/></g><!--link bc3 to bc4--><g id="link_bc3_bc4"><path d="M477.72,113.1094 C489.18,113.1094 494.63,113.1094 506.09,113.1094 " fill="none" id="bc3-to-bc4" style="stroke:#181818;stroke-width:1.0;"/><polygon fill="#181818" points="512.09,113.1094,503.09,109.1094,507.09,113.1094,503.09,117.1094,512.09,113.1094" style="stroke:#181818;stroke-width:1.0;"/></g><!--link bc4 to bc5--><g id="link_bc4_bc5"><path d="M671.62,113.1094 C683.14,113.1094 688.66,113.1094 700.17,113.1094 " fill="none" id="bc4-to-bc5" style="stroke:#181818;stroke-width:1.0;"/><polygon fill="#181818" points="706.17,113.1094,697.17,109.1094,701.17,113.1094,697.17,117.1094,706.17,113.1094" style="stroke:#181818;stroke-width:1.0;"/></g><!--link bc5 to bc6--><g id="link_bc5_bc6"><path d="M869.64,113.1094 C881.41,113.1094 887.19,113.1094 898.96,113.1094 " fill="none" id="bc5-to-bc6" style="stroke:#181818;stroke-width:1.0;"/><polygon fill="#181818" points="904.96,113.1094,895.96,109.1094,899.96,113.1094,895.96,117.1094,904.96,113.1094" style="stroke:#181818;stroke-width:1.0;"/></g><!--link ai1 to ai2--><g id="link_ai1_ai2"><path d="M1242.75,113.1094 C1254.28,113.1094 1259.81,113.1094 1271.34,113.1094 " fill="none" id="ai1-to-ai2" style="stroke:#181818;stroke-width:1.0;"/><polygon fill="#181818" points="1277.34,113.1094,1268.34,109.1094,1272.34,113.1094,1268.34,117.1094,1277.34,113.1094" style="stroke:#181818;stroke-width:1.0;"/></g><!--link ai2 to ai3--><g id="link_ai2_ai3"><path d="M1370.7,113.1094 C1382.23,113.1094 1387.77,113.1094 1399.31,113.1094 " fill="none" id="ai2-to-ai3" style="stroke:#181818;stroke-width:1.0;"/><polygon fill="#181818" points="1405.31,113.1094,1396.31,109.1094,1400.31,113.1094,1396.31,117.1094,1405.31,113.1094" style="stroke:#181818;stroke-width:1.0;"/></g><!--link ai3 to ai4--><g id="link_ai3_ai4"><path d="M1520.59,113.1094 C1532.09,113.1094 1537.59,113.1094 1549.09,113.1094 " fill="none" id="ai3-to-ai4" style="stroke:#181818;stroke-width:1.0;"/><polygon fill="#181818" points="1555.09,113.1094,1546.09,109.1094,1550.09,113.1094,1546.09,117.1094,1555.09,113.1094" style="stroke:#181818;stroke-width:1.0;"/></g><!--link ai4 to ai5--><g id="link_ai4_ai5"><path d="M1734.86,113.1094 C1746.52,113.1094 1752.18,113.1094 1763.84,113.1094 " fill="none" id="ai4-to-ai5" style="stroke:#181818;stroke-width:1.0;"/><polygon fill="#181818" points="1769.84,113.1094,1760.84,109.1094,1764.84,113.1094,1760.84,117.1094,1769.84,113.1094" style="stroke:#181818;stroke-width:1.0;"/></g><!--link wc1 to wc2--><g id="link_wc1_wc2"><path d="M2105.52,113.1094 C2117.06,113.1094 2122.6,113.1094 2134.14,113.1094 " fill="none" id="wc1-to-wc2" style="stroke:#181818;stroke-width:1.0;"/><polygon fill="#181818" points="2140.14,113.1094,2131.14,109.1094,2135.14,113.1094,2131.14,117.1094,2140.14,113.1094" style="stroke:#181818;stroke-width:1.0;"/></g><!--link wc2 to wc3--><g id="link_wc2_wc3"><path d="M2267.72,113.1094 C2279.26,113.1094 2284.79,113.1094 2296.33,113.1094 " fill="none" id="wc2-to-wc3" style="stroke:#181818;stroke-width:1.0;"/><polygon fill="#181818" points="2302.33,113.1094,2293.33,109.1094,2297.33,113.1094,2293.33,117.1094,2302.33,113.1094" style="stroke:#181818;stroke-width:1.0;"/></g><!--link wc3 to wc4--><g id="link_wc3_wc4"><path d="M2395.7,113.1094 C2407.23,113.1094 2412.77,113.1094 2424.31,113.1094 " fill="none" id="wc3-to-wc4" style="stroke:#181818;stroke-width:1.0;"/><polygon fill="#181818" points="2430.31,113.1094,2421.31,109.1094,2425.31,113.1094,2421.31,117.1094,2430.31,113.1094" style="stroke:#181818;stroke-width:1.0;"/></g><!--link wc4 to wc5--><g id="link_wc4_wc5"><path d="M2545.69,113.1094 C2557.43,113.1094 2563.18,113.1094 2574.93,113.1094 " fill="none" id="wc4-to-wc5" style="stroke:#181818;stroke-width:1.0;"/><polygon fill="#181818" points="2580.93,113.1094,2571.93,109.1094,2575.93,113.1094,2571.93,117.1094,2580.93,113.1094" style="stroke:#181818;stroke-width:1.0;"/></g><!--link wc5 to wc6--><g id="link_wc5_wc6"><path d="M2679.22,113.1094 C2690.97,113.1094 2696.73,113.1094 2708.48,113.1094 " fill="none" id="wc5-to-wc6" style="stroke:#181818;stroke-width:1.0;"/><polygon fill="#181818" points="2714.48,113.1094,2705.48,109.1094,2709.48,113.1094,2705.48,117.1094,2714.48,113.1094" style="stroke:#181818;stroke-width:1.0;"/></g><!--link an1 to an2--><g id="link_an1_an2"><path d="M3035.75,113.1094 C3047.28,113.1094 3052.81,113.1094 3064.34,113.1094 " fill="none" id="an1-to-an2" style="stroke:#181818;stroke-width:1.0;"/><polygon fill="#181818" points="3070.34,113.1094,3061.34,109.1094,3065.34,113.1094,3061.34,117.1094,3070.34,113.1094" style="stroke:#181818;stroke-width:1.0;"/></g><!--link an2 to an3--><g id="link_an2_an3"><path d="M3163.72,113.1094 C3175.47,113.1094 3181.22,113.1094 3192.97,113.1094 " fill="none" id="an2-to-an3" style="stroke:#181818;stroke-width:1.0;"/><polygon fill="#181818" points="3198.97,113.1094,3189.97,109.1094,3193.97,113.1094,3189.97,117.1094,3198.97,113.1094" style="stroke:#181818;stroke-width:1.0;"/></g><!--link an3 to an4--><g id="link_an3_an4"><path d="M3437.26,113.1094 C3448.73,113.1094 3454.2,113.1094 3465.67,113.1094 " fill="none" id="an3-to-an4" style="stroke:#181818;stroke-width:1.0;"/><polygon fill="#181818" points="3471.67,113.1094,3462.67,109.1094,3466.67,113.1094,3462.67,117.1094,3471.67,113.1094" style="stroke:#181818;stroke-width:1.0;"/></g><!--SRC=[TLF1Qjn03BtxAqIknIoDlJaMmfQMqXGAARsqFSXZkL4oEsF6OmzB2VGZ-eNzaivMcYr9lRw89pqiwJrDv6W9TkyskzVm- -Sl6Enyxs7q0GADVkBe0_kg6j4yu7U2YyKVSWnrbnFa-jhuG1VmeuByVJ5tP1xy7By1Jj2PbvBz57Wvm9jRpLvAzjOx33lhvnvUm7vni53WuQ2aHaZ7VAGfmWPq0gstKhyEaGSq4SeuznYKiHN61tGpMkXfjFu0T-XwFmnVtGrXS1JW1ZlbN_tbvw6XVdMQCaU1ZS96OAkm5RXLk1LuLJskA8PSJnGMDcVqGbxJ2_a_lJIl4eqy0hifehLPoADOqwQRsHRQSwMUAg4aMI1FS5oWjCnHOAEm4TWgR0LkLxTDrDN6Chculcqgr-76FHWkesljSaM9L8xYcHAf7CDdZWJ_La_b14whPv4Y6rL0EM9x4jjBuoIsbuv9R2-DajXU_f_4zdJETjS7p_qPpzsgvsxjZRmDsEUdYjD4-ywICbMJwu_lynlfPjUVAcgJ4q_rbpaAL4-TU9h9ZzKV]--></g></svg>